<svg xmlns="http://www.w3.org/2000/svg" fill="none" viewBox="0 0 18 19">
  <g clip-path="url(#SdPHdorf0oNa)">
    <path d="M13.009 12.326a558.114 558.114 0 014.084-2.232c.467-.248.948-.904 0-1.415-.306-.16-1.955-1.065-4.084-2.232l-2.933 2.947 2.933 2.932z" fill="#FFD400"/>
    <path d="M10.077 9.394L.712 18.832c.219.029.467-.03.759-.19.612-.335 7.118-3.895 11.538-6.316l-2.932-2.932z" fill="#F33"/>
    <path d="M10.077 9.394l2.932-2.947S2.127.51 1.471.16A1.141 1.141 0 00.697.014l9.38 9.38z" fill="#48FF48"/>
    <path d="M10.081 9.394L.701.014c-.378.088-.7.423-.7 1.109v16.6c0 .628.249 1.08.715 1.123l9.365-9.452z" fill="#3BCCFF"/>
  </g>
  <defs>
    <clipPath id="SdPHdorf0oNa">
      <path fill="#fff" d="M0 0h17.636v18.847H0z"/>
    </clipPath>
  </defs>
</svg>
