<svg xmlns="http://www.w3.org/2000/svg" fill="none" viewBox="0 0 43 10">
  <g filter="url(#BsCVYu_MJma)">
    <path d="M1 4.789a2.394 2.394 0 012.394-2.395h21.893a2.395 2.395 0 010 4.79H3.394A2.394 2.394 0 011 4.788z" fill="#161616"/>
  </g>
  <g filter="url(#BsCVYu_MJmb)">
    <path d="M3.394 2.737h21.893a2.052 2.052 0 010 4.104H3.394a2.052 2.052 0 010-4.104z" stroke="#000" stroke-opacity=".32" stroke-width=".684"/>
  </g>
  <path d="M3.394 2.566h21.893a2.223 2.223 0 110 4.446H3.394a2.223 2.223 0 010-4.446z" stroke="url(#BsCVYu_MJmc)" stroke-width=".342"/>
  <path d="M33.154 4.789a4.789 4.789 0 119.578 0 4.789 4.789 0 01-9.578 0z" fill="url(#BsCVYu_MJmd)"/>
  <path d="M33.154 4.789a4.789 4.789 0 119.578 0 4.789 4.789 0 01-9.578 0z" fill="url(#BsCVYu_MJme)"/>
  <path d="M40.338 4.789a2.394 2.394 0 10-4.789 0 2.394 2.394 0 004.789 0z" fill="url(#BsCVYu_MJmf)"/>
  <path d="M40.338 4.789a2.394 2.394 0 10-4.789 0 2.394 2.394 0 004.789 0z" fill="url(#BsCVYu_MJmg)"/>
  <path d="M40.338 4.789a2.394 2.394 0 10-4.789 0 2.394 2.394 0 004.789 0z" fill="url(#BsCVYu_MJmh)"/>
  <path d="M40.338 4.789a2.394 2.394 0 10-4.789 0 2.394 2.394 0 004.789 0z" fill="url(#BsCVYu_MJmi)"/>
  <path d="M40.338 4.789a2.394 2.394 0 10-4.789 0 2.394 2.394 0 004.789 0z" fill="url(#BsCVYu_MJmj)"/>
  <defs>
    <radialGradient id="BsCVYu_MJmd" cx="0" cy="0" r="1" gradientUnits="userSpaceOnUse" gradientTransform="rotate(-127.694 21.121 -6.02) scale(4.75525)">
      <stop stop-color="#242424"/>
      <stop offset="1" stop-color="#161616"/>
    </radialGradient>
    <radialGradient id="BsCVYu_MJme" cx="0" cy="0" r="1" gradientUnits="userSpaceOnUse" gradientTransform="rotate(90 16.577 21.366) scale(4.78897)">
      <stop offset=".464" stop-opacity=".25"/>
      <stop offset=".646" stop-opacity="0"/>
    </radialGradient>
    <radialGradient id="BsCVYu_MJmg" cx="0" cy="0" r="1" gradientUnits="userSpaceOnUse" gradientTransform="rotate(58.392 14.205 34.406) scale(2.61073)">
      <stop stop-color="#070D17"/>
      <stop offset="1" stop-color="#070D17" stop-opacity="0"/>
    </radialGradient>
    <radialGradient id="BsCVYu_MJmh" cx="0" cy="0" r="1" gradientUnits="userSpaceOnUse" gradientTransform="rotate(106.699 17.234 16.808) scale(1.78565)">
      <stop offset=".147" stop-color="#070D17"/>
      <stop offset="1" stop-color="#070D17" stop-opacity="0"/>
    </radialGradient>
    <radialGradient id="BsCVYu_MJmi" cx="0" cy="0" r="1" gradientUnits="userSpaceOnUse" gradientTransform="rotate(128.66 18.286 11.42) scale(1.09516)">
      <stop stop-color="#6356D7"/>
      <stop offset="1" stop-color="#15368A" stop-opacity="0"/>
    </radialGradient>
    <radialGradient id="BsCVYu_MJmj" cx="0" cy="0" r="1" gradientUnits="userSpaceOnUse" gradientTransform="rotate(90 16.577 21.366) scale(2.39448)">
      <stop offset=".828" stop-opacity="0"/>
      <stop offset="1" stop-opacity=".85"/>
    </radialGradient>
    <linearGradient id="BsCVYu_MJmc" x1="14.341" y1="2.394" x2="14.341" y2="7.183" gradientUnits="userSpaceOnUse">
      <stop/>
      <stop offset=".483" stop-color="#484848"/>
      <stop offset="1"/>
    </linearGradient>
    <linearGradient id="BsCVYu_MJmf" x1="37.943" y1="2.394" x2="37.943" y2="7.183" gradientUnits="userSpaceOnUse">
      <stop stop-color="#0B528D"/>
      <stop offset=".276" stop-color="#3625AF"/>
      <stop offset=".51" stop-color="#070D17"/>
      <stop offset=".734" stop-color="#16618F"/>
      <stop offset="1" stop-color="#021762"/>
    </linearGradient>
    <filter id="BsCVYu_MJma" x="1" y="2.394" width="26.681" height="4.789" filterUnits="userSpaceOnUse" color-interpolation-filters="sRGB">
      <feFlood flood-opacity="0" result="BackgroundImageFix"/>
      <feBlend in="SourceGraphic" in2="BackgroundImageFix" result="shape"/>
      <feColorMatrix in="SourceAlpha" values="0 0 0 0 0 0 0 0 0 0 0 0 0 0 0 0 0 0 127 0" result="hardAlpha"/>
      <feOffset/>
      <feGaussianBlur stdDeviation="1.368"/>
      <feComposite in2="hardAlpha" operator="arithmetic" k2="-1" k3="1"/>
      <feColorMatrix values="0 0 0 0 0 0 0 0 0 0 0 0 0 0 0 0 0 0 0.48 0"/>
      <feBlend in2="shape" result="effect1_innerShadow_1447:26002"/>
    </filter>
    <filter id="BsCVYu_MJmb" x=".658" y="2.052" width="27.366" height="5.473" filterUnits="userSpaceOnUse" color-interpolation-filters="sRGB">
      <feFlood flood-opacity="0" result="BackgroundImageFix"/>
      <feBlend in="SourceGraphic" in2="BackgroundImageFix" result="shape"/>
      <feGaussianBlur stdDeviation=".171" result="effect1_foregroundBlur_1447:26002"/>
    </filter>
  </defs>
</svg>
