<svg xmlns="http://www.w3.org/2000/svg" fill="none" viewBox="0 0 43 10">
  <g filter="url(#JJB3bPzM2a)">
    <path d="M1 4.788a2.394 2.394 0 012.394-2.394h21.892a2.394 2.394 0 010 4.789H3.394A2.394 2.394 0 011 4.788z" fill="#161616"/>
  </g>
  <g filter="url(#JJB3bPzM2b)">
    <path d="M3.394 2.736h21.892a2.052 2.052 0 110 4.104H3.394a2.052 2.052 0 110-4.104z" stroke="#000" stroke-opacity=".32" stroke-width=".684"/>
  </g>
  <path d="M3.394 2.565h21.892a2.223 2.223 0 110 4.447H3.394a2.223 2.223 0 110-4.447z" stroke="url(#JJB3bPzM2c)" stroke-width=".342"/>
  <path d="M33.155 4.789a4.789 4.789 0 119.577 0 4.789 4.789 0 01-9.577 0z" fill="url(#JJB3bPzM2d)"/>
  <path d="M33.155 4.789a4.789 4.789 0 119.577 0 4.789 4.789 0 01-9.577 0z" fill="url(#JJB3bPzM2e)"/>
  <path d="M40.342 4.788a2.394 2.394 0 10-4.789 0 2.394 2.394 0 004.79 0z" fill="url(#JJB3bPzM2f)"/>
  <path d="M40.342 4.788a2.394 2.394 0 10-4.789 0 2.394 2.394 0 004.79 0z" fill="url(#JJB3bPzM2g)"/>
  <path d="M40.342 4.788a2.394 2.394 0 10-4.789 0 2.394 2.394 0 004.79 0z" fill="url(#JJB3bPzM2h)"/>
  <path d="M40.342 4.788a2.394 2.394 0 10-4.789 0 2.394 2.394 0 004.79 0z" fill="url(#JJB3bPzM2i)"/>
  <path d="M40.342 4.788a2.394 2.394 0 10-4.789 0 2.394 2.394 0 004.79 0z" fill="url(#JJB3bPzM2j)"/>
  <defs>
    <radialGradient id="JJB3bPzM2d" cx="0" cy="0" r="1" gradientUnits="userSpaceOnUse" gradientTransform="rotate(-127.694 21.121 -6.02) scale(4.75512)">
      <stop stop-color="#242424"/>
      <stop offset="1" stop-color="#161616"/>
    </radialGradient>
    <radialGradient id="JJB3bPzM2e" cx="0" cy="0" r="1" gradientUnits="userSpaceOnUse" gradientTransform="rotate(90 16.577 21.366) scale(4.78883)">
      <stop offset=".464" stop-opacity=".25"/>
      <stop offset=".646" stop-opacity="0"/>
    </radialGradient>
    <radialGradient id="JJB3bPzM2g" cx="0" cy="0" r="1" gradientUnits="userSpaceOnUse" gradientTransform="rotate(58.392 14.208 34.41) scale(2.61066)">
      <stop stop-color="#070D17"/>
      <stop offset="1" stop-color="#070D17" stop-opacity="0"/>
    </radialGradient>
    <radialGradient id="JJB3bPzM2h" cx="0" cy="0" r="1" gradientUnits="userSpaceOnUse" gradientTransform="rotate(106.699 17.236 16.81) scale(1.7856)">
      <stop offset=".147" stop-color="#070D17"/>
      <stop offset="1" stop-color="#070D17" stop-opacity="0"/>
    </radialGradient>
    <radialGradient id="JJB3bPzM2i" cx="0" cy="0" r="1" gradientUnits="userSpaceOnUse" gradientTransform="rotate(128.66 18.289 11.421) scale(1.09512)">
      <stop stop-color="#6356D7"/>
      <stop offset="1" stop-color="#15368A" stop-opacity="0"/>
    </radialGradient>
    <radialGradient id="JJB3bPzM2j" cx="0" cy="0" r="1" gradientUnits="userSpaceOnUse" gradientTransform="rotate(90 16.58 21.368) scale(2.39442)">
      <stop offset=".828" stop-opacity="0"/>
      <stop offset="1" stop-opacity=".85"/>
    </radialGradient>
    <linearGradient id="JJB3bPzM2c" x1="14.34" y1="2.394" x2="14.34" y2="7.183" gradientUnits="userSpaceOnUse">
      <stop/>
      <stop offset=".483" stop-color="#484848"/>
      <stop offset="1"/>
    </linearGradient>
    <linearGradient id="JJB3bPzM2f" x1="37.948" y1="2.394" x2="37.948" y2="7.183" gradientUnits="userSpaceOnUse">
      <stop stop-color="#0B528D"/>
      <stop offset=".276" stop-color="#3625AF"/>
      <stop offset=".51" stop-color="#070D17"/>
      <stop offset=".734" stop-color="#16618F"/>
      <stop offset="1" stop-color="#021762"/>
    </linearGradient>
    <filter id="JJB3bPzM2a" x="1" y="2.394" width="26.681" height="4.789" filterUnits="userSpaceOnUse" color-interpolation-filters="sRGB">
      <feFlood flood-opacity="0" result="BackgroundImageFix"/>
      <feBlend in="SourceGraphic" in2="BackgroundImageFix" result="shape"/>
      <feColorMatrix in="SourceAlpha" values="0 0 0 0 0 0 0 0 0 0 0 0 0 0 0 0 0 0 127 0" result="hardAlpha"/>
      <feOffset/>
      <feGaussianBlur stdDeviation="1.368"/>
      <feComposite in2="hardAlpha" operator="arithmetic" k2="-1" k3="1"/>
      <feColorMatrix values="0 0 0 0 0 0 0 0 0 0 0 0 0 0 0 0 0 0 0.48 0"/>
      <feBlend in2="shape" result="effect1_innerShadow_1380:24081"/>
    </filter>
    <filter id="JJB3bPzM2b" x=".658" y="2.052" width="27.365" height="5.473" filterUnits="userSpaceOnUse" color-interpolation-filters="sRGB">
      <feFlood flood-opacity="0" result="BackgroundImageFix"/>
      <feBlend in="SourceGraphic" in2="BackgroundImageFix" result="shape"/>
      <feGaussianBlur stdDeviation=".171" result="effect1_foregroundBlur_1380:24081"/>
    </filter>
  </defs>
</svg>
