<svg xmlns="http://www.w3.org/2000/svg" fill="none" viewBox="0 0 32 27">
  <path d="M23.622 26.969c-7.568-.09-16.939-5.804-20.8-8.998l-2.596-4.02 3.23.798C-1.504 8.524.268 4.447.476 4.025.999 2.557 2.19 1.383 4.123.613 5.59.026 7.253-.047 8.68.02c6.166.29 13.45 4.132 18.156 8.22l.11.094.936 4.724-1.828-1.017C19.704 9.257 14.597 7.71 14.597 7.71c-3.343-1.04-4.879-1.21-5.973-.956l-.132.04a.54.54 0 00-.356.464c-.048 2.09 3.548 6.587 5.36 8.531 1.688 1.814 4.343 3.806 6.588 4.75 1.504.633 2.476.886 2.93.84a9.757 9.757 0 00-.623-1.454s-2.407-4.75-2.511-4.94c-.06-.108 11.463 6.615 11.463 6.615v2.3l-.563.573c-1.917 1.825-4.42 2.53-7.158 2.497z" fill="#FFB81C"/>
  <path fill-rule="evenodd" clip-rule="evenodd" d="M30.572 23.526l-7.557-4.624c-.06-.136-1.043-2.036-1.136-2.13l8.712 5.27-.019 1.483zm-8.328-.186c-.77-.02-1.858-.39-3.087-.91-2.374-.999-5.127-3.066-6.883-4.95-1.703-1.833-5.642-6.612-5.583-9.123.019-.66.25-1.117.63-1.431-.016.1-.023.205-.027.31-.061 2.512 3.88 7.292 5.585 9.126 1.754 1.884 4.505 3.953 6.88 4.95 1.566.662 2.907 1.078 3.648.84.054.879-.394 1.208-1.163 1.188zm-15.87-5.757c-.945-.22-1.99-.454-3.007-.692-.196-.255-1.05-1.43-1.166-1.584.83.204 1.764.435 2.685.657.521.616 1.03 1.163 1.489 1.62zm20.354-6.633C22.186 6.585 14.416 2.277 8.04 1.981c-1.385-.067-2.906.016-4.208.532-1.19.479-2.025 1.097-2.57 1.82.418-1.204 1.402-2.23 3.176-2.937C5.735.876 7.255.795 8.64.858c5.91.279 13.02 3.999 17.645 8.016l.443 2.076z" fill="#041342"/>
  <path fill-rule="evenodd" clip-rule="evenodd" d="M23.98 26.128c-7.196.1-16.525-5.42-20.569-8.764 1.514.422 3.06.755 4.593 1.105-16.837-16.1.273-22.502 18.403-7.189-6.405-2.815-11.564-4.377-11.564-4.377-13.272-4.13-9.027 4.494-2.965 10.948.744.794 3.12 2.998 5.192 4.087 3.643 2.144 9.098 3.536 6.07-2.396l7.052 4.324c-1.65 1.57-3.812 2.228-6.211 2.262z" fill="#6F263D"/>
</svg>
