<svg xmlns="http://www.w3.org/2000/svg" fill="none" viewBox="0 0 125 36">
  <path d="M119.835 36H4.609C2.075 36 0 33.974 0 31.5v-27C0 2.026 2.075 0 4.609 0h115.226c2.534 0 4.609 2.026 4.609 4.5v27c0 2.474-2.075 4.5-4.609 4.5z" fill="#000"/>
  <path d="M119.835.721c2.134 0 3.871 1.696 3.871 3.779v27c0 2.084-1.737 3.779-3.871 3.779H4.609c-2.134 0-3.87-1.696-3.87-3.779v-27c0-2.083 1.736-3.779 3.87-3.779h115.226zm0-.721H4.609C2.075 0 0 2.026 0 4.5v27C0 33.974 2.075 36 4.609 36h115.226c2.534 0 4.609-2.026 4.609-4.5v-27c0-2.474-2.075-4.5-4.609-4.5z" fill="#A6A6A6"/>
  <path d="M43.71 9.22c0 .75-.23 1.353-.684 1.802-.523.532-1.202.8-2.035.8-.797 0-1.477-.273-2.034-.81-.559-.544-.838-1.212-.838-2.012s.279-1.468.838-2.008c.557-.541 1.237-.814 2.034-.814.396 0 .774.08 1.135.229.36.15.652.352.864.602l-.482.474c-.37-.426-.873-.636-1.517-.636a2.14 2.14 0 00-1.512.597c-.423.4-.635.92-.635 1.556 0 .637.212 1.16.635 1.56a2.16 2.16 0 001.512.598c.616 0 1.135-.203 1.544-.602.27-.264.423-.629.463-1.095H40.99v-.65h2.677c.033.14.042.277.042.408zm4.248-2.255h-2.515v1.71h2.267v.65h-2.267v1.71h2.515v.663h-3.227V6.302h3.227v.663zm2.998 4.733h-.712V6.965h-1.543v-.663h3.8v.663h-1.545v4.733zm4.294 0V6.302h.71v5.396h-.71zm3.862 0h-.706V6.965h-1.549v-.663h3.804v.663h-1.549v4.733zm8.741-.694c-.545.545-1.22.818-2.026.818-.81 0-1.485-.273-2.03-.818-.544-.545-.815-1.213-.815-2.004 0-.79.271-1.46.815-2.004.545-.545 1.22-.818 2.03-.818.801 0 1.476.273 2.021.823.549.549.82 1.213.82 1.999 0 .79-.271 1.46-.815 2.004zm-3.53-.453c.41.404.91.607 1.504.607a2.05 2.05 0 001.5-.607c.409-.403.616-.922.616-1.551 0-.629-.207-1.147-.617-1.551a2.048 2.048 0 00-1.499-.607c-.594 0-1.093.203-1.503.607-.41.404-.617.922-.617 1.551 0 .629.208 1.148.617 1.551zm5.343 1.147V6.302h.864l2.687 4.197h.031l-.03-1.038V6.302h.71v5.396h-.742l-2.814-4.404h-.03l.03 1.042v3.362h-.706z" fill="#fff" stroke="#fff" stroke-width=".111" stroke-miterlimit="10"/>
  <path d="M62.806 19.577c-2.165 0-3.933 1.609-3.933 3.829 0 2.201 1.768 3.827 3.934 3.827 2.17 0 3.938-1.626 3.938-3.827 0-2.22-1.769-3.829-3.939-3.829zm0 6.148c-1.188 0-2.21-.957-2.21-2.32 0-1.38 1.023-2.32 2.21-2.32 1.188 0 2.215.94 2.215 2.32 0 1.363-1.027 2.32-2.215 2.32zm-8.583-6.148c-2.17 0-3.934 1.609-3.934 3.829 0 2.201 1.765 3.827 3.934 3.827 2.169 0 3.934-1.626 3.934-3.827 0-2.22-1.765-3.829-3.934-3.829zm0 6.148c-1.189 0-2.214-.957-2.214-2.32 0-1.38 1.025-2.32 2.214-2.32 1.188 0 2.21.94 2.21 2.32 0 1.363-1.022 2.32-2.21 2.32zM44.01 20.751v1.626h3.978c-.116.91-.427 1.578-.904 2.043-.58.563-1.485 1.187-3.074 1.187-2.449 0-4.366-1.93-4.366-4.32 0-2.39 1.917-4.32 4.366-4.32 1.324 0 2.287.505 2.998 1.16l1.174-1.146c-.994-.927-2.317-1.64-4.172-1.64-3.358 0-6.18 2.668-6.18 5.946 0 3.279 2.822 5.946 6.18 5.946 1.815 0 3.178-.58 4.25-1.67 1.097-1.072 1.44-2.58 1.44-3.796 0-.378-.033-.726-.09-1.016h-5.6zm41.765 1.26c-.324-.855-1.323-2.434-3.358-2.434-2.017 0-3.695 1.552-3.695 3.829 0 2.144 1.661 3.827 3.888 3.827a3.908 3.908 0 003.268-1.697l-1.337-.87c-.445.637-1.053 1.06-1.93 1.06-.873 0-1.499-.391-1.9-1.16l5.244-2.119-.18-.435zm-5.347 1.275a2.123 2.123 0 012.047-2.232c.685 0 1.266.335 1.46.813l-3.507 1.42zM76.166 27h1.724V15.75h-1.724V27zm-2.823-6.57h-.058c-.387-.448-1.126-.853-2.061-.853-1.964 0-3.759 1.683-3.759 3.841 0 2.145 1.795 3.815 3.759 3.815.935 0 1.674-.409 2.061-.87h.058v.55c0 1.463-.801 2.25-2.093 2.25-1.053 0-1.706-.743-1.976-1.368l-1.499.611c.432 1.015 1.576 2.264 3.475 2.264 2.021 0 3.727-1.161 3.727-3.986V19.81h-1.634v.62zm-1.972 5.295c-1.188 0-2.182-.97-2.182-2.307 0-1.349.994-2.333 2.182-2.333 1.17 0 2.094.984 2.094 2.333 0 1.337-.923 2.307-2.094 2.307zm22.474-9.975h-4.123V27h1.72v-4.263h2.403c1.91 0 3.782-1.348 3.782-3.494 0-2.144-1.877-3.493-3.782-3.493zm.045 5.422h-2.45v-3.857h2.449a1.975 1.975 0 012.016 1.928c0 .87-.733 1.93-2.016 1.93zm10.627-1.616c-1.242 0-2.534.535-3.065 1.722l1.526.625c.328-.625.932-.827 1.57-.827.892 0 1.797.523 1.81 1.447v.118c-.311-.176-.977-.436-1.796-.436-1.643 0-3.317.883-3.317 2.532 0 1.507 1.346 2.478 2.858 2.478 1.157 0 1.796-.51 2.197-1.103h.058v.87h1.661v-4.316c0-1.994-1.526-3.11-3.502-3.11zm-.207 6.165c-.563 0-1.346-.272-1.346-.953 0-.87.977-1.205 1.823-1.205.757 0 1.112.163 1.571.378-.134 1.042-1.053 1.78-2.048 1.78zm9.758-5.919l-1.976 4.877h-.059l-2.043-4.877h-1.854l3.07 6.816-1.751 3.792h1.796l4.73-10.608h-1.913zM98.571 27h1.724V15.75h-1.724V27z" fill="#fff"/>
  <path d="M9.619 6.785c-.27.277-.428.707-.428 1.265v19.904c0 .558.157.989.428 1.266l.067.06 11.423-11.148v-.264L9.686 6.72l-.067.065z" fill="url(#XwBGIG2hpa)"/>
  <path d="M24.913 21.85l-3.804-3.718v-.264l3.809-3.718.085.049 4.51 2.505c1.287.711 1.287 1.881 0 2.596l-4.51 2.501-.09.049z" fill="url(#XwBGIG2hpb)"/>
  <path d="M25.003 21.801L21.11 18 9.62 29.22c.427.438 1.124.491 1.917.053L25.002 21.8z" fill="url(#XwBGIG2hpc)"/>
  <path d="M25.003 14.199L11.537 6.727c-.793-.434-1.49-.38-1.918.058L21.11 18l3.894-3.801z" fill="url(#XwBGIG2hpd)"/>
  <defs>
    <linearGradient id="XwBGIG2hpa" x1="20.095" y1="28.161" x2="4.995" y2="12.695" gradientUnits="userSpaceOnUse">
      <stop stop-color="#00A0FF"/>
      <stop offset=".007" stop-color="#00A1FF"/>
      <stop offset=".26" stop-color="#00BEFF"/>
      <stop offset=".512" stop-color="#00D2FF"/>
      <stop offset=".76" stop-color="#00DFFF"/>
      <stop offset="1" stop-color="#00E3FF"/>
    </linearGradient>
    <linearGradient id="XwBGIG2hpb" x1="31.189" y1="17.999" x2="8.884" y2="17.999" gradientUnits="userSpaceOnUse">
      <stop stop-color="#FFE000"/>
      <stop offset=".409" stop-color="#FFBD00"/>
      <stop offset=".775" stop-color="orange"/>
      <stop offset="1" stop-color="#FF9C00"/>
    </linearGradient>
    <linearGradient id="XwBGIG2hpc" x1="22.886" y1="15.934" x2="2.409" y2="-5.039" gradientUnits="userSpaceOnUse">
      <stop stop-color="#FF3A44"/>
      <stop offset="1" stop-color="#C31162"/>
    </linearGradient>
    <linearGradient id="XwBGIG2hpd" x1="6.727" y1="35.841" x2="15.87" y2="26.476" gradientUnits="userSpaceOnUse">
      <stop stop-color="#32A071"/>
      <stop offset=".069" stop-color="#2DA771"/>
      <stop offset=".476" stop-color="#15CF74"/>
      <stop offset=".801" stop-color="#06E775"/>
      <stop offset="1" stop-color="#00F076"/>
    </linearGradient>
  </defs>
</svg>
