<svg xmlns="http://www.w3.org/2000/svg" fill="none" viewBox="0 0 23 31">
  <g clip-path="url(#kl9X75dxTVFa)">
    <path d="M6.34 15.984v7.828c0 1.07 1.11 1.738 1.996 1.203l9.095-5.483c2.115-1.275 4.76.318 4.76 2.868 0 1.183-.605 2.276-1.586 2.867l-8.188 4.937a2.565 2.565 0 01-2.662 0l-8.426-5.082C.508 24.625 0 23.71 0 22.718V12.556c0-.992.508-1.909 1.33-2.405L17.43.447c2.116-1.275 4.762.32 4.762 2.87 0 1.182-.606 2.277-1.587 2.868L7.338 14.18a2.104 2.104 0 00-.997 1.804z" fill="#9A0700"/>
  </g>
  <defs>
    <clipPath id="kl9X75dxTVFa">
      <path fill="#fff" d="M0 0h22.702v30.578H0z"/>
    </clipPath>
  </defs>
</svg>
