<svg xmlns="http://www.w3.org/2000/svg" fill="none" viewBox="0 0 30 40">
  <g clip-path="url(#sI6Pj6N7ldda)">
    <path d="M8.182 20.647v10.11c0 1.382 1.43 2.245 2.574 1.554l11.735-7.082c2.73-1.647 6.144.41 6.144 3.704 0 1.528-.782 2.94-2.047 3.704l-10.566 6.377a3.306 3.306 0 01-3.435 0L1.715 32.449C.655 31.809 0 30.625 0 29.345V16.218c0-1.281.655-2.465 1.717-3.107L22.49.58c2.73-1.647 6.144.413 6.144 3.706 0 1.528-.782 2.941-2.047 3.706L9.468 18.316c-.794.481-1.286 1.37-1.286 2.33z" fill="#9A0700"/>
  </g>
  <defs>
    <clipPath id="sI6Pj6N7ldda">
      <path fill="#fff" d="M0 0h29.293v39.496H0z"/>
    </clipPath>
  </defs>
</svg>
