<svg xmlns="http://www.w3.org/2000/svg" fill="none" viewBox="0 0 32 32">
  <g clip-path="url(#nOE0T9Pt_Sa)">
    <path fill-rule="evenodd" clip-rule="evenodd" d="M17.586 30.644c-.127.374-.54 1.29-1.538 1.29-1.134 0-1.53-1.207-1.55-1.256l-.032-.116s.978.08 1.516.08 1.457-.052 1.607-.08l-.003.082z" fill="#000"/>
    <path fill-rule="evenodd" clip-rule="evenodd" d="M20.562 30.048l.235.031c-.279.712-.777 1.51-1.758 1.51-.949 0-1.42-.54-1.62-.903l-.164-.1s1.641-.053 3.307-.538zm-8.996 0l-.234.031c.278.712.777 1.51 1.758 1.51a1.93 1.93 0 001.672-.903l.112-.1s-1.641-.053-3.308-.538z" fill="#000"/>
    <path fill-rule="evenodd" clip-rule="evenodd" d="M16.843 30.718c-.154.219-.256.208-.442.208-.092 0-.232.076-.227.213.003.107.092.197.243.197.335 0 .59-.46.662-.655 0 0 .198-.008.256-.014 0 0-.355 1.04-1.276 1.04-.922 0-1.297-1.029-1.297-1.029s.776.048 1.22.048c.445 0 .728-.002.86-.008zm3.596-.457c-.601.16-1.028.288-2.038.409 0 0 .031.102.25.09.085-.003.096-.024.127-.03.063-.01.158.054.147.162-.008.075-.074.17-.298.17-.223 0-.485-.18-.616-.347 0 0-.135.03-.273.038 0 0 .43.592 1.277.592.933 0 1.278-.82 1.424-1.084z" fill="#FFF22D"/>
    <path fill-rule="evenodd" clip-rule="evenodd" d="M19.814 30.84a.674.674 0 00-.122-.387c-.326.076-.7.145-1.247.212a1.298 1.298 0 00-.011.048c.033.026.097.054.218.048.084-.004.095-.024.126-.03.063-.011.158.053.147.161-.008.075-.074.17-.298.17a.544.544 0 01-.178-.032c.03.1.081.19.15.265.136.034.276.051.416.05.3 0 .537-.083.729-.207a.67.67 0 00.07-.299z" fill="#FADE2F"/>
    <path fill-rule="evenodd" clip-rule="evenodd" d="M19.804 30.84a.664.664 0 00-.122-.385c-.322.074-.69.142-1.226.208a.533.533 0 00-.013.056c.035.024.098.048.209.042.084-.004.095-.025.127-.03.062-.012.158.053.146.16-.008.076-.074.171-.297.171a.546.546 0 01-.167-.029c.03.101.084.191.156.266.12.03.253.047.399.047.29 0 .524-.08.712-.198a.668.668 0 00.076-.309z" fill="#FBE02F"/>
    <path fill-rule="evenodd" clip-rule="evenodd" d="M19.794 30.84a.654.654 0 00-.122-.383c-.317.073-.682.14-1.206.205a.583.583 0 00-.015.063.349.349 0 00.2.036c.085-.004.096-.025.127-.03.063-.012.159.053.147.16-.008.076-.074.171-.297.171a.535.535 0 01-.156-.025.663.663 0 00.161.266c.117.027.244.043.382.043.283 0 .511-.076.697-.188a.65.65 0 00.082-.319z" fill="#FCE22F"/>
    <path fill-rule="evenodd" clip-rule="evenodd" d="M11.69 30.26c.601.16 1.028.289 2.039.41 0 0-.032.102-.252.09-.084-.003-.095-.024-.126-.03-.063-.01-.159.054-.147.162.008.075.074.17.297.17.224 0 .486-.18.617-.347 0 0 .135.03.274.038 0 0-.43.592-1.278.592-.933 0-1.278-.82-1.424-1.084zm4.28-4.875c3.216 0 6.778-1.94 9.276-4.737.27-.302.729-.876 1.816-.876 1.087 0 2.532.974 2.362 2.748-.124 1.293-2.004 4.207-5.219 6.003-3.215 1.796-6.176 2.183-8.234 2.183-2.059 0-5.02-.387-8.235-2.183-3.215-1.796-5.095-4.71-5.22-6.003a2.453 2.453 0 012.363-2.748c1.088 0 1.546.574 1.816.876 2.498 2.797 6.06 4.737 9.275 4.737z" fill="#FFF22D"/>
    <path d="M15.97 25.271c1.558 0 3.2-.462 4.762-1.26a15.442 15.442 0 004.427-3.438c.14-.155.326-.38.626-.571.3-.192.707-.343 1.277-.343.059 0 .122.003.188.009.524.049 1.1.298 1.545.731a2.51 2.51 0 01.759 1.838c0 .092-.005.19-.015.294-.071.742-.699 1.996-1.808 3.272-.87 1-2.038 2.02-3.469 2.818a17.306 17.306 0 01-4.582 1.777c-2.44.561-4.979.561-7.42 0a17.307 17.307 0 01-4.58-1.777 13.11 13.11 0 01-3.47-2.818c-1.109-1.276-1.737-2.53-1.808-3.273a3.087 3.087 0 01-.014-.293c0-.786.314-1.404.759-1.838a2.616 2.616 0 011.544-.731c.066-.006.13-.01.188-.01.57 0 .977.152 1.277.344.3.19.487.416.626.571a15.447 15.447 0 004.427 3.439c1.562.797 3.204 1.26 4.761 1.26zm0 .227c-1.595 0-3.274-.47-4.868-1.285a15.686 15.686 0 01-4.494-3.49c-.13-.147-.308-.36-.577-.531-.268-.17-.634-.306-1.152-.306-.056 0-.111.003-.167.008a2.378 2.378 0 00-1.403.666 2.29 2.29 0 00-.69 1.677c0 .091.004.182.013.272.067.703.676 1.907 1.753 3.147a12.894 12.894 0 003.408 2.769 17.072 17.072 0 004.52 1.752 16.345 16.345 0 007.315 0 17.065 17.065 0 004.52-1.752 12.886 12.886 0 003.408-2.77c1.078-1.24 1.686-2.443 1.754-3.146.008-.09.012-.18.012-.272a2.29 2.29 0 00-.69-1.677 2.378 2.378 0 00-1.403-.666 1.893 1.893 0 00-.167-.008c-.518 0-.884.135-1.152.306-.27.172-.447.384-.577.53a15.679 15.679 0 01-4.494 3.491c-1.594.814-3.272 1.285-4.868 1.285z" fill="#000"/>
    <path fill-rule="evenodd" clip-rule="evenodd" d="M6.334 20.926l-.037-.042c-.256-.289-.607-.685-1.444-.685-.489 0-1.042.257-1.41.654-.274.296-.586.818-.509 1.615.104 1.089 1.863 3.913 4.996 5.663 2.524 1.41 5.22 2.126 8.014 2.126 2.793 0 5.49-.716 8.014-2.126 3.133-1.75 4.892-4.574 4.996-5.663.076-.797-.235-1.319-.51-1.615-.367-.397-.92-.654-1.409-.654-.837 0-1.187.396-1.444.685l-.037.042c-2.692 3.014-6.374 4.885-9.61 4.885-3.236 0-6.918-1.871-9.61-4.885z" fill="#C23227"/>
    <path fill-rule="evenodd" clip-rule="evenodd" d="M26.3 17.37c0-1.516 1.25-2.745 2.792-2.745 1.543 0 2.793 1.23 2.793 2.746s-1.25 2.745-2.793 2.745c-1.543 0-2.793-1.229-2.793-2.745z" fill="#FFF22D"/>
    <path d="M26.183 17.37c0-.789.326-1.504.852-2.021a2.923 2.923 0 012.057-.838c.803 0 1.53.32 2.057.838a2.827 2.827 0 010 4.044 2.926 2.926 0 01-2.057.837c-.803 0-1.53-.32-2.057-.837a2.848 2.848 0 01-.631-.928 2.806 2.806 0 01-.22-1.094zm.232 0c0 .727.3 1.385.784 1.862.484.476 1.154.77 1.893.77.739 0 1.408-.294 1.893-.77a2.62 2.62 0 00.581-.854 2.586 2.586 0 000-2.015 2.623 2.623 0 00-.58-.853 2.693 2.693 0 00-1.894-.771 2.69 2.69 0 00-1.893.77 2.585 2.585 0 00-.784 1.861z" fill="#000"/>
    <path fill-rule="evenodd" clip-rule="evenodd" d="M.115 17.375c0-1.516 1.25-2.745 2.793-2.745 1.542 0 2.793 1.229 2.793 2.745 0 1.517-1.25 2.746-2.793 2.746-1.543 0-2.793-1.23-2.793-2.746z" fill="#FFF22D"/>
    <path d="M0 17.375c0-.79.325-1.504.851-2.022a2.945 2.945 0 012.057-.837c.803 0 1.53.32 2.057.837.27.265.485.58.63.928a2.827 2.827 0 01-.631 3.117c-.27.265-.59.476-.943.62a2.945 2.945 0 01-1.113.217c-.803 0-1.53-.32-2.057-.838A2.826 2.826 0 010 17.375zm.23 0a2.621 2.621 0 00.784 1.861c.249.245.544.44.869.572.325.132.673.2 1.025.2a2.69 2.69 0 001.893-.772 2.62 2.62 0 00.581-.853 2.602 2.602 0 00-.581-2.869 2.692 2.692 0 00-1.893-.77 2.674 2.674 0 00-2.474 1.624c-.135.32-.204.661-.204 1.007z" fill="#000"/>
    <path fill-rule="evenodd" clip-rule="evenodd" d="M29.857 9.986l.015-.736c.228.17.663.176.917-.09a.68.68 0 00.172-.504.927.927 0 00-.277-.604c-.941-.901-1.773-1.802-1.773-1.802a.765.765 0 00-.298-.265c-.117-.051-.524-.234-.834.23-.282.42-.24 1.015-.19 1.231l.884 1.18c.3.374 1.149 1.174 1.384 1.36zM11.05 2.34c1.11-.366 2.121-.667 3.486-.787l-3.486.787z" fill="#000"/>
    <path fill-rule="evenodd" clip-rule="evenodd" d="M11.05 2.343c1.11-.366 2.121-.667 3.486-.787l.208-.115C13.98.85 13.224.45 12.47.45c-.473 0-1.434.315-1.65 1.982l.23-.09zm9.844 0c-1.11-.366-2.12-.667-3.485-.787l-.208-.115c.762-.59 1.52-.99 2.273-.99.473 0 1.435.315 1.65 1.982l-.23-.09zm-5.832-.954c.225-.012.746-.023.954-.023.208 0 .783.027.909.036l-1.863-.013z" fill="#000"/>
    <path fill-rule="evenodd" clip-rule="evenodd" d="M14.718 1.5C15.276.447 15.788.064 16.07.064c.353 0 .767.554 1.092 1.266l.069.16-.283-.023c-.192-.034-.724-.04-.932-.04-.208 0-.66 0-.931.023l-.367.048z" fill="#000"/>
    <path fill-rule="evenodd" clip-rule="evenodd" d="M13.627 26.389l-.5 1.831-.93-2.208-.58-.152-.706 2.59.629.165.503-1.846.946 2.228.564.148.706-2.59-.632-.166zm2.17.327l-.716-.037-.143 2.678.716.036.143-2.677zm.643-.023l.05.353.764-.106.33 2.302.71-.098-.33-2.302.752-.104-.05-.352-2.226.307zm7.388-1.091c.347.597.277 1.032-.258 1.336l-.253.143-1.003-1.706.274-.156c.64-.364 1-.04 1.24.383zm-1.395-.708l-.924.524 1.368 2.33.918-.52c.954-.543 1.042-1.36.668-2.013-.452-.777-1.194-.796-2.03-.321zm-1.731 3.299l-.272-.824.808-.258-.113-.343-.809.259-.232-.703.83-.265-.112-.34-1.515.485.842 2.55 1.672-.534-.113-.342-.986.315zm-10.376-2.954l-.808 1.432c-.244.432-.495.705-.906.472-.407-.222-.313-.553-.063-.996l.809-1.436-.652-.355-.855 1.515c-.472.837.123 1.352.584 1.603.496.27 1.217.472 1.684-.357l.859-1.523-.652-.355zM9.864 9.49v12.554l6.106 3.858 6.107-3.858.008-12.534c-.194-.17-.6-.543-.921-.736H10.749a9.85 9.85 0 00-.885.716z" fill="#FFF22D"/>
    <path d="M9.98 9.49v12.492l5.99 3.786 5.991-3.786.008-12.472h.231l-.008 12.534v.061l-.053.034L16.033 26l-.063.039-.062-.04-6.106-3.859-.054-.034V9.49h.231z" fill="#000"/>
    <path d="M22.007 9.595l-.072-.064c-.209-.185-.558-.495-.831-.66l.12-.194c.296.178.653.496.866.685l.072.063-.155.17z" fill="#000"/>
    <path d="M21.164 8.888H10.749V8.66h10.415v.228z" fill="#000"/>
    <path d="M10.815 8.867a8.97 8.97 0 00-.462.353 6.174 6.174 0 00-.404.347l-.17-.153c.05-.055.23-.21.428-.37.171-.138.354-.28.475-.363l.133.186z" fill="#000"/>
    <path fill-rule="evenodd" clip-rule="evenodd" d="M16.402 14.86c-.043-.019-.195.102-.264.21-.07.108-.09.247.009.298.098.051.222-.015.251-.184.018-.1.05-.304.004-.324zm-1.169.324c.025.17.153.235.252.184.098-.051.078-.19.008-.298-.07-.108-.212-.229-.255-.21-.046.02-.02.227-.005.324zm.613 1.67c.205-.332.29-.675.29-.675h-.586s.093.352.296.674zm.101-2.487l.474-.811.37.81h.613c-.37.342-.52.857-.52 1.199v.375c0 .159-.08.42-.08.42s.53.4.612.466c.035.029.071.045.046.114-.042.118-.4.275-.44.307-.08.068-.102.113-.078.182.023.068.09.08.23.034.138-.045.427-.193.67-.295.243-.103.567-.08.567-.08v-.454h-.914v-1.456l-.162-.254.405-.705.405.709-.162.25v.762h.468v-.762l-.162-.25.405-.705.405.705-.162.25v.762h.468v-.762l-.161-.25.404-.705.405.705-.162.25.005 1.454h-.919v.669c.209.193.405.628.405.89 0 .261-.173.375-.173.375.057.205.046.29.023.478-.024.191-.266.488-.266.488V23c0 .236-.555.213-.555.011v-3.398c-.313-.341-1.168-.603-1.168-.603-.313.307-.51.842-.51.842.14.09.348 0 .429-.091.08-.091.243-.114.335-.057.093.057.116.08.081.216-.034.136-.093.363-.093.521 0 .16.186.125.324.137.278.023.324.33.301.5-.023.17-.104.535-.104.762 0 .227.012.455.035.58.023.125.07.261.057.42-.015.216-.15.25-.289.114-.138-.136-2.07-2.16-2.07-2.16-.127.409.405 1.114.578 1.33.174.216.162.375.012.523-.15.148-.44.227-.497.364-.058.136.139.545.543 1.057.405.512-.462.853-.983.955-.52.103-.52-.25-.485-.443.034-.194.034-.307.023-.478-.012-.17-.174-.409-.394-.694-.22-.283-.22-.545-.127-1.204.093-.66.07-1.08.07-1.08s-.232.011-.567 0c-.336-.012-.613-.204-.636-1-.023-.796-.043-2.694-.096-2.891-.054-.197-.27-.235-.363-.258-.092-.023-.1-.16-.007-.205.241-.118.531-.409.423-.59-.107-.183-.532-.145-.817-.009-.285.137-.586.432-.663.516-.077.083-.139.083-.131-.008.008-.09-.054-.523-.092-.674a2.808 2.808 0 00-.224-.516c-.046-.075 0-.106.077-.075.077.03.247.098.409.144a.332.332 0 00.393-.182c.077-.152.223-.478.3-.622.078-.144.201-.114.301-.09.1.022.193.083.286.12.092.039.17.031.2-.015.031-.045.07-.06.123-.174.054-.114.124-.06.131-.015.277 1.63.995 1.705.995 1.705-.108.273-.362.705-.424.811a1.03 1.03 0 00-.1.364c-.015.114.039 1.19.116 1.584.077.394.324.243.4.122.078-.122.317-.622.317-.622s.062-.136.062-.25c0-.114-.201-.364-.247-.44-.047-.075-.216-.227-.216-.606s.347-.644.47-.743a.317.317 0 00.108-.318c-.054-.293-.37-.91-.524-1.145a90.434 90.434 0 00-.455-.682h.624l.402-.819.439.823.454.004zm2.464 4.13v-.465s-.128-.194-.44-.194-.497.091-.497.17c0 .126.277.49.937.49zm-8.069-5.876h11.266v.756H10.342v-.756zm0-.388V9.224h11.266v3.01H10.342z" fill="#C23227"/>
    <path fill-rule="evenodd" clip-rule="evenodd" d="M19.39 12.323v-.514h-.818v-.331h.668v-1.455h-.613l-.208-.398-.209.398h-.612v1.455h.667v.331h-1.603v-.331h.668v-1.455h-.613l-.208-.398-.208.398h-.613v1.455h.667v.331h-1.634v-.331h.668v-1.455h-.613l-.208-.398-.208.398h-.614v1.455h.668v.331l-1.292.004-1.287-.296.26.806h7.296z" fill="#FFF22D"/>
    <path fill-rule="evenodd" clip-rule="evenodd" d="M12.28 11.451l.863.209.463-1.278v-.322l-1.327 1.391zm2.083-9.979c-1.338.117-2.161.396-3.248.755.08-.46.19-.733.378-1.003-.015.237.183.49.576.49.393 0 .611-.222.611-.356 0-.133-.082-.327-.294-.327-.211 0-.257.149-.242.208.015.06-.03.075-.09.09-.06.014-.227-.075-.167-.283.067-.228.348-.353.68-.353 0 0 .791-.03 1.796.78zm6.476.764c-1.087-.359-1.947-.638-3.285-.755.616-.422 1.191-.78 1.823-.78.332 0 .614.124.68.353.06.208-.106.297-.167.282-.06-.015-.105-.03-.09-.09.015-.059-.03-.207-.242-.207-.211 0-.294.193-.294.326 0 .134.219.357.611.357.393 0 .59-.253.576-.49.189.27.307.544.388 1.004zm-5.652-1.008c-.036.056-.068.098-.106.16.311-.012.623-.02.935-.022.204 0 .767.027.89.036-.199-.454-.575-1.08-.837-1.08-.052 0-.167-.026-.383.218 0 0-.033.108.104.087.173-.026.24.15.226.238-.03.204-.272.4-.514.4-.241 0-.315-.037-.315-.037z" fill="#FFF22D"/>
    <path fill-rule="evenodd" clip-rule="evenodd" d="M3.537 8.625l.883-1.179c.05-.216.092-.81-.189-1.231-.31-.464-.717-.281-.835-.23a.768.768 0 00-.298.265s-.847.92-1.784 1.825c-.13.126-.277.364-.289.58a.707.707 0 00.184.512c.254.267.7.253.929.083l.015.736C2.388 9.8 3.236 9 3.537 8.626z" fill="#000"/>
    <path fill-rule="evenodd" clip-rule="evenodd" d="M15.97 6.907c5.028 0 7.89 4.641 8.513 5.456 1.11 1.456 2.466 2.636 4.04 2.244 2.313-.576 2.19-3.945 2.19-3.945-.555-.395-1.508-.891-3.239-3.305-1.696-2.365-5.536-5.873-11.504-5.873-5.967 0-9.807 3.508-11.503 5.873-1.732 2.414-2.683 2.91-3.238 3.305 0 0-.124 3.369 2.19 3.945 1.573.392 2.93-.788 4.04-2.244.621-.815 3.485-5.456 8.511-5.456z" fill="#FFF22D"/>
    <path d="M15.97 6.794c4.675 0 7.492 3.946 8.408 5.23.083.117.151.211.197.271.547.718 1.154 1.367 1.816 1.787.649.412 1.352.602 2.104.415 2.053-.512 2.106-3.344 2.102-3.777l-.143-.098c-.582-.395-1.517-1.029-3.075-3.2-.973-1.357-2.66-3.095-5.055-4.318-1.742-.89-3.86-1.507-6.354-1.507-2.493 0-4.612.618-6.354 1.507-2.395 1.223-4.081 2.96-5.055 4.318-1.557 2.172-2.492 2.806-3.075 3.2l-.143.098c-.004.433.05 3.265 2.103 3.776.752.188 1.455-.002 2.103-.414.662-.42 1.27-1.07 1.817-1.787.046-.06.113-.154.196-.27.917-1.284 3.734-5.231 8.409-5.231zm0 .227c-4.554 0-7.32 3.874-8.219 5.134a10.75 10.75 0 01-.2.276c-.563.738-1.19 1.406-1.877 1.842-.7.444-1.462.649-2.284.444-2.404-.599-2.277-4.048-2.277-4.058l.002-.056.046-.033c.063-.045.127-.088.195-.134.569-.386 1.483-1.006 3.017-3.144.99-1.38 2.703-3.146 5.138-4.39 1.772-.904 3.926-1.532 6.46-1.532 2.533 0 4.687.628 6.46 1.533 2.434 1.243 4.148 3.009 5.138 4.389 1.534 2.138 2.447 2.758 3.016 3.143.068.047.132.09.195.135l.047.033.001.056c0 .01.127 3.46-2.277 4.058-.822.204-1.584 0-2.284-.444-.688-.436-1.314-1.104-1.877-1.842-.056-.074-.12-.165-.2-.276-.9-1.26-3.665-5.134-8.22-5.134z" fill="#000"/>
    <path fill-rule="evenodd" clip-rule="evenodd" d="M15.97 6.47c4.847 0 7.73 4.04 8.68 5.369.061.088.124.175.189.261 1.282 1.681 2.452 2.362 3.574 2.082 1.624-.404 1.824-2.601 1.846-3.265l.001-.025-.02-.014c-.571-.387-1.528-1.035-3.13-3.269-.957-1.334-4.589-5.687-11.14-5.687-6.55 0-10.182 4.353-11.139 5.687-1.59 2.218-2.589 2.895-3.125 3.26l-.021.013v.026c.024.666.225 2.871 1.843 3.274 1.123.28 2.292-.401 3.574-2.082.047-.06.113-.153.19-.261.948-1.328 3.832-5.37 8.678-5.37z" fill="#C23227"/>
    <path fill-rule="evenodd" clip-rule="evenodd" d="M5.544 8.331l-.506.593.948 1.928-2.035-.655-.436.51 2.09 1.724.315-.37-1.475-1.221 1.978.632.208-.244-.943-1.857 1.484 1.223.46-.54-2.088-1.723zm2.64-.404l-.472.5-.485-.922.958.422zm-1.1-1.217l-.465.49 1.306 2.555.319-.336-.355-.676.632-.667.714.298.526-.555L7.083 6.71zm3.19-2.426l1.022 1.608-2.278-.837-.509.313L9.954 7.64l.551-.338-1.03-1.622 2.303.84.495-.305-1.445-2.273-.555.34zM18.905 5.6l.286-.818.804.272.119-.34-.803-.273.244-.699.826.28.118-.337-1.507-.51-.888 2.535 1.662.562.119-.34-.98-.332zm4.665-.17l-.246.263.573.507-1.582 1.728.533.472 1.582-1.728.565.5.243-.265-1.668-1.476zm.783 4.027l.674-.556.546.64.28-.232-.545-.64.576-.475.56.657.278-.229-1.024-1.2-2.09 1.724 1.13 1.323.28-.232-.665-.78zm3.16.682c.19.208.19.455-.027.647s-.49.151-.698-.077l-.123-.133.689-.61.16.173zm-.363 1.322c.005.005.422.208.882-.2.386-.34.256-.808-.146-1.246l-.743-.811-2.027 1.794.48.523.805-.712.238.259-.514 1.129.61.481.415-1.218zM16.892 2.95l-.02 1.094-1.07-.018.019-1.095-.717-.012-.048 2.68.717.013.022-1.226 1.07.019-.02 1.225.716.012.048-2.68-.717-.013zm3.882 3.984c.509.3 1.064.252 1.323-.171.19-.296.192-.54-.034-.978-.061-.126-.136-.216-.187-.328-.1-.185-.192-.335-.104-.478.094-.154.312-.165.512-.047.21.124.297.33.34.473l.33-.14a1.29 1.29 0 00-.59-.703c-.584-.345-1.06-.254-1.257.07-.2.326-.143.596.006.874 0 0 .095.16.15.266.13.217.283.489.177.662-.13.213-.357.26-.576.127-.28-.175-.346-.377-.405-.575l-.361.154c.08.269.266.552.676.794zM13.34 3.09c-.893.187-1.478.83-1.285 1.704.11.471.54 1.343 1.895 1.06.375-.07.58-.22.778-.404l-.25-.28a.911.911 0 01-.543.315c-.654.137-1.045-.387-1.143-.837-.144-.666.251-1.128.701-1.222.316-.066.511.016.634.065h.004l.083-.342c-.216-.086-.473-.143-.874-.06zm14.459 4.458c-.038-.159-.09-.838.172-1.196.242-.33.463-.218.581-.167a.447.447 0 01.245.326.566.566 0 01-.103.385c-.166.212-.543.352-.543.352s.484.932 1.509 1.857l-.004.63c-1.404-1.331-1.857-2.187-1.857-2.187z" fill="#FFF22D"/>
    <path fill-rule="evenodd" clip-rule="evenodd" d="M28.502 7.357c.139.235.491.81 1.373 1.623.147.135.512.248.718.02a.489.489 0 00.122-.357.715.715 0 00-.215-.446c-.176-.149-.934-.902-1.478-1.494-.012.108-.108.289-.108.289-.073.1-.164.246-.412.365zM2.354 9.697l-.004-.593c1.026-.926 1.51-1.855 1.51-1.855s-.378-.14-.543-.352a.565.565 0 01-.103-.385.449.449 0 01.244-.326c.119-.051.34-.163.582.167.262.358.193 1.033.156 1.192 0 0-.478.818-1.842 2.152z" fill="#FFF22D"/>
    <path fill-rule="evenodd" clip-rule="evenodd" d="M3.49 7.357c-.138.235-.49.81-1.373 1.623-.146.135-.511.248-.717.02a.488.488 0 01-.122-.357.713.713 0 01.214-.446c.176-.149.935-.902 1.478-1.494.012.108.108.289.108.289.073.1.165.246.412.365z" fill="#FFF22D"/>
    <path fill-rule="evenodd" clip-rule="evenodd" d="M.64 17.398c0-1.234 1.018-2.234 2.272-2.234 1.255 0 2.272 1 2.272 2.234s-1.017 2.233-2.272 2.233c-1.254 0-2.271-1-2.271-2.233z" fill="#C23227"/>
    <path fill-rule="evenodd" clip-rule="evenodd" d="M4.135 15.78l.137.11c.197.174.374.377.477.619.13.305-.27.763-.388.87-.53.487-.859.479-1.048.506-.19.026-.309-.089-.305-.228.012-.41.308-1.11.391-1.238.055-.085.149-.139.149-.139.195-.054.385-.136.483-.246a.44.44 0 00.104-.253zm-1.901-.294a2.13 2.13 0 01.668-.11c.355 0 .693.066.98.245.074.045.096.102.096.183 0 .263-.422.353-.703.353-.28 0-.624-.11-.868-.185-.243-.075-.298-.215-.298-.276 0-.062.047-.185.124-.21zm-.9 3.218c-.285-.278-.49-.777-.49-1.305a2 2 0 01.088-.587s.048-.085.095-.012c.034.051.079.104.12.174.04.07.263.236.242.367-.078.494-.008 1.153.016 1.261.024.108-.01.16-.07.102zm.055-1.694c-.1-.055-.222-.308-.261-.384a.388.388 0 01.012-.272c.167-.29.405-.555.714-.696.036-.016.09-.018.09.068 0 .048.025.124.026.17 0 .046.022.145-.041.223-.063.076-.34.553-.407.822-.015.062-.031.125-.133.07zm1.557 2.411h-.044a2.36 2.36 0 01-1.039-.275c-.253-.14-.349-.778-.349-1.105 0-1.053.442-1.687.512-1.81s.227-.138.345-.108c.117.031.162.055.297.095.073.021.219.051.328.075.11.023.227.046.157.246s-.306.684-.332 1.256c-.024.516.047 1.032.166 1.348.077.204.076.282-.041.278zm.54-.082c-.118.038-.172-.045-.227-.106-.211-.238-.266-.875-.266-.96 0-.085.031-.177.091-.179.514-.012.879-.16 1.213-.43.335-.27.48-.576.51-.636.031-.06.097-.05.113.037.013.07.04.198.04.334 0 .918-.63 1.671-1.475 1.94z" fill="#FFF22D"/>
    <path fill-rule="evenodd" clip-rule="evenodd" d="M31.39 17.398c0-1.234-1.018-2.234-2.273-2.234-1.255 0-2.271 1-2.271 2.234s1.017 2.233 2.271 2.233c1.255 0 2.272-1 2.272-2.233z" fill="#C23227"/>
    <path fill-rule="evenodd" clip-rule="evenodd" d="M27.998 16.034c.098.11.288.192.484.246 0 0 .094.054.148.138.084.13.379.828.392 1.238.004.14-.116.255-.305.228-.19-.026-.519-.018-1.049-.504-.117-.108-.518-.566-.387-.871.102-.243.28-.445.477-.619 0 0 .098-.08.137-.11 0 0 .005.145.103.254zm1.923-.338c0 .061-.055.201-.298.276-.244.075-.588.185-.869.185-.28 0-.702-.09-.702-.353 0-.08.022-.138.095-.183.288-.18.626-.244.98-.244.235 0 .46.04.67.109.077.025.124.148.124.21zm.704 2.906c.023-.108.093-.767.015-1.26-.02-.132.202-.297.243-.368.04-.07.086-.123.119-.174.047-.073.095.012.095.012.059.19.088.388.088.587 0 .527-.204 1.027-.49 1.305-.06.058-.094.006-.07-.102zm-.118-1.66c-.067-.27-.344-.747-.407-.823-.062-.077-.041-.177-.04-.222.001-.047.025-.123.025-.17 0-.087.055-.085.09-.069.309.14.547.405.715.696.038.067.04.218.011.272-.039.076-.16.33-.26.384-.102.055-.118-.008-.134-.069zm-1.464 2.2c.119-.315.19-.83.166-1.347-.026-.572-.262-1.056-.332-1.256-.07-.2.047-.223.156-.246.11-.023.256-.053.33-.075.133-.04.178-.064.296-.094.117-.03.274-.015.344.107.07.124.512.757.512 1.81 0 .327-.095.965-.349 1.105-.245.135-.66.276-1.038.276h-.044c-.117.003-.119-.075-.041-.28zM27.07 17.4c0-.136.027-.264.04-.334.016-.086.082-.097.112-.037.031.06.176.365.51.636.335.27.7.418 1.214.43.06.002.09.094.09.179 0 .085-.054.723-.265.96-.055.061-.109.144-.227.106-.845-.269-1.474-1.022-1.474-1.94z" fill="#FFF22D"/>
    <path d="M26.855 17.386a2.207 2.207 0 01.67-1.587 2.297 2.297 0 011.614-.658c.63 0 1.201.252 1.614.658a2.218 2.218 0 010 3.175 2.296 2.296 0 01-1.614.657 2.311 2.311 0 01-1.615-.657 2.204 2.204 0 01-.669-1.587zm.023 0c0 .614.253 1.17.662 1.572.41.402.974.65 1.599.65.624 0 1.19-.248 1.599-.65a2.198 2.198 0 000-3.143 2.286 2.286 0 00-1.598-.65 2.286 2.286 0 00-1.6.65 2.21 2.21 0 00-.662 1.571z" fill="#FDE62F"/>
  </g>
  <defs>
    <clipPath id="nOE0T9Pt_Sa">
      <path fill="#fff" d="M0 0h32v32H0z"/>
    </clipPath>
  </defs>
</svg>
