<svg xmlns="http://www.w3.org/2000/svg" fill="none" viewBox="0 0 48 48">
  <g clip-path="url(#dCOTcSlhiWa)">
    <path fill-rule="evenodd" clip-rule="evenodd" d="M26.38 45.966c-.191.56-.811 1.936-2.309 1.936-1.7 0-2.294-1.811-2.323-1.886l-.048-.173s1.465.12 2.272.12c.807 0 2.186-.078 2.412-.12l-.005.123z" fill="#000"/>
    <path fill-rule="evenodd" clip-rule="evenodd" d="M30.843 45.073l.352.045c-.417 1.069-1.166 2.267-2.636 2.267-1.424 0-2.13-.811-2.43-1.357l-.247-.148s2.462-.08 4.961-.807zm-13.494 0l-.35.045c.416 1.069 1.165 2.267 2.636 2.267a2.891 2.891 0 002.507-1.357l.168-.148s-2.461-.08-4.96-.807z" fill="#000"/>
    <path fill-rule="evenodd" clip-rule="evenodd" d="M25.264 46.077c-.23.328-.384.313-.662.313-.139 0-.348.113-.341.318.004.161.138.296.365.296.502 0 .885-.69.992-.982 0 0 .298-.013.385-.021 0 0-.533 1.559-1.914 1.559-1.383 0-1.947-1.542-1.947-1.542s1.165.07 1.832.07 1.09-.002 1.29-.011zm5.395-.686c-.902.24-1.543.432-3.058.614 0 0 .047.153.376.136.127-.006.143-.037.19-.045.094-.017.237.08.22.242-.012.112-.11.255-.446.255s-.728-.27-.925-.52c0 0-.201.045-.41.057 0 0 .645.888 1.917.888 1.4 0 1.916-1.23 2.136-1.627z" fill="#FFF22D"/>
    <path fill-rule="evenodd" clip-rule="evenodd" d="M29.72 46.259a1.01 1.01 0 00-.182-.58c-.49.114-1.05.218-1.87.318a1.8 1.8 0 00-.017.072c.05.04.145.082.326.073.127-.007.143-.037.19-.046.094-.016.237.08.22.242-.012.113-.11.256-.446.256a.815.815 0 01-.267-.05c.044.15.122.286.225.4.204.05.413.075.624.075.448 0 .806-.127 1.092-.312a1 1 0 00.106-.448z" fill="#FADE2F"/>
    <path fill-rule="evenodd" clip-rule="evenodd" d="M29.706 46.259a.996.996 0 00-.183-.576c-.483.11-1.036.213-1.84.312a.834.834 0 00-.018.084c.052.036.146.071.313.062.127-.006.143-.037.19-.045.093-.017.237.08.22.242-.012.112-.111.255-.447.255a.818.818 0 01-.25-.043c.047.151.127.287.234.4.18.042.38.068.598.068.437 0 .787-.119 1.07-.296.074-.143.113-.302.113-.463z" fill="#FBE02F"/>
    <path fill-rule="evenodd" clip-rule="evenodd" d="M29.692 46.259a.981.981 0 00-.184-.573c-.476.11-1.023.21-1.81.307a.866.866 0 00-.02.094.521.521 0 00.3.054c.126-.006.143-.037.19-.045.093-.017.237.08.22.242-.013.113-.111.256-.447.256a.802.802 0 01-.233-.038.992.992 0 00.242.399c.174.04.365.063.573.063.424 0 .767-.113 1.045-.28a.977.977 0 00.124-.48z" fill="#FCE22F"/>
    <path fill-rule="evenodd" clip-rule="evenodd" d="M17.534 45.391c.903.24 1.544.432 3.059.614 0 0-.047.153-.377.136-.127-.006-.143-.037-.19-.045-.093-.017-.237.08-.22.242.012.112.11.255.446.255s.728-.27.925-.52c0 0 .202.045.41.057 0 0-.645.888-1.916.888-1.4 0-1.917-1.23-2.137-1.627zm6.422-7.314c4.823 0 10.166-2.91 13.913-7.105.405-.454 1.093-1.314 2.724-1.314 1.63 0 3.798 1.461 3.543 4.121-.186 1.94-3.006 6.31-7.828 9.005-4.823 2.695-9.264 3.275-12.352 3.275-3.088 0-7.529-.58-12.352-3.275-4.823-2.694-7.642-7.065-7.829-9.005-.255-2.66 1.913-4.12 3.544-4.12 1.63 0 2.32.86 2.724 1.313 3.747 4.195 9.09 7.105 13.913 7.105z" fill="#FFF22D"/>
    <path d="M23.956 37.907c2.336 0 4.8-.693 7.142-1.89 2.44-1.246 4.746-3.036 6.64-5.157.21-.233.49-.572.939-.857.451-.288 1.061-.515 1.916-.515.088 0 .183.005.282.014.786.073 1.65.447 2.317 1.097.667.651 1.138 1.578 1.138 2.756 0 .139-.006.286-.022.44-.106 1.114-1.048 2.996-2.71 4.91a19.682 19.682 0 01-5.205 4.227 25.965 25.965 0 01-6.872 2.666c-3.66.84-7.47.84-11.13 0a25.967 25.967 0 01-6.872-2.666 19.693 19.693 0 01-5.204-4.228c-1.663-1.913-2.605-3.795-2.712-4.908a4.625 4.625 0 01-.022-.44c0-1.179.472-2.106 1.139-2.757.666-.65 1.53-1.024 2.316-1.097.1-.01.194-.014.283-.014.854 0 1.465.227 1.916.515.449.285.73.624.938.857 1.895 2.121 4.201 3.911 6.64 5.157 2.343 1.197 4.806 1.89 7.143 1.89zm0 .34c-2.394 0-4.912-.706-7.302-1.927-2.476-1.264-4.818-3.082-6.741-5.236-.197-.22-.463-.539-.867-.796-.402-.256-.95-.459-1.727-.459a2.6 2.6 0 00-.25.012c-.713.066-1.497.406-2.105 1-.607.592-1.036 1.437-1.036 2.514 0 .137.006.273.02.409.1 1.054 1.013 2.86 2.63 4.72a19.341 19.341 0 005.111 4.153 25.607 25.607 0 006.78 2.63 24.514 24.514 0 0010.973 0 25.597 25.597 0 006.78-2.63 19.335 19.335 0 005.112-4.154c1.617-1.86 2.53-3.665 2.63-4.72.013-.134.02-.27.02-.408 0-1.077-.43-1.922-1.036-2.515-.608-.593-1.393-.933-2.105-1a2.822 2.822 0 00-.25-.01c-.777 0-1.326.202-1.728.458-.404.257-.67.576-.866.796-1.924 2.154-4.265 3.972-6.741 5.236-2.39 1.22-4.908 1.928-7.302 1.928z" fill="#000"/>
    <path fill-rule="evenodd" clip-rule="evenodd" d="M9.501 31.388l-.056-.062c-.384-.434-.91-1.027-2.166-1.027-.732 0-1.562.385-2.113.98-.412.445-.88 1.227-.765 2.423.157 1.633 2.795 5.87 7.494 8.495 3.787 2.115 7.831 3.188 12.021 3.188s8.235-1.073 12.022-3.188c4.698-2.626 7.337-6.862 7.493-8.495.115-1.196-.352-1.978-.765-2.423-.55-.595-1.38-.98-2.113-.98-1.255 0-1.781.593-2.166 1.027l-.056.062c-4.038 4.521-9.561 7.33-14.415 7.33-4.853 0-10.377-2.809-14.415-7.33z" fill="#C23227"/>
    <path fill-rule="evenodd" clip-rule="evenodd" d="M39.449 26.056c0-2.274 1.875-4.119 4.189-4.119s4.19 1.845 4.19 4.12c0 2.274-1.876 4.117-4.19 4.117-2.314 0-4.19-1.843-4.19-4.118z" fill="#FFF22D"/>
    <path d="M39.275 26.056c0-1.184.488-2.257 1.278-3.033a4.385 4.385 0 013.085-1.256 4.39 4.39 0 013.086 1.256 4.24 4.24 0 010 6.066 4.388 4.388 0 01-3.086 1.256 4.387 4.387 0 01-3.085-1.256 4.267 4.267 0 01-.947-1.391 4.21 4.21 0 01-.331-1.642zm.347 0c0 1.09.45 2.077 1.176 2.792a4.038 4.038 0 002.84 1.156 4.042 4.042 0 002.84-1.156c.373-.366.67-.802.871-1.28a3.88 3.88 0 00.305-1.512c0-.518-.103-1.032-.305-1.511a3.932 3.932 0 00-.871-1.28 4.04 4.04 0 00-2.84-1.157 4.038 4.038 0 00-2.84 1.157 3.93 3.93 0 00-.872 1.28 3.87 3.87 0 00-.304 1.511z" fill="#000"/>
    <path fill-rule="evenodd" clip-rule="evenodd" d="M.172 26.063c0-2.274 1.876-4.119 4.19-4.119 2.314 0 4.19 1.845 4.19 4.119 0 2.275-1.876 4.119-4.19 4.119-2.314 0-4.19-1.844-4.19-4.12z" fill="#FFF22D"/>
    <path d="M-.001 26.063a4.24 4.24 0 011.278-3.033 4.357 4.357 0 011.415-.93 4.417 4.417 0 011.67-.326c1.205 0 2.296.48 3.085 1.256.406.398.727.87.947 1.391a4.241 4.241 0 01-.947 4.675 4.356 4.356 0 01-1.415.93 4.417 4.417 0 01-1.67.326 4.389 4.389 0 01-3.085-1.256 4.24 4.24 0 01-1.278-3.033zm.347 0a3.87 3.87 0 00.304 1.511 4.01 4.01 0 002.174 2.137c.488.199 1.01.3 1.538.3a4.039 4.039 0 002.84-1.156c.373-.367.67-.802.871-1.28a3.902 3.902 0 00-.872-4.303 4.038 4.038 0 00-2.84-1.157c-.527 0-1.05.101-1.537.3A4.009 4.009 0 00.65 24.551a3.878 3.878 0 00-.304 1.51z" fill="#000"/>
    <path fill-rule="evenodd" clip-rule="evenodd" d="M44.785 14.978l.023-1.102c.342.254.994.264 1.376-.137a1.02 1.02 0 00.258-.755 1.39 1.39 0 00-.416-.906 70.608 70.608 0 01-2.659-2.703 1.149 1.149 0 00-.447-.397c-.176-.077-.786-.352-1.252.344-.422.63-.36 1.523-.283 1.847l1.324 1.769c.451.562 1.724 1.762 2.076 2.04zM16.575 3.51c1.664-.548 3.182-1 5.229-1.18l-5.229 1.18z" fill="#000"/>
    <path fill-rule="evenodd" clip-rule="evenodd" d="M16.575 3.514c1.664-.549 3.182-1 5.229-1.18l.312-.173c-1.145-.884-2.28-1.486-3.41-1.486-.71 0-2.153.473-2.477 2.975l.346-.136zm14.766 0c-1.664-.549-3.181-1-5.228-1.18l-.312-.173c1.144-.884 2.28-1.486 3.41-1.486.71 0 2.153.473 2.476 2.975l-.346-.136zm-8.748-1.431a41.653 41.653 0 011.431-.034c.312 0 1.175.04 1.363.054l-2.794-.02z" fill="#000"/>
    <path fill-rule="evenodd" clip-rule="evenodd" d="M22.077 2.25C22.914.671 23.681.097 24.105.097c.53 0 1.151.83 1.638 1.898l.103.24-.424-.034c-.288-.05-1.086-.06-1.398-.06-.312 0-.989 0-1.396.034l-.55.073z" fill="#000"/>
    <path fill-rule="evenodd" clip-rule="evenodd" d="M20.44 39.583l-.749 2.748-1.396-3.312-.87-.23-1.058 3.885.942.249.755-2.77 1.419 3.342.847.223 1.059-3.885-.949-.25zm3.255.491l-1.074-.055-.214 4.016 1.074.055.214-4.016zm.965-.034l.075.53 1.146-.16.494 3.454 1.065-.147-.494-3.453 1.128-.157L28 39.58l-3.34.46zm11.082-1.637c.52.896.416 1.548-.387 2.004l-.38.215-1.505-2.56.411-.234c.96-.545 1.502-.06 1.861.575zM33.65 37.34l-1.386.786 2.052 3.495 1.376-.78c1.432-.814 1.564-2.04 1.003-3.02-.678-1.166-1.79-1.193-3.045-.481zm-2.597 4.948l-.409-1.235 1.213-.387-.17-.514-1.212.387-.349-1.055 1.245-.397-.167-.508-2.274.726 1.264 3.824 2.508-.8-.17-.514-1.48.473zm-15.564-4.431l-1.212 2.148c-.365.648-.742 1.058-1.358.708-.612-.333-.47-.83-.096-1.494l1.214-2.154-.979-.533-1.282 2.274c-.707 1.255.185 2.028.876 2.404.745.406 1.825.708 2.527-.536l1.288-2.284-.978-.533zm-.693-23.623v18.83l9.16 5.789 9.159-5.788.012-18.801c-.29-.256-.9-.815-1.38-1.104H16.122c-.4.275-1.192.93-1.327 1.074z" fill="#FFF22D"/>
    <path d="M14.97 14.235v18.738l8.986 5.679 8.986-5.68.011-18.707h.347l-.011 18.8v.093l-.08.05-9.16 5.79-.093.058-.094-.059-9.16-5.788-.08-.051V14.235h.347z" fill="#000"/>
    <path d="M33.011 14.393c-.083-.073-.02-.02-.108-.097h-.001c-.312-.278-.836-.743-1.247-.99l.181-.29c.443.267.98.743 1.3 1.027h-.002l.11.095-.233.255z" fill="#000"/>
    <path d="M31.746 13.332H16.123v-.341h15.623v.34z" fill="#000"/>
    <path d="M16.222 13.301c-.187.13-.45.333-.692.529a9.635 9.635 0 00-.607.52l-.255-.23c.077-.082.346-.314.642-.553.257-.208.531-.42.713-.546l.2.28z" fill="#000"/>
    <path fill-rule="evenodd" clip-rule="evenodd" d="M24.603 22.29c-.064-.028-.292.153-.396.315-.104.162-.135.37.013.447.147.077.333-.022.378-.276.025-.15.075-.457.005-.486zm-1.754.485c.039.256.23.354.378.277.147-.077.117-.285.013-.447-.104-.163-.319-.343-.383-.316-.07.03-.03.341-.008.486zm.92 2.505a3.984 3.984 0 00.436-1.012h-.88s.14.528.444 1.012zm.152-3.73l.71-1.216.556 1.216h.92c-.556.512-.781 1.285-.781 1.797v.563c0 .239-.121.63-.121.63s.796.599.92.7c.051.042.106.067.068.17-.063.177-.601.413-.659.46-.12.103-.154.17-.118.274.035.102.135.12.344.05.208-.067.642-.289 1.006-.442.364-.154.85-.12.85-.12v-.682h-1.37v-2.183l-.243-.381.607-1.058.607 1.064-.243.375v1.143h.703v-1.143l-.243-.375.607-1.058.607 1.058-.242.375v1.143h.702v-1.143l-.242-.375.607-1.058.607 1.058-.244.375.008 2.181h-1.378v1.003c.312.29.608.943.608 1.335s-.26.563-.26.563c.086.307.069.435.034.716-.036.288-.4.733-.4.733v5.2c0 .354-.832.32-.832.017v-5.097c-.468-.511-1.752-.904-1.752-.904-.469.46-.763 1.262-.763 1.262.208.137.52 0 .642-.137.12-.136.364-.17.503-.085s.174.12.121.324c-.052.205-.139.544-.139.783s.278.187.486.204c.417.035.486.495.452.75-.035.256-.157.803-.157 1.143 0 .34.017.682.052.87.035.188.105.392.087.631-.024.324-.226.376-.434.17a742.06 742.06 0 01-3.105-3.24c-.191.614.607 1.672.867 1.996.26.324.243.563.018.784-.226.222-.66.341-.746.546-.087.205.208.818.815 1.585.607.768-.694 1.28-1.475 1.433-.78.154-.78-.375-.728-.665.052-.29.052-.46.035-.716-.018-.255-.26-.614-.59-1.04-.33-.427-.33-.819-.191-1.808.139-.989.104-1.62.104-1.62s-.347.017-.85 0-.92-.305-.954-1.5c-.035-1.193-.064-4.04-.145-4.337-.08-.295-.404-.352-.543-.386-.14-.034-.15-.239-.01-.307.36-.178.796-.614.634-.887-.162-.273-.798-.216-1.226-.011-.427.204-.878.647-.994.773-.116.125-.208.125-.197-.012.012-.136-.08-.784-.138-1.012-.058-.227-.267-.659-.336-.772-.07-.114 0-.16.116-.114.115.046.37.148.613.216a.498.498 0 00.59-.273c.115-.227.335-.716.45-.932.116-.216.301-.17.451-.136.151.034.29.125.428.181.14.057.255.046.301-.022.046-.068.104-.091.185-.262.081-.17.185-.09.197-.023.414 2.446 1.492 2.559 1.492 2.559-.162.409-.544 1.057-.636 1.216-.093.159-.127.375-.15.546-.023.17.057 1.784.173 2.376.116.591.486.364.601.182.116-.182.475-.932.475-.932s.092-.205.092-.376c0-.17-.3-.545-.37-.66-.07-.113-.324-.34-.324-.909 0-.568.52-.966.706-1.114a.475.475 0 00.162-.477c-.082-.44-.556-1.365-.787-1.717-.231-.352-.682-1.023-.682-1.023h.937l.601-1.228.66 1.233.68.006zm3.695 6.197v-.7s-.191-.29-.66-.29c-.468 0-.745.137-.745.256 0 .188.416.734 1.405.734zm-12.103-8.815h16.9v1.133h-16.9v-1.133zm0-.582v-4.513h16.9v4.513h-16.9z" fill="#C23227"/>
    <path fill-rule="evenodd" clip-rule="evenodd" d="M29.086 18.484v-.77h-1.228v-.497h1.002v-2.183h-.92l-.312-.597-.312.597h-.92v2.183h1.002v.497h-2.404v-.497h1.001v-2.183h-.92l-.312-.597-.312.597h-.92v2.183h1.002v.497h-2.451v-.497h1.001v-2.183h-.92l-.311-.597-.313.597h-.92v2.183h1.002v.497l-1.938.005-1.931-.444.39 1.21h10.944z" fill="#FFF22D"/>
    <path fill-rule="evenodd" clip-rule="evenodd" d="M18.419 17.177l1.295.313.694-1.917v-.483l-1.99 2.087zm3.125-14.969c-2.006.175-3.241.595-4.872 1.132.122-.69.285-1.098.568-1.504-.023.356.274.736.863.736.59 0 .917-.334.917-.535 0-.2-.123-.49-.44-.49-.318 0-.386.223-.364.312.023.09-.045.111-.135.134-.091.022-.34-.112-.25-.424.1-.343.521-.529 1.02-.529 0 0 1.186-.047 2.693 1.168zm9.714 1.146c-1.63-.538-2.92-.957-4.927-1.133.924-.632 1.787-1.17 2.734-1.17.499 0 .92.187 1.02.53.09.312-.159.445-.25.423-.09-.023-.158-.045-.135-.134.022-.089-.046-.312-.363-.312s-.441.29-.441.49.328.535.917.535c.59 0 .886-.38.863-.736.283.406.461.817.582 1.507zM22.78 1.842c-.054.084-.101.147-.159.241.467-.02.935-.03 1.403-.033.306 0 1.15.04 1.336.053-.3-.68-.863-1.62-1.257-1.62-.078 0-.25-.04-.574.327 0 0-.05.161.156.13.26-.039.359.226.34.357-.046.306-.409.602-.772.602-.362 0-.473-.057-.473-.057z" fill="#FFF22D"/>
    <path fill-rule="evenodd" clip-rule="evenodd" d="M5.306 12.938l1.324-1.769c.076-.324.139-1.216-.284-1.847-.465-.696-1.076-.421-1.252-.344-.113.05-.32.197-.447.397 0 0-1.27 1.38-2.676 2.738-.195.189-.415.546-.433.87-.017.293.1.584.275.768.382.4 1.051.379 1.393.125l.023 1.102c.354-.278 1.626-1.478 2.077-2.04z" fill="#000"/>
    <path fill-rule="evenodd" clip-rule="evenodd" d="M23.956 10.361c7.54 0 11.835 6.961 12.768 8.184 1.666 2.183 3.7 3.953 6.06 3.365 3.47-.864 3.285-5.917 3.285-5.917-.833-.592-2.261-1.337-4.858-4.957-2.544-3.548-8.304-8.81-17.255-8.81-8.952 0-14.712 5.262-17.256 8.81-2.597 3.62-4.025 4.365-4.857 4.957 0 0-.185 5.053 3.285 5.917 2.36.588 4.394-1.182 6.06-3.365.933-1.223 5.227-8.184 12.768-8.184z" fill="#FFF22D"/>
    <path d="M23.956 10.19c7.012 0 11.237 5.92 12.612 7.847.124.174.226.316.294.406.821 1.076 1.732 2.05 2.725 2.68.973.618 2.027.903 3.155.622 3.08-.767 3.16-5.015 3.154-5.664l-.216-.148c-.872-.592-2.275-1.543-4.61-4.8-1.46-2.036-3.99-4.642-7.584-6.477-2.613-1.334-5.79-2.26-9.53-2.26-3.74 0-6.918.926-9.532 2.26-3.593 1.835-6.122 4.44-7.582 6.477-2.337 3.257-3.74 4.209-4.612 4.8-.077.053-.15.102-.215.148-.006.648.073 4.896 3.154 5.664 1.128.28 2.182-.005 3.155-.622.993-.63 1.903-1.604 2.725-2.68.069-.09.17-.232.294-.406 1.376-1.926 5.601-7.846 12.613-7.846zm0 .342c-6.832 0-10.98 5.81-12.33 7.7-.098.14-.198.278-.3.415-.844 1.106-1.783 2.109-2.814 2.763-1.05.666-2.194.973-3.427.665-3.606-.898-3.416-6.072-3.416-6.087l.003-.084.07-.05c.095-.067.19-.131.292-.2.853-.58 2.224-1.508 4.525-4.717 1.484-2.07 4.055-4.719 7.707-6.583 2.659-1.357 5.89-2.299 9.69-2.299s7.031.942 9.69 2.299c3.651 1.864 6.222 4.513 7.707 6.583 2.3 3.208 3.672 4.138 4.524 4.716.103.07.198.134.293.201l.07.05.002.084c0 .015.19 5.19-3.416 6.087-1.232.307-2.375 0-3.425-.665-1.032-.654-1.971-1.657-2.815-2.763a15.934 15.934 0 01-.301-.414c-1.35-1.89-5.497-7.701-12.33-7.701z" fill="#000"/>
    <path fill-rule="evenodd" clip-rule="evenodd" d="M23.956 9.704c7.27 0 11.595 6.062 13.018 8.054.093.132.187.263.284.393 1.923 2.52 3.678 3.542 5.362 3.123 2.436-.607 2.735-3.902 2.77-4.898v-.038l-.03-.02c-.857-.582-2.292-1.554-4.694-4.904-1.436-2.001-6.884-8.531-16.71-8.531s-15.274 6.53-16.71 8.53c-2.386 3.327-3.883 4.343-4.688 4.89l-.03.02v.038c.035 1 .338 4.308 2.763 4.913 1.685.42 3.439-.602 5.362-3.123.07-.092.17-.231.285-.393 1.421-1.992 5.748-8.054 13.018-8.054z" fill="#C23227"/>
    <path fill-rule="evenodd" clip-rule="evenodd" d="M8.315 12.497l-.759.889 1.423 2.891-3.053-.98-.654.765 3.134 2.585.474-.555-2.213-1.832 2.968.948.312-.365-1.414-2.787 2.225 1.836.691-.81-3.134-2.585zm3.962-.606l-.71.748-.726-1.381 1.436.633zm-1.653-1.825l-.698.735 1.96 3.831.478-.504-.532-1.014.949-1 1.07.447.79-.832-4.017-1.663zm4.785-3.64l1.534 2.411-3.417-1.255-.764.47 2.169 3.41.827-.508-1.545-2.432 3.454 1.26.743-.457-2.168-3.41-.833.51zM28.357 8.4l.43-1.227 1.205.408.179-.511-1.205-.408.367-1.048 1.238.419.177-.506-2.26-.764-1.332 3.802 2.492.844.179-.511-1.47-.498zm6.998-.254l-.369.393.86.761-2.373 2.593.799.707 2.373-2.592.848.75.363-.397-2.501-2.215zm1.174 6.039l1.012-.834.819.96.42-.348-.818-.96.863-.712.842.986.416-.344-1.536-1.8-3.134 2.585 1.695 1.985.42-.347-.999-1.171zm4.74 1.024c.286.312.287.682-.04.97-.325.289-.735.227-1.048-.115l-.184-.2 1.034-.915.239.26zm-.544 1.982c.008.008.633.313 1.324-.299.577-.51.383-1.212-.22-1.87l-1.114-1.216-3.04 2.69.72.786 1.206-1.069.357.389-.77 1.693.914.723.623-1.827zM25.338 4.426l-.03 1.642-1.606-.027.029-1.643-1.075-.018-.071 4.02 1.075.02.032-1.84 1.607.028-.033 1.838 1.076.019.071-4.021-1.075-.018zm5.824 5.976c.762.45 1.596.379 1.984-.256.285-.444.288-.81-.052-1.466-.091-.19-.203-.324-.28-.493-.15-.278-.288-.503-.157-.718.141-.23.47-.246.77-.07.315.187.444.495.508.71l.495-.211a1.936 1.936 0 00-.885-1.054c-.875-.517-1.588-.38-1.884.105-.3.49-.215.894.008 1.311 0 0 .143.241.226.4.196.325.424.733.266.992-.196.32-.536.391-.864.19-.421-.262-.52-.565-.608-.861l-.543.23c.12.404.4.828 1.016 1.191zM20.009 4.636c-1.34.28-2.217 1.247-1.928 2.557.165.707.81 2.014 2.843 1.589.562-.106.87-.33 1.166-.606l-.374-.42a1.367 1.367 0 01-.815.473c-.982.205-1.568-.58-1.714-1.255-.216-.999.376-1.692 1.052-1.833.473-.1.766.024.95.097h.006l.125-.513c-.324-.129-.71-.214-1.31-.089zm21.688 6.688c-.057-.238-.136-1.257.257-1.794.364-.496.695-.328.873-.25.08.034.32.187.367.489a.85.85 0 01-.154.576c-.249.318-.815.53-.815.53s.725 1.397 2.263 2.785l-.005.943c-2.106-1.996-2.786-3.279-2.786-3.279z" fill="#FFF22D"/>
    <path fill-rule="evenodd" clip-rule="evenodd" d="M42.753 11.036c.208.353.737 1.216 2.06 2.435.22.202.767.37 1.076.03a.733.733 0 00.183-.537 1.072 1.072 0 00-.322-.67c-.264-.222-1.402-1.351-2.217-2.239-.018.162-.162.432-.162.432-.11.152-.246.37-.618.549zM3.53 14.546l-.006-.89c1.539-1.389 2.265-2.782 2.265-2.782s-.566-.21-.815-.529a.847.847 0 01-.154-.576.673.673 0 01.367-.49c.177-.077.509-.245.871.25.394.538.291 1.55.235 1.788 0 0-.717 1.228-2.763 3.23z" fill="#FFF22D"/>
    <path fill-rule="evenodd" clip-rule="evenodd" d="M5.236 11.036c-.208.353-.737 1.216-2.06 2.435-.22.202-.767.37-1.076.03a.732.732 0 01-.183-.537c.014-.25.17-.542.322-.67.264-.222 1.401-1.351 2.216-2.239.018.162.162.432.162.432.11.152.247.37.619.549z" fill="#FFF22D"/>
    <path fill-rule="evenodd" clip-rule="evenodd" d="M.96 26.097c0-1.85 1.527-3.35 3.409-3.35s3.408 1.5 3.408 3.35-1.526 3.35-3.408 3.35-3.408-1.5-3.408-3.35z" fill="#C23227"/>
    <path fill-rule="evenodd" clip-rule="evenodd" d="M6.202 23.67l.206.166c.296.26.562.564.716.927.195.458-.406 1.145-.582 1.307-.795.729-1.289.717-1.573.757-.284.04-.463-.133-.457-.342.018-.615.462-1.664.587-1.857.082-.127.223-.208.223-.208.293-.08.577-.204.725-.369a.659.659 0 00.155-.38zm-2.852-.442a3.236 3.236 0 011.003-.163c.532 0 1.04.098 1.471.366.11.068.142.154.142.276 0 .394-.632.528-1.053.528-.42 0-.937-.165-1.302-.276-.366-.113-.447-.323-.447-.415 0-.093.07-.277.186-.316zm-1.348 4.828c-.429-.417-.735-1.166-.735-1.957 0-.306.046-.602.131-.881 0 0 .073-.127.143-.018.05.077.118.156.179.261.062.106.395.355.364.551-.118.74-.012 1.73.023 1.892.036.16-.016.238-.105.152zm.082-2.54c-.152-.083-.333-.463-.392-.577a.581.581 0 01.018-.408c.25-.436.608-.833 1.071-1.044.053-.024.136-.027.136.102 0 .072.036.186.037.256.002.068.034.217-.06.333-.094.115-.51.83-.61 1.234-.024.092-.048.186-.2.103zm2.335 3.616h-.066c-.568 0-1.19-.21-1.558-.414-.38-.209-.523-1.166-.523-1.656 0-1.58.662-2.53.768-2.715.105-.184.34-.208.516-.162.176.047.244.082.446.142.11.032.328.077.493.112.164.035.34.07.234.37-.105.299-.46 1.025-.498 1.883-.035.775.07 1.548.25 2.022.116.307.114.424-.062.418zm.81-.123c-.177.056-.259-.067-.34-.16-.318-.356-.4-1.313-.4-1.44s.047-.265.137-.267c.77-.02 1.318-.24 1.82-.646s.72-.864.765-.954c.046-.09.145-.074.169.056.02.105.06.297.06.5-.001 1.377-.944 2.507-2.212 2.911z" fill="#FFF22D"/>
    <path fill-rule="evenodd" clip-rule="evenodd" d="M47.084 26.097c0-1.85-1.526-3.35-3.408-3.35-1.883 0-3.408 1.5-3.408 3.35s1.526 3.35 3.408 3.35 3.408-1.5 3.408-3.35z" fill="#C23227"/>
    <path fill-rule="evenodd" clip-rule="evenodd" d="M41.997 24.051c.148.164.432.288.725.369 0 0 .142.08.223.207.125.194.569 1.242.587 1.858.006.208-.172.381-.457.342-.284-.04-.778-.029-1.572-.758-.176-.161-.778-.849-.582-1.306.154-.364.42-.667.716-.927 0 0 .147-.12.206-.166 0 0 .007.217.154.381zm2.884-.507c0 .092-.081.302-.447.415-.366.111-.881.276-1.302.276-.421 0-1.054-.134-1.054-.528 0-.122.033-.208.143-.276.431-.268.938-.366 1.47-.366.352 0 .688.06 1.004.163.115.039.186.223.186.316zm1.056 4.36c.035-.163.14-1.151.024-1.892-.031-.197.302-.445.364-.55.06-.107.128-.186.178-.263.07-.108.143.019.143.019.088.285.132.582.132.88 0 .792-.306 1.54-.736 1.958-.089.086-.14.009-.105-.153zm-.176-2.492c-.101-.404-.516-1.12-.61-1.234-.094-.116-.063-.264-.062-.333.003-.07.038-.183.038-.255 0-.13.083-.127.135-.103.464.21.822.608 1.072 1.045.058.1.06.326.018.407-.059.114-.24.494-.392.577-.151.082-.176-.012-.2-.104zm-2.197 3.302c.179-.474.285-1.246.25-2.021-.04-.859-.393-1.585-.499-1.885-.105-.3.07-.334.235-.369.164-.035.383-.08.493-.112.201-.06.27-.095.446-.141.175-.046.41-.023.516.161.106.185.768 1.135.768 2.715 0 .49-.142 1.447-.523 1.657-.368.202-.99.414-1.558.414-.022 0-.044-.002-.066 0-.176.005-.178-.112-.062-.419zM40.606 26.1c0-.204.04-.396.06-.501.023-.13.122-.146.167-.056.046.09.264.548.766.954.502.405 1.05.626 1.82.646.089.002.136.14.136.268 0 .126-.081 1.083-.398 1.439-.083.093-.164.216-.34.16-1.269-.404-2.211-1.534-2.211-2.91z" fill="#FFF22D"/>
    <path d="M40.283 26.08c0-.443.087-.881.26-1.29.172-.408.425-.78.743-1.092a3.444 3.444 0 012.422-.986c.946 0 1.802.377 2.422.986a3.327 3.327 0 010 4.762 3.482 3.482 0 01-3.733.731 3.422 3.422 0 01-1.111-.73 3.355 3.355 0 01-.743-1.093 3.306 3.306 0 01-.26-1.289zm.035 0c0 .92.379 1.753.992 2.356a3.41 3.41 0 002.398.977 3.41 3.41 0 002.398-.976 3.296 3.296 0 000-4.715 3.384 3.384 0 00-1.1-.723 3.431 3.431 0 00-1.298-.253 3.43 3.43 0 00-1.297.253 3.385 3.385 0 00-1.836 1.805 3.27 3.27 0 00-.257 1.275z" fill="#FDE62F"/>
  </g>
  <defs>
    <clipPath id="dCOTcSlhiWa">
      <path fill="#fff" d="M0 0h48v48H0z"/>
    </clipPath>
  </defs>
</svg>
