<svg xmlns="http://www.w3.org/2000/svg" fill="none" viewBox="0 0 142 142">
  <g clip-path="url(#oGs0B3XczWa)">
    <path d="M80.038 75.66c4.032-5.456 9.554-12.926 14.7-19.627l.04-.048c9.263-11.033 15.162-16.443 22.545-20.673a46.814 46.814 0 017.384-3.32 49.83 49.83 0 00-11.174 4.563c-.761.436-1.512.888-2.253 1.355-6.877 4.081-12.779 8.616-21.631 19.927-.074.095-.17.22-.242.318-4.183 5.693-8.37 11.386-12.557 17.077l.774 3.69c.7-.942 1.513-2.042 2.414-3.262zM57.122 88.025c.805-.66 1.627-1.3 2.464-1.918l-2.78-13.18-1.682 5.5 1.998 9.598zm4.793 11.996c-.4.584-.5.876-.538 1.206a1.598 1.598 0 00-.01.111c-.068 1.18-.247 2.669-.633 3.712-.012.035-.03.075-.044.111l-1.035-4.97 5.374 25.814 2.32-3.095-4.971-23.567-.463.678zm41.22-25.24l-4.813 6.473-15.656 49.854 26.015.007 2.843-2.842-24.94.001 16.551-53.493zm-73.71 57.546c-6.781 3.178-13.856 3.571-16.94 3.791a58.85 58.85 0 01-3.727.138c4.634-3.625 8.304-7.164 10.747-12.182a34.314 34.314 0 001.963-4.597c.879-2.553 9.625-30.827 15.856-51.005-.65.73-1.254 1.5-1.811 2.302-1.453 2.107-3.053 4.362-4.003 6.783l-.12.391c-.02.05-.036.103-.054.153l-.473 1.537v.003l-.5 1.62c-.825 2.672-1.668 5.4-2.49 8.053l-.403 1.3-.02-.02c-4.568 14.724-8.324 26.762-8.849 28.355-3.091 9.391-9.855 13.863-18.387 20.296 3.052.055 6.337.124 9.483-.127 4.366-.347 16.735-1.102 24.942-9.596.32-.315.629-.64.93-.972.79-.884 1.53-1.812 2.213-2.78-.251.306-.509.61-.775.906-2.217 2.463-4.858 4.288-7.582 5.651z" fill="#EF3340"/>
    <path d="M57.886 137.391c-.076-.015-5.434-1.092-7.478-14.781-1.217-8.158-1.145-10.846-1.442-13.259-.12-.966-.343-3.01-1.64-5.4l.5-1.63-.003-.003 7.303-23.89 1.682-5.502 2.78 13.18a63.179 63.179 0 00-2.464 1.919c-1.767 1.444-3.125 2.688-3.79 3.222-1.105.888-1.887 1.409-2.641 1.687l-.751 2.457c1.482-.352 2.903-1.266 4.606-2.83 1.727-1.585 2.367-2 4.605-3.94a37.177 37.177 0 013.343-2.603l-5.18-24.555s-14.388 47.082-14.455 47.313c-.755 2.599-3.053 10.507-7.981 15.983-1.504 1.671-5.787 6.429-17.813 8.058 2.247-2.519 5.097-6.564 7.11-12.409.977-2.833 11.117-35.638 17.348-55.829-1.505 1.163-2.93 2.454-4.2 3.891-6.23 20.178-14.976 48.452-15.855 51.005a34.259 34.259 0 01-1.963 4.597c-2.443 5.018-6.114 8.557-10.747 12.182a57.956 57.956 0 003.728-.138c3.084-.219 10.158-.613 16.94-3.791 2.723-1.362 5.364-3.188 7.58-5.651.267-.296.524-.599.776-.906 4.828-5.877 7.067-13.576 7.828-16.194l.16-.549.658-2.149c.28.817.44 1.705.53 2.72 0 0 .53 4.972 1.309 11.95 1.884 16.899 9.477 17.213 12.56 17.903-.001.002-1.429-.585-2.943-2.058zm83.661-108.23c-4.388 0-10.396.572-16.837 2.832a46.784 46.784 0 00-7.385 3.32c-7.382 4.23-13.283 9.639-22.545 20.673l-.039.048c-5.147 6.7-10.669 14.171-14.7 19.627-.902 1.22-1.716 2.32-2.415 3.262l-.773-3.69L71.41 49.28c-.92.012-1.886.07-2.89.175l7.597 36.233 1.898-2.502c.882-1.162 2.402-3.219 4.327-5.823 4.02-5.44 9.524-12.886 14.65-19.56 9.009-10.728 14.704-15.965 21.743-19.998 8.122-4.547 16.29-5.674 21.97-5.772-5.921 5.487-10.296 12.923-13.321 22.612l-18.633 60.01c-.584 2.01-.987 3.557-1.188 5.063-.291 2.183-.285 4.037.027 5.692H90.47l20.345-65.757-41.972 56.453-4.2-19.911a84.92 84.92 0 00-2.262 3.15l4.972 23.567 30.972-41.657 4.813-6.473-16.552 53.493 24.942-.001c-.515-1.31-.584-1.532-.718-1.931-.621-1.673-.751-3.657-.406-6.246.177-1.327.552-2.76 1.092-4.616l18.625-59.984c3.316-10.622 8.297-18.35 15.226-23.627a98.79 98.79 0 012.887-2.182c-.002-.002-3.419-.488-6.687-.527z" fill="#00A3E0"/>
    <path d="M59.507 99.495c.093-.19.2-.373.32-.548l.005-.006c.676-.989 2.612-3.81 4.325-5.78l.593-.684.092-.105.046-.053c3.27-3.767 6.091-6.986 8.31-7.73-.031-.009-.065-.01-.097-.018-.445-.056-2.032-.027-5.007 2.299-1.443 1.236-3.236 2.976-5.408 5.428-2.401 2.71-3.517 4.579-4.346 5.65-.619.797-.805 1.24-.927 1.985-.023.138-.078 2.297-.485 3.398-.31.84-1.577 2.669-1.644 2.781-.593.988-.521 1.469-.502 2.017.02.548-.09 7.837.116 15.945.207 8.109 2.985 13.317 2.985 13.317l-.003-.001v.001c1.513 1.473 2.941 2.06 2.941 2.06-1.452-2.533-3.88-9.828-4.023-15.426-.15-5.844-.025-10.945-.078-13.943a228.01 228.01 0 00-.039-1.974l-.005-.172c-.012-.275-.012-.356.26-.878.03-.05.056-.089.098-.152.703-1.059 1.391-2.146 1.676-2.917.386-1.044.515-2.532.584-3.711.002-.031.004-.069.01-.112.034-.202.076-.404.201-.671h.002z" fill="#41748D"/>
    <path d="M27.871 89.313c-9.333-10.587-12.724-25.64-7.97-38.778-.83.033-1.633.07-2.41.114a39.022 39.022 0 00-1.945 13.46l.016.387c.52 10.756 5.98 20.137 11.887 26.098l.012.013c.14-.43.277-.861.41-1.294z" fill="#00A3E0"/>
    <path d="M107.461 22.257l-22.277 4.02 22.346-4.025s-22.439 8.215-27.375 10.08c-4.936 1.866-4.819 6.51-4.819 6.51l9.642-.584c7.42-.466 9.912 1.555 9.912 1.555l-17.406 1.863-5.524 5.37c-14.135-.112-44.7 11.368-41.598 34.214l.498-1.619.002-.004.473-1.537.053-.153.121-.392.639-2.07c.171-.54.343-1.075.5-1.552a26.282 26.282 0 011.988-5.042c3.787-7.291 11.47-12.026 17.043-14.61 5.472-2.536 11.637-4.285 16.838-4.828.96-.102 1.925-.16 2.89-.175.115 0 .233-.007.347-.007l1.106.008 5.963-5.83 21.053-2.265c-.798-.872-4.772-4.741-12.62-4.898-.767-.015-1.579.027-2.41.079l-6.555.4c.37-1.093 1.3-2.186 2.65-2.696 4.868-1.84 30.864-11.4 31.088-11.483l2.085-2.035-6.653 1.706z" fill="#41748D"/>
    <path d="M22.436 64.363c.107 2.369.459 4.72 1.05 7.018-.634-8.258.805-15.214 3.776-20.934a129.01 129.01 0 00-2.328-.016c-1.875 4.347-2.715 9.03-2.498 13.932zm38.138-34.111c-.223.004-.447.007-.668.014-9.772.305-18.823 2.942-25.311 7.841a32.915 32.915 0 00-2.959 2.522 32.417 32.417 0 00-3.14 3.64 91.86 91.86 0 013.398-.508c6.853-7.64 17.194-12.049 28.68-13.51z" fill="#EF3340"/>
    <path d="M84.975 38.257l-9.64.585s-.118-4.644 4.818-6.51c4.935-1.866 27.375-10.08 27.375-10.08l-22.346 4.024-4.819.867c-3.829-.14-6.92.346-6.92.346a21.85 21.85 0 00-5.43-1.848 26.765 26.765 0 00-1.65-.345c-2.597-5.527-7.699-14.944-15.77-23.716-2.2 6.507.903 10.87-3.389 19.829-.48 1.004-.92 1.913-1.888 2.978-3.712 4.082-5.77 4.562-9.534 7.097-6.203 3.86-10.69 8.722-13.637 14.085 2.1-.51 4.22-.945 6.351-1.303a32.495 32.495 0 013.14-3.64 32.913 32.913 0 012.958-2.521c6.489-4.9 15.54-7.537 25.312-7.841.221-.008.445-.01.668-.014-11.486 1.46-21.827 5.869-28.68 13.508 8.281-1.077 15.263-.84 19.42-.254a56.884 56.884 0 00-8.835 4.12 47.588 47.588 0 00-5.066 3.37 127.282 127.282 0 00-10.151-.548c-2.971 5.72-4.41 12.675-3.777 20.933a34.458 34.458 0 01-1.05-7.018c-.217-4.903.624-9.586 2.499-13.931-1.761.004-3.442.043-5.036.104-4.753 13.138-1.363 28.191 7.97 38.778.822-2.653 1.666-5.38 2.49-8.053-3.102-22.845 27.465-34.326 41.599-34.214l5.523-5.37 17.406-1.862c.002 0-2.49-2.022-9.91-1.556zM52.86 10.095c-.007-.104-.007-.378-.012-.65 4.198 5.69 7.266 11.218 8.962 14.534-5.276.034-9.882 1.312-13.537 2.868 2.396-3.246 5.131-8.956 4.587-16.752zm20.018 28.897l-4.207.257s.873-3.497 6.43-5.344c0 0-1.748 1.006-2.223 5.087z" fill="#000"/>
    <path d="M52.848 9.448c.005.272.004.547.011.65.545 7.797-2.19 13.507-4.588 16.753 3.657-1.556 8.262-2.834 13.538-2.868-1.696-3.316-4.764-8.845-8.961-14.535z" fill="#00A3E0"/>
    <path d="M68.672 39.253l4.207-.257c.476-4.081 2.223-5.086 2.223-5.086-5.556 1.845-6.43 5.343-6.43 5.343zm-43.735 11.18c.761-.002 1.539.005 2.328.016 3.199.048 6.608.212 10.151.55a47.7 47.7 0 015.065-3.37c-10.507-.459-24.632.068-38.111 4.453.333-.064 5.41-.996 13.121-1.43a139.558 139.558 0 017.446-.219z" fill="#41748D"/>
    <path d="M42.482 47.626a56.913 56.913 0 018.836-4.12c-4.158-.588-11.14-.824-19.42.254a91.588 91.588 0 00-9.75 1.81c2.947-5.364 7.434-10.225 13.637-14.085 3.765-2.535 5.823-3.015 9.534-7.097.969-1.066 1.408-1.974 1.889-2.979 4.291-8.958 1.188-13.321 3.39-19.828 8.07 8.772 13.171 18.188 15.77 23.716a27.88 27.88 0 011.648.345c1.884.375 3.71.996 5.431 1.848 0 0 3.09-.486 6.92-.346l4.818-.868 22.278-4.02 6.655-1.703 2.19-2.11-36.105 6.467a44.023 44.023 0 00-6.398.285 23.952 23.952 0 00-5.445-1.756c-.143-.03-.285-.064-.427-.097C65.18 17.633 60.203 8.778 52.346.235c-1.304-1.313-1.77-1.72-2.89-2.634-.458.999-1.114 3.404-1.114 3.404-.706 2.377-.94 5.852-.963 9.27.061 2.551-.266 6.914-2.307 10.5-1.393 2.348-3.51 4.317-6.7 6.472-.252.157-.506.32-.768.494-1.6.951-4.288 2.48-6.325 4.03-5.678 4.073-9.224 8.65-12.047 14.563-4.879 1.364-9.915 3.23-14.883 5.749l.02-.004c13.48-4.385 27.606-4.912 38.113-4.453z" fill="#00A3E0"/>
    <path d="M60.732 105.051c.386-1.043.565-2.533.634-3.712.002-.03.004-.069.01-.111.037-.33.137-.622.537-1.206.118-.173.276-.406.463-.678a85.034 85.034 0 012.262-3.15l4.2 19.912 41.972-56.453-20.345 65.757 17.121-.001c-.312-1.654-.318-3.508-.027-5.691.201-1.506.604-3.054 1.188-5.063l18.633-60.01c3.025-9.69 7.401-17.126 13.321-22.613-5.68.098-13.847 1.225-21.97 5.772-7.037 4.033-12.732 9.27-21.742 19.999-5.126 6.673-10.629 14.12-14.65 19.56a795.417 795.417 0 01-4.326 5.823l-1.898 2.502-7.598-36.234c-5.201.543-11.366 2.292-16.838 4.829-5.574 2.583-13.256 7.318-17.043 14.61a26.233 26.233 0 00-1.988 5.042c-.158.477-.33 1.011-.5 1.552l-.64 2.07c.95-2.422 2.55-4.676 4.003-6.783a24.491 24.491 0 011.811-2.302c1.27-1.438 2.694-2.73 4.2-3.891-6.232 20.19-16.372 52.995-17.348 55.829-2.013 5.844-4.864 9.89-7.11 12.408 12.025-1.628 16.309-6.387 17.812-8.057 4.928-5.476 7.226-13.385 7.982-15.983.067-.232 14.455-47.314 14.455-47.314l5.18 24.555a37.133 37.133 0 00-3.343 2.603c-2.239 1.94-2.878 2.355-4.605 3.94-1.704 1.565-3.125 2.48-4.607 2.83l-2.116 6.929-.499 1.63c1.297 2.391 1.52 4.435 1.64 5.401.297 2.413.225 5.101 1.442 13.258 2.043 13.69 7.401 14.767 7.478 14.782h.003s-2.778-5.208-2.985-13.316c-.207-8.109-.098-15.398-.116-15.946-.02-.547-.091-1.028.502-2.017.067-.112 1.334-1.941 1.644-2.781.407-1.101.462-3.26.485-3.398.122-.745.308-1.188.927-1.984.828-1.072 1.944-2.94 4.346-5.65 2.172-2.453 3.965-4.193 5.408-5.43 2.975-2.325 4.562-2.354 5.007-2.298.033.007.066.01.098.018-2.22.745-5.04 3.963-8.311 7.73l-.046.053-.092.105-.593.683c-1.713 1.97-3.65 4.792-4.325 5.781l-.004.006a4.762 4.762 0 00-.321.548l-.001.002.145.695 1.035 4.971c.013-.039.03-.078.043-.113z" fill="#000"/>
    <path d="M116.126 124.921h-.012l-.553-1.731h-.844v2.648h.486v-2.109h.013l.668 2.106h.466l.691-2.106h.011v2.106h.486v-2.645h-.837l-.575 1.731zm-3.768-1.258h.717v2.175h.485v-2.175h.723v-.473h-1.925v.473z" fill="#00A3E0"/>
  </g>
  <defs>
    <clipPath id="oGs0B3XczWa">
      <path fill="#fff" d="M0 0h141.714v141.714H0z"/>
    </clipPath>
  </defs>
</svg>
