<svg xmlns="http://www.w3.org/2000/svg" fill="none" viewBox="0 0 32 32">
  <g clip-path="url(#Ma3HlGIebka)">
    <path d="M18.073 17.084c.91-1.231 2.157-2.918 3.32-4.431l.008-.011c2.092-2.492 3.424-3.713 5.091-4.668a10.566 10.566 0 011.668-.75c-.811.223-1.667.551-2.524 1.03-.171.099-.34.2-.508.306-1.553.922-2.886 1.946-4.885 4.5l-.054.072-2.836 3.856.175.833.545-.737zm-5.175 2.793c.182-.15.368-.294.557-.434l-.628-2.976-.38 1.242.452 2.168zm1.083 2.708c-.09.132-.113.198-.122.273a.414.414 0 00-.002.025c-.015.266-.056.602-.143.838l-.01.025-.234-1.122 1.214 5.829.524-.7-1.123-5.32-.104.152zm9.307-5.699l-1.086 1.462-3.536 11.257 5.875.002.642-.642H19.55l3.738-12.079zM6.645 29.88c-1.53.718-3.128.807-3.825.856-.284.02-.564.03-.841.031 1.046-.818 1.875-1.617 2.426-2.75.173-.335.321-.682.444-1.038.198-.577 2.173-6.961 3.58-11.518a5.53 5.53 0 00-.409.52c-.328.476-.69.985-.904 1.532l-.027.088-.012.035-.107.347-.113.366-.562 1.819-.091.293-.004-.004a1146.2 1146.2 0 01-2 6.402c-.698 2.12-2.225 3.13-4.152 4.583.69.013 1.431.029 2.142-.028.986-.079 3.779-.25 5.632-2.167.072-.071.142-.145.21-.22.178-.2.345-.409.5-.627a5.83 5.83 0 01-.176.204c-.5.556-1.096.969-1.712 1.276z" fill="#EF3340"/>
    <path d="M13.071 31.024c-.017-.004-1.227-.247-1.688-3.338-.275-1.842-.259-2.449-.326-2.994-.027-.218-.078-.68-.37-1.22l.112-.367 1.649-5.396.38-1.242.627 2.976a15.6 15.6 0 00-.556.433c-.4.327-.706.608-.856.728-.25.2-.426.318-.596.381l-.17.555c.335-.08.656-.286 1.04-.64.39-.357.535-.45 1.04-.889.272-.235.523-.429.755-.588l-1.17-5.544-3.264 10.683c-.17.587-.69 2.373-1.802 3.61-.34.377-1.307 1.451-4.022 1.819.507-.569 1.15-1.482 1.606-2.802.22-.64 2.51-8.047 3.917-12.607-.34.263-.662.554-.949.879-1.406 4.556-3.381 10.94-3.58 11.517a7.74 7.74 0 01-.443 1.038c-.552 1.133-1.38 1.933-2.427 2.751.281-.001.562-.012.842-.031.696-.05 2.294-.139 3.825-.856a5.724 5.724 0 001.712-1.276c.06-.067.118-.135.175-.205 1.09-1.327 1.596-3.065 1.767-3.657l.037-.123.148-.486c.063.185.1.385.12.614 0 0 .12 1.123.295 2.699.426 3.816 2.14 3.887 2.837 4.042 0 .001-.323-.132-.665-.464zm18.891-24.44c-.99 0-2.347.13-3.802.64-.576.201-1.134.452-1.667.75-1.667.955-3 2.176-5.091 4.668l-.009.01a314.207 314.207 0 00-3.32 4.433l-.544.736-.175-.833-1.229-5.86a7.154 7.154 0 00-.653.04l1.716 8.181.429-.565c.199-.262.542-.727.977-1.315.907-1.228 2.15-2.91 3.308-4.417 2.034-2.422 3.32-3.605 4.91-4.515 1.833-1.027 3.678-1.282 4.96-1.304-1.337 1.24-2.325 2.918-3.008 5.106l-4.207 13.55c-.132.455-.223.804-.268 1.144-.066.493-.065.912.006 1.285h-3.866l4.594-14.848-9.478 12.748-.948-4.497c-.176.234-.346.47-.511.712l1.123 5.321 6.993-9.406 1.087-1.462-3.737 12.08h5.632c-.116-.297-.132-.347-.162-.437-.14-.378-.17-.826-.092-1.41.04-.3.125-.624.247-1.043l4.205-13.545c.749-2.398 1.874-4.143 3.438-5.334.215-.169.432-.333.652-.493 0 0-.772-.11-1.51-.12z" fill="#00A3E0"/>
    <path d="M13.437 22.467a.98.98 0 01.072-.124l.002-.002c.152-.223.59-.86.976-1.305l.134-.154.02-.024.011-.012c.739-.85 1.376-1.577 1.877-1.745l-.022-.004c-.1-.013-.46-.007-1.13.519a12.48 12.48 0 00-1.222 1.226c-.542.612-.794 1.034-.981 1.275-.14.18-.182.28-.21.448-.005.032-.018.52-.11.768-.07.19-.355.603-.37.628-.134.223-.118.332-.114.455.005.124-.02 1.77.026 3.6.047 1.832.674 3.008.674 3.008.341.332.664.465.664.465-.328-.572-.876-2.22-.909-3.483-.033-1.32-.005-2.472-.017-3.149a50.966 50.966 0 00-.01-.445v-.04c-.003-.061-.003-.08.058-.198l.023-.034c.158-.24.314-.485.378-.659.087-.235.116-.571.132-.838a.54.54 0 01.048-.177z" fill="#41748D"/>
    <path d="M6.293 20.168c-2.107-2.391-2.873-5.79-1.8-8.757a33.53 33.53 0 00-.543.026c-.321.966-.471 2-.44 3.04l.004.086c.118 2.43 1.35 4.548 2.684 5.894l.003.003c.032-.098.062-.195.092-.293z" fill="#00A3E0"/>
    <path d="M24.265 5.026l-5.03.907 5.046-.908S19.214 6.88 18.099 7.3c-1.114.421-1.088 1.47-1.088 1.47l2.178-.132c1.675-.105 2.238.351 2.238.351l-3.93.42-1.248 1.213c-3.192-.025-10.094 2.567-9.393 7.726l.113-.366.107-.348.012-.034.027-.089.144-.467.113-.35c.11-.394.26-.776.45-1.139.854-1.646 2.589-2.715 3.847-3.299 1.236-.573 2.628-.968 3.803-1.09a7.15 7.15 0 01.652-.04l.078-.001.25.002L17.8 9.81l4.754-.511c-.18-.197-1.078-1.07-2.85-1.106a6.68 6.68 0 00-.544.017l-1.48.09c.083-.246.293-.493.598-.608 1.1-.416 6.97-2.574 7.02-2.593l.47-.46-1.502.386z" fill="#41748D"/>
    <path d="M5.066 14.534a7.77 7.77 0 00.237 1.584c-.143-1.864.182-3.435.853-4.727a28.78 28.78 0 00-.526-.003 7.08 7.08 0 00-.564 3.146zm8.612-7.703l-.15.003c-2.207.07-4.251.665-5.716 1.77a7.432 7.432 0 00-.668.57 7.305 7.305 0 00-.71.822c.261-.044.517-.082.768-.114 1.547-1.726 3.882-2.721 6.476-3.05z" fill="#EF3340"/>
    <path d="M19.188 8.639l-2.177.132s-.027-1.049 1.088-1.47a1389.95 1389.95 0 016.181-2.276l-5.045.908-1.088.196c-.865-.032-1.563.078-1.563.078a4.936 4.936 0 00-1.226-.417 6.038 6.038 0 00-.373-.078c-.586-1.248-1.738-3.375-3.56-5.355-.498 1.47.203 2.454-.766 4.477-.109.227-.208.432-.427.673-.837.922-1.302 1.03-2.152 1.602-1.401.872-2.414 1.97-3.08 3.18.475-.114.953-.213 1.435-.293.215-.291.452-.566.709-.822.21-.203.434-.393.668-.57 1.465-1.106 3.509-1.701 5.715-1.77.05-.002.1-.002.151-.003-2.594.33-4.929 1.325-6.476 3.05 1.87-.243 3.446-.19 4.385-.057-.669.245-1.348.555-1.995.93-.397.229-.78.483-1.144.76a28.768 28.768 0 00-2.292-.123c-.671 1.292-.996 2.862-.853 4.727a7.78 7.78 0 01-.237-1.585 7.079 7.079 0 01.564-3.146c-.397.001-.777.01-1.137.024-1.073 2.967-.308 6.366 1.8 8.756l.562-1.818c-.7-5.159 6.202-7.751 9.393-7.726l1.248-1.212 3.93-.421s-.562-.457-2.238-.351zm-7.252-6.36c-.002-.023-.002-.085-.002-.146a24.375 24.375 0 012.023 3.282 7.941 7.941 0 00-3.057.647c.541-.733 1.159-2.022 1.036-3.782zm4.52 6.526l-.95.058s.198-.79 1.452-1.207c0 0-.394.227-.502 1.149z" fill="#000"/>
    <path d="M11.933 2.134c.002.06.001.123.003.146.123 1.76-.495 3.05-1.036 3.783a7.936 7.936 0 013.057-.648 24.351 24.351 0 00-2.024-3.281z" fill="#00A3E0"/>
    <path d="M15.507 8.864l.95-.058c.107-.922.501-1.149.501-1.149-1.254.417-1.451 1.207-1.451 1.207zM5.63 11.388a30.11 30.11 0 012.818.128c.364-.278.747-.532 1.144-.761C7.22 10.65 4.03 10.77.987 11.76c.075-.014 1.221-.224 2.963-.322a31.473 31.473 0 011.68-.05z" fill="#41748D"/>
    <path d="M9.593 10.754a12.855 12.855 0 011.995-.93c-.939-.133-2.515-.186-4.385.057-.74.097-1.476.233-2.202.409.666-1.211 1.679-2.309 3.08-3.18.85-.573 1.314-.681 2.152-1.603.22-.24.318-.446.427-.673.969-2.023.268-3.008.765-4.477 1.823 1.98 2.974 4.107 3.561 5.355.125.022.25.048.373.078.425.085.837.225 1.226.417 0 0 .698-.11 1.562-.078l1.088-.196 5.03-.907 1.503-.385.495-.476-8.153 1.46a9.942 9.942 0 00-1.444.064 5.41 5.41 0 00-1.23-.396l-.096-.022c-.622-1.29-1.746-3.289-3.52-5.218a6.67 6.67 0 00-.653-.595c-.103.226-.251.769-.251.769-.16.537-.212 1.321-.218 2.093.014.576-.06 1.561-.52 2.371-.315.53-.793.975-1.514 1.462a6.971 6.971 0 00-.173.111c-.361.215-.968.56-1.428.91-1.282.92-2.083 1.953-2.72 3.288a18.37 18.37 0 00-3.361 1.299l.005-.001c3.044-.99 6.233-1.11 8.606-1.006z" fill="#00A3E0"/>
    <path d="M13.714 23.721c.087-.235.127-.572.143-.838a.44.44 0 01.002-.025c.008-.075.031-.14.121-.272l.105-.153c.165-.241.335-.479.51-.712l.95 4.496 9.477-12.747-4.595 14.848h3.867c-.07-.373-.072-.792-.006-1.285.045-.34.136-.69.268-1.143l4.207-13.55c.683-2.189 1.671-3.868 3.008-5.107-1.282.022-3.127.277-4.96 1.303-1.59.911-2.876 2.094-4.91 4.516-1.158 1.507-2.4 3.189-3.308 4.417-.435.588-.778 1.052-.977 1.315l-.429.565-1.715-8.182c-1.175.123-2.567.518-3.803 1.09-1.258.584-2.993 1.653-3.848 3.3a5.92 5.92 0 00-.449 1.138l-.113.35-.144.468c.214-.547.576-1.056.904-1.532.125-.181.262-.355.409-.52.286-.324.608-.616.948-.878-1.407 4.559-3.697 11.966-3.917 12.606-.455 1.32-1.099 2.233-1.606 2.802 2.716-.367 3.683-1.442 4.022-1.82 1.113-1.236 1.632-3.021 1.803-3.608.015-.053 3.264-10.684 3.264-10.684l1.17 5.545a8.392 8.392 0 00-.756.587c-.505.439-.65.532-1.04.89-.384.353-.705.56-1.04.64l-.478 1.564-.112.368c.293.54.343 1.001.37 1.22.067.544.05 1.151.326 2.993.461 3.091 1.671 3.335 1.688 3.338h.001s-.627-1.176-.674-3.007c-.047-1.83-.022-3.477-.026-3.6-.005-.124-.02-.233.113-.456.015-.025.301-.438.371-.628.092-.249.105-.736.11-.767.027-.168.07-.268.21-.448.186-.242.438-.664.98-1.276.491-.554.896-.947 1.222-1.226.671-.525 1.03-.532 1.13-.52.008.003.015.003.022.005-.5.168-1.138.895-1.876 1.745l-.01.012-.021.024-.134.154c-.387.445-.824 1.082-.977 1.306v.001a1.286 1.286 0 00-.073.124l.032.157.234 1.123.01-.026z" fill="#000"/>
    <path d="M26.222 28.208h-.003l-.125-.39h-.19v.597h.11v-.476h.003l.15.475h.106l.155-.475h.003v.475h.11v-.597h-.19l-.13.39zm-.85-.284h.161v.491h.11v-.491h.163v-.107h-.435v.107z" fill="#00A3E0"/>
  </g>
  <defs>
    <clipPath id="Ma3HlGIebka">
      <path fill="#fff" d="M0 0h32v32H0z"/>
    </clipPath>
  </defs>
</svg>
