<svg xmlns="http://www.w3.org/2000/svg" fill="none" viewBox="0 0 48 30">
  <path d="M30.323 26.645H17.415V3.19h12.908v23.455z" fill="#F16623"/>
  <path d="M18.233 14.916c0-4.759 2.203-8.996 5.634-11.728A14.584 14.584 0 0014.751 0C6.605 0 0 6.678 0 14.916s6.605 14.916 14.751 14.916c3.44 0 6.607-1.191 9.116-3.189a14.954 14.954 0 01-5.634-11.727z" fill="#E31E27"/>
  <path d="M47.734 14.916c0 8.238-6.604 14.916-14.75 14.916a14.582 14.582 0 01-9.116-3.189 14.953 14.953 0 005.634-11.727c0-4.759-2.203-8.996-5.634-11.728A14.582 14.582 0 0132.984 0c8.146 0 14.75 6.679 14.75 14.917zm-.455 9.244v-.58h-.15l-.172.399-.172-.398h-.15v.579h.107v-.437l.161.377h.11l.16-.378v.438h.106zm-.947 0v-.48h.192v-.099h-.488v.098h.191v.48h.106z" fill="#F99F1E"/>
</svg>
