<svg xmlns="http://www.w3.org/2000/svg" fill="none" viewBox="0 0 61 38">
  <path d="M38.583 33.902H22.159V4.058h16.424v29.844z" fill="#F16623"/>
  <path d="M23.2 18.979a19.025 19.025 0 017.169-14.922A18.556 18.556 0 0018.769 0C8.405 0 .002 8.497.002 18.98c0 10.482 8.403 18.98 18.769 18.98a18.56 18.56 0 0011.599-4.058A19.027 19.027 0 0123.2 18.98z" fill="#E31E27"/>
  <path d="M60.738 18.98c0 10.48-8.403 18.979-18.768 18.979a18.553 18.553 0 01-11.6-4.059 19.026 19.026 0 007.168-14.922A19.024 19.024 0 0030.37 4.056 18.554 18.554 0 0141.97 0c10.365 0 18.768 8.497 18.768 18.98zm-.582 11.76v-.736h-.19l-.22.506-.218-.506h-.19v.736h.135v-.555l.205.48h.139l.205-.481v.556h.134zm-1.204 0v-.61h.244v-.125h-.622v.124h.244v.611h.134z" fill="#F99F1E"/>
</svg>
