<svg xmlns="http://www.w3.org/2000/svg" fill="none" viewBox="0 0 41 26">
  <path d="M25.906 22.762H14.878V2.725h11.028v20.037z" fill="#F16623"/>
  <path d="M15.575 12.742c0-4.065 1.883-7.685 4.814-10.018A12.46 12.46 0 0012.6-.001C5.641 0 0 5.705 0 12.742c0 7.038 5.643 12.744 12.602 12.744a12.46 12.46 0 007.788-2.725 12.775 12.775 0 01-4.814-10.018z" fill="#E31E27"/>
  <path d="M40.78 12.743c0 7.038-5.642 12.743-12.602 12.743-2.94 0-5.644-1.018-7.788-2.724a12.774 12.774 0 004.813-10.019c0-4.065-1.882-7.685-4.813-10.019A12.458 12.458 0 0128.178 0c6.96 0 12.601 5.705 12.601 12.743zm-.389 7.897v-.495h-.128l-.147.34-.147-.34h-.127v.495h.09v-.373l.138.322h.093l.138-.323v.374h.09zm-.808 0v-.41h.163v-.084h-.417v.084h.164v.41h.09z" fill="#F99F1E"/>
</svg>
