<svg xmlns="http://www.w3.org/2000/svg" fill="none" viewBox="0 0 13 8">
  <path d="M8.131 7.145h-3.46V.855h3.46v6.29z" fill="#F16623"/>
  <path d="M4.89 4A4.01 4.01 0 016.4.855 3.91 3.91 0 003.956 0C1.77 0 0 1.79 0 4c0 2.209 1.771 4 3.956 4A3.91 3.91 0 006.4 7.145 4.01 4.01 0 014.89 4z" fill="#E31E27"/>
  <path d="M12.8 4c0 2.209-1.77 4-3.955 4A3.91 3.91 0 016.4 7.145 4.01 4.01 0 007.911 4 4.01 4.01 0 006.401.855 3.91 3.91 0 018.844 0C11.029 0 12.8 1.79 12.8 4zm-.122 2.479v-.156h-.04l-.046.107-.046-.107h-.04v.156h.028V6.36l.044.102h.029l.043-.102v.118h.028zm-.254 0v-.13h.052v-.026h-.131v.027h.051v.129h.028z" fill="#F99F1E"/>
</svg>
