<svg xmlns="http://www.w3.org/2000/svg" fill="none" viewBox="0 0 41 26">
  <path d="M25.74 22.62H14.78V2.709h10.96v19.913z" fill="#F16623"/>
  <path d="M15.478 12.663c0-4.04 1.871-7.637 4.784-9.956a12.381 12.381 0 00-7.74-2.708C5.607 0 0 5.67 0 12.663s5.607 12.664 12.524 12.664c2.92 0 5.608-1.012 7.739-2.708a12.695 12.695 0 01-4.784-9.956z" fill="#E31E27"/>
  <path d="M40.523 12.663c0 6.994-5.606 12.664-12.523 12.664a12.38 12.38 0 01-7.738-2.708 12.694 12.694 0 004.782-9.956c0-4.04-1.87-7.637-4.782-9.956A12.38 12.38 0 0128-.001c6.917 0 12.523 5.67 12.523 12.664zm-.386 7.847v-.491h-.127l-.147.338-.145-.338h-.127v.492h.09v-.37l.137.319h.092l.137-.32v.37h.09zm-.804 0v-.407h.163v-.083h-.415v.083h.163v.408h.09z" fill="#F99F1E"/>
</svg>
