<svg xmlns="http://www.w3.org/2000/svg" fill="none" viewBox="0 0 240 497">
  <path d="M53.088.086h132.924c9.292 0 16.257 0 21.785.451 5.528.452 9.612 1.355 13.147 3.156a33.096 33.096 0 0114.463 14.462c1.801 3.535 2.704 7.62 3.155 13.147.452 5.529.452 12.493.452 21.786V443.24c0 9.292 0 16.257-.452 21.785-.451 5.528-1.354 9.612-3.155 13.147a33.098 33.098 0 01-14.463 14.463c-3.535 1.801-7.619 2.703-13.147 3.155-5.528.452-12.493.452-21.785.452H53.088c-9.293 0-16.257 0-21.786-.452-5.527-.452-9.612-1.354-13.147-3.155a33.096 33.096 0 01-14.462-14.463c-1.801-3.535-2.704-7.619-3.156-13.147-.451-5.528-.451-12.493-.451-21.785V53.088c0-9.293 0-16.257.451-21.786.452-5.527 1.355-9.612 3.156-13.147A33.094 33.094 0 0118.155 3.693C21.69 1.892 25.775.989 31.302.537 36.831.086 43.795.086 53.088.086z" fill="#000" stroke="url(#9eEfqFQD4Jia)" stroke-width=".171"/>
  <defs>
    <linearGradient id="9eEfqFQD4Jia" x1="15.282" y1="6.343" x2="220.456" y2="483.818" gradientUnits="userSpaceOnUse">
      <stop stop-color="#fff" stop-opacity=".16"/>
      <stop offset="1" stop-color="#fff" stop-opacity=".05"/>
    </linearGradient>
  </defs>
</svg>
