<svg xmlns="http://www.w3.org/2000/svg" fill="none" viewBox="0 0 32 32">
  <path d="M0 0h32v32H0V0z" fill="url(#1I233QO_erfa)"/>
  <path d="M10.404 23.297l.003.001-1.08 1.87a1.427 1.427 0 01-2.472-1.427l.795-1.378.077-.132c.136-.196.472-.534 1.145-.47 0 0 1.584.171 1.698.994 0 0 .016.271-.166.542zm15.312-4.776h-3.367c-.229-.015-.329-.097-.368-.145l-.003-.004-3.604-6.242-.004.003-.216-.31c-.355-.542-.917.844-.917.844-.672 1.543.095 3.299.363 3.83l5.005 8.669a1.427 1.427 0 102.472-1.427l-1.252-2.168c-.024-.053-.066-.195.19-.196h1.701a1.427 1.427 0 000-2.854zm-6.539 1.94s.18.914-.516.914H6.216a1.427 1.427 0 010-2.854h3.2c.516-.03.639-.328.639-.328l.002.001 4.177-7.234h-.001a.318.318 0 00.001-.293l-1.379-2.389a1.427 1.427 0 012.472-1.427l.64 1.108.638-1.106a1.427 1.427 0 112.472 1.427l-5.812 10.067c-.025.06-.033.157.156.174h3.474v.034s2.009.031 2.282 1.906z" fill="#fff"/>
  <defs>
    <linearGradient id="1I233QO_erfa" x1="16" y1="32" x2="16" y2="0" gradientUnits="userSpaceOnUse">
      <stop stop-color="#1D76F2"/>
      <stop offset="1" stop-color="#1AC2FB"/>
    </linearGradient>
  </defs>
</svg>
