<svg xmlns="http://www.w3.org/2000/svg" fill="none" viewBox="0 0 48 48">
  <path fill="#FBF7F7" d="M0 0h48v48H0z"/>
  <path fill-rule="evenodd" clip-rule="evenodd" d="M23.818 12.092c-.132.089-.513.521-.703.799l-.103.148c-.005.007-.103-.06-.218-.151-.537-.422-1.419-.624-1.86-.426a1.615 1.615 0 00-.586.513c-.12.185-.251.576-.251.74 0 .13-.007.135-.52.387-1.477.729-2.602 1.69-3.958 3.387l-.36.452-.03-.227c-.043-.348-.195-.532-.488-.595-.347-.075-.386-.044-1.418 1.127-.703.798-.734.85-.67 1.114.069.282.234.44.521.5.2.04.226.057.216.13-.008.051-.077.118-.182.175l-.17.093.025.411c.067 1.075.325 1.73.805 2.044.086.056.156.114.156.128 0 .015-.09.048-.201.073-.39.09-.7.269-1.037.603-.36.356-.53.657-.629 1.117-.156.726.112 1.524.688 2.047.382.348.708.492 1.37.606l.171.03-.148.173a1.62 1.62 0 00-.403 1.007c-.014.3-.003.369.13.766.38 1.129 1.44 2.387 2.942 3.495a12.39 12.39 0 002.956 1.608l.599.23.174.268c.248.381.531.664.748.747.389.148.943.06 1.344-.212l.175-.12.074.135c.097.18.342.393.556.487.383.167.8.121 1.145-.126.147-.105.369-.365.405-.475.01-.03.064-.01.15.055.319.24.84.386 1.164.326.33-.062.653-.338.98-.837l.166-.256.4-.147c2.342-.858 4.475-2.453 5.612-4.196.435-.667.624-1.228.6-1.787-.016-.39-.116-.635-.397-.974l-.181-.22.244-.026c.77-.087 1.4-.473 1.771-1.084.216-.355.295-.657.295-1.12 0-.654-.183-1.093-.647-1.554a2.143 2.143 0 00-.989-.582l-.244-.068.235-.21c.426-.381.645-.978.692-1.883l.024-.475-.182-.105c-.24-.14-.246-.24-.016-.277.536-.087.78-.558.494-.952-.169-.232-.747-.899-1.196-1.38-.394-.42-.531-.5-.756-.437-.318.09-.455.255-.495.595-.015.12-.039.219-.054.219-.016 0-.175-.186-.354-.412-1.326-1.68-2.499-2.68-4.03-3.44l-.419-.206-.044-.26c-.087-.499-.39-.938-.779-1.126-.198-.096-.243-.103-.557-.084-.508.03-.974.21-1.37.526-.093.073-.173.127-.18.118-.414-.566-.868-1.041-.994-1.041a.535.535 0 00-.208.092zm.42.48c.248.287.443.537.443.566 0 .013-.195.024-.434.024h-.433l.076-.107c.126-.177.138-.267.049-.356-.044-.044-.11-.08-.147-.08-.05 0-.033-.033.066-.135a.673.673 0 01.16-.136c.016 0 .115.1.22.223zm-2.474.185c.361.092.947.395.88.455-.028.024-1.03.185-1.046.168-.008-.008.004-.06.026-.118.034-.089.026-.118-.056-.199-.126-.124-.268-.122-.37.006-.092.116-.165.104-.26-.04-.084-.126-.052-.205.109-.274.168-.072.429-.072.717.002zm5.211-.004c.17.07.202.148.118.276-.099.149-.174.159-.273.037-.073-.091-.105-.103-.209-.08-.167.036-.22.11-.194.273.027.162.057.159-.548.058a15.084 15.084 0 00-.492-.078c-.073 0-.015-.068.161-.187.43-.289 1.115-.431 1.437-.299zm-6.324.55c.03.036.137.103.239.15l.186.085-.284.083c-.327.096-.385.101-.365.034.009-.026.037-.13.063-.232.052-.199.078-.218.16-.12zm6.882.112a.662.662 0 01.04.231l-.012.08-.311-.092-.311-.094.206-.096c.113-.054.216-.122.228-.153.035-.091.106-.036.16.124zm-2.871.096c.794.05 1.31.126 1.956.288 1.741.435 3.232 1.344 4.562 2.78.442.479.8.912 1.494 1.81.885 1.146 1.382 1.686 1.806 1.963l.163.107-.027.351c-.07.956-.346 1.513-.862 1.746-.57.257-1.382.181-1.963-.183-.353-.221-.766-.663-1.392-1.491-.784-1.036-1.102-1.41-1.604-1.887a7.46 7.46 0 00-2.881-1.726c-.685-.226-1.08-.284-1.938-.283-.59 0-.801.016-1.136.085-1.526.312-2.996 1.171-4.107 2.403-.183.202-.642.777-1.02 1.278-.69.913-1.08 1.345-1.43 1.584-.75.51-1.909.493-2.391-.035-.292-.32-.442-.757-.489-1.424l-.028-.406.217-.157c.452-.326.817-.74 2.06-2.33.697-.893 1.12-1.376 1.634-1.865 1.86-1.77 3.814-2.555 6.572-2.642.097-.003.459.012.804.034zm-1.607.31c-.888.088-1.802.295-2.497.566-1.784.693-3.122 1.797-4.784 3.944-1.192 1.54-1.49 1.88-1.877 2.143-.173.117-.186.139-.186.29 0 .24.07.633.16.905a1.1 1.1 0 00.592.671c.285.123.809.125 1.148.005.478-.17 1.041-.65 1.55-1.323l.732-.97c.723-.958 1.281-1.478 2.36-2.198 1.31-.873 2.435-1.202 3.958-1.158 1.586.047 2.647.456 4.201 1.623.746.56 1.133.969 1.976 2.084.871 1.153 1.312 1.607 1.785 1.838.79.385 1.603.205 1.911-.424.127-.258.228-.855.201-1.183-.002-.032-.062-.092-.132-.133-.315-.182-.788-.699-1.558-1.705-1.338-1.746-2.096-2.553-3.077-3.274a8.866 8.866 0 00-4.21-1.662c-.466-.057-1.83-.081-2.253-.039zm.677.783l.012.417h.741v-.262c0-.144.012-.327.025-.407l.025-.145h.5l-.01 1.017-.01 1.016-.265.012-.265.011v-.922l-.362-.02a2.73 2.73 0 00-.378-.008 3.996 3.996 0 00-.034.461l-.02.447h-.549l.025-.32c.013-.175.025-.638.025-1.027v-.709l.265.012.264.01.011.417zm-1.202-.254c.03.03.032.079.008.151-.035.104-.043.107-.302.098-.227-.009-.287.004-.413.086-.404.264-.395.94.017 1.298.226.196.584.18.826-.038.08-.072.083-.071.175.026.123.13.082.197-.208.341-.266.133-.63.174-.925.104-.284-.068-.56-.32-.672-.613-.123-.323-.099-.703.06-.957.134-.212.413-.418.68-.502.207-.066.686-.061.754.006zm4.111.222c.472.165.489.175.48.277-.013.172-.061.187-.302.098-.328-.121-.35-.114-.43.136-.038.12-.054.23-.036.246.018.015.144.068.28.117.233.084.246.095.223.19-.041.164-.078.172-.353.082-.145-.048-.276-.072-.294-.053-.043.046-.157.388-.157.475 0 .053.082.101.33.194l.33.123-.035.12a.631.631 0 01-.05.134c-.027.027-1.221-.399-1.22-.435 0-.02.14-.45.31-.955.235-.7.324-.92.372-.92.035 0 .284.077.553.171zm-6.438.555c.06.101.299.489.53.861l.422.678-.088.069c-.257.201-.223.205-1.07-.11-.427-.16-.79-.285-.805-.279-.017.006.128.263.32.572l.349.562-.097.078a2.046 2.046 0 01-.21.145l-.114.066-.514-.831a19.612 19.612 0 01-.523-.876c-.006-.024.074-.096.177-.16l.188-.115.78.294c.428.162.789.295.8.295.012 0-.13-.248-.315-.552l-.353-.579c-.012-.02.364-.302.405-.302.005 0 .058.083.118.184zm8.206.224c.235.117.543.454.543.593 0 .046-.25.135-.264.094-.084-.244-.344-.423-.508-.349-.128.058-.115.164.07.544.205.423.225.574.107.799-.132.25-.263.33-.534.329a.836.836 0 01-.393-.09c-.219-.112-.49-.38-.546-.54-.043-.12-.04-.125.097-.182a.545.545 0 01.145-.048c.002.006.042.08.088.165.159.292.425.39.572.212.092-.113.069-.223-.134-.634-.132-.266-.153-.342-.138-.5.018-.201.115-.364.266-.445.12-.063.452-.036.629.052zm1.594 1.26c.327.3.594.568.594.595 0 .027-.035.08-.077.118-.087.077-.102.07-.342-.149-.155-.14-.104-.178-.763.564-.28.315-.525.573-.546.573-.044 0-.387-.308-.387-.348 0-.015.255-.313.567-.663l.568-.635-.196-.174c-.107-.096-.195-.188-.195-.206 0-.04.13-.217.16-.219.013 0 .29.244.617.544zm-12.01.696c.349.15.789.338.977.417.188.078.338.153.333.166a2.776 2.776 0 01-.195.227l-.187.204-.26-.11-.261-.11-.21.228c-.114.126-.209.243-.209.262 0 .018.052.135.116.26l.116.227-.106.138c-.058.076-.121.134-.14.13-.017-.006-.244-.44-.504-.964l-.471-.955.168-.196a1.73 1.73 0 01.182-.197c.008 0 .3.123.65.273zm7.276.108c.183.043.465.124.627.181.38.135 1.174.514 1.45.691l.215.14h-3.563l-3.564.001.174-.108c.74-.46 1.617-.81 2.394-.957.44-.082 1.825-.05 2.267.052zm-10.5.046c.09.047.156.263.156.508v.18l-.147-.033c-.252-.056-.43-.38-.329-.6.047-.102.187-.126.32-.055zm18.806.075c.092.222-.133.582-.364.582h-.115l.016-.275c.013-.231.03-.288.107-.349.142-.114.298-.096.356.042zm-2.216.505l.372.445-.106.087a.53.53 0 01-.13.087c-.013 0-.108-.103-.211-.23l-.188-.232-.102.073c-.057.04-.143.115-.192.167l-.09.096.15.189c.083.104.165.212.182.24.035.057-.076.201-.156.201-.027 0-.138-.1-.247-.223l-.197-.222-.198.192c-.108.106-.197.21-.197.233 0 .022.088.148.196.28.107.131.196.255.196.273 0 .02-.043.074-.094.122l-.094.087-.406-.49c-.223-.269-.405-.507-.405-.529 0-.047 1.476-1.313 1.516-1.3.015.005.196.21.4.454zM17.554 17.8c.057.149.247.474.276.474.054 0 .273-.282.242-.312a2.18 2.18 0 00-.294-.147l-.263-.116.039.1zm-3.362.213c.036.07.11.18.165.246l.099.12-.515.587c-.466.53-.528.586-.642.586a.438.438 0 01-.23-.08c-.162-.126-.139-.276.083-.535.422-.495.924-1.05.949-1.05.014 0 .055.057.091.126zm20.317.513c.602.676.64.752.459.931a.313.313 0 01-.23.095c-.123 0-.174-.045-.648-.579-.283-.319-.515-.594-.515-.613 0-.018.042-.072.093-.12.051-.047.126-.146.166-.22.04-.073.084-.129.098-.123.013.005.273.288.577.63zm-17.576.325c.838.714.837.713.768.809-.108.15-.264.318-.295.318-.018 0-.235-.172-.483-.383-.247-.21-.456-.377-.463-.37-.007.006.121.286.285.622l.298.612-.1.098-.098.097-.615-.201c-.338-.111-.62-.196-.628-.189-.007.008.184.186.426.396.241.211.445.403.453.427.015.044-.17.285-.218.285-.014 0-.133-.091-.264-.203l-.754-.645c-.284-.242-.516-.454-.516-.47 0-.016.076-.112.169-.213l.168-.184.676.223c.372.122.686.213.697.202.012-.01-.097-.27-.24-.575a71.377 71.377 0 01-.315-.673c-.05-.114-.046-.127.124-.34.098-.12.194-.22.213-.22.02 0 .34.26.712.577zm17.088.546c.297.335.343.446.08.192-.182-.174-1.035-1.208-1.035-1.253 0-.013.157.155.348.373.192.22.465.529.607.688zm-19.296-.764c-.432.554-.974 1.16-.975 1.093 0-.04 1.052-1.258 1.086-1.258.01 0-.04.074-.111.165zm13.485.267l.154.123v9.384l-2.152 1.382c-1.184.76-2.174 1.38-2.2 1.38-.025 0-.788-.474-1.695-1.055l-2.14-1.37-.491-.314-.01-4.707-.01-4.707.146-.12.146-.118h8.097l.155.122zm-8.348 1.175v1.142h.568c.635 0 .605.018.51-.294-.081-.264-.077-.323.02-.297.062.016.213-.11.7-.585l.62-.605h.218c.19 0 .23-.013.3-.102l.08-.102.08.1c.065.081.12.102.285.112l.204.011v1.201l-.215.012c-.206.011-.273.049-.274.152 0 .037.143.049.587.049.444 0 .587-.012.587-.048-.001-.106-.07-.142-.294-.153l-.234-.012v-1.2l.26-.012c.228-.01.27-.024.325-.106.08-.12.116-.12.17 0 .04.083.073.096.291.106l.247.011.01.61.011.61h-.251c-.247 0-.3.028-.3.158 0 .02.25.036.569.036.319 0 .568-.016.568-.036 0-.121-.055-.158-.24-.158h-.191v-1.24h.191c.161 0 .202-.015.256-.097.035-.053.078-.097.096-.097.017 0 .055.044.084.097.047.088.076.097.3.097h.248v1.24h-.254c-.246 0-.255.003-.255.096 0 .096.004.097.333.097h.333v.348h1.763v-2.284h-8.306v1.142zm12.485-.793c.17.192.347.42.396.51.102.185.113.413.029.574-.085.161-.359.31-.573.31h-.174l-.148.445-.15.446-.104-.075a5.015 5.015 0 01-.239-.188l-.134-.112.18-.42c.147-.343.171-.431.134-.49-.025-.04-.067-.071-.093-.071-.026 0-.163.106-.303.235-.14.13-.27.23-.287.223a1.628 1.628 0 01-.198-.193l-.167-.18.384-.366c.488-.467 1.08-.997 1.114-.997.015 0 .165.157.333.349zM19.42 28.633c.039.029.467.307.952.62 2.15 1.383 2.258 1.456 2.116 1.431-1.19-.21-2.556-.836-3.507-1.608-.356-.289-.826-.773-1.221-1.257-.368-.451-.667-.739-.914-.88a1.795 1.795 0 00-.771-.224c-.093 0-.17-.012-.17-.027s.053-.08.116-.145c.173-.178.387-.552.477-.834.105-.33.113-.894.017-1.218a2.379 2.379 0 00-.975-1.305c-.226-.144-.228-.146-.118-.17.316-.064.745-.227.969-.367.372-.232.908-.81 1.638-1.765a28.52 28.52 0 01.957-1.195l.309-.347.027 4.62c.025 4.398.03 4.622.098 4.671zm10.554-7.759c.387.504.83 1.05.983 1.213.442.467.917.765 1.394.875.103.023.212.05.243.06.036.011-.014.064-.137.147-.438.293-.814.803-.943 1.281-.074.272-.069.924.01 1.184.094.314.26.616.462.837.099.109.18.206.18.217 0 .01-.12.027-.265.036-.594.04-1 .307-1.634 1.076-.52.63-.999 1.107-1.453 1.443a8.129 8.129 0 01-3.03 1.384c-.248.054-.316.059-.275.02a222.12 222.12 0 013.101-2.01c.064-.04.069-.224.069-2.97 0-1.61.011-3.686.025-4.613l.026-1.685.27.294c.149.162.587.707.974 1.211zm1.937-1.107l-.235.208.117.097c.17.14.241.153.383.07.162-.093.215-.234.147-.395-.089-.213-.152-.21-.412.02zm-9.922.611c-.113.231-.196.436-.184.455.012.02.223.035.47.035h.448v-.097c0-.093-.01-.097-.253-.097h-.253l-.012-.358-.01-.358-.206.42zm-2.126 1.303v.194h8.306v-.388h-8.306v.194zm3.175.892c-.1.278-.14.346-.191.33a4.32 4.32 0 00-.23-.054l-.166-.036.058.11c.031.06.16.27.287.47.296.465.397.664.397.78 0 .052-.07.188-.156.3-.25.33-.268.694-.045.945.16.18.192.312.108.441a5.442 5.442 0 00-.183.324c-.23.437-.331.237-.331-.649v-.62l.154-.346c.11-.248.14-.35.104-.362-.21-.07-.462-.463-.613-.956-.09-.297-.114-.322-.216-.23-.063.056-.142.075-.318.075-.207 0-.245.012-.328.107a.792.792 0 00-.135.263.616.616 0 01-.118.23c-.07.07-.086.07-.277.015-.27-.08-.314-.038-.217.209.04.1.095.284.123.408.085.37.074.365.31.152.116-.105.279-.224.362-.264.255-.122.558-.087.561.067 0 .014-.087.108-.195.21-.108.102-.196.207-.196.233 0 .025.063.083.139.128.227.132.258.26.296 1.223.042 1.077.121 1.46.35 1.687.062.06.132.075.357.075h.28l-.026.262c-.096 1.022-.08 1.156.173 1.459.154.184.16.207.224.758l.029.252.18.011c.214.014.544-.099.776-.265.249-.178.228-.277-.169-.81-.23-.31-.23-.39-.004-.543.313-.213.323-.376.045-.687-.31-.345-.339-.396-.337-.587l.002-.179.378.407c.634.682 1.138 1.162 1.221 1.162.11 0 .136-.221.114-.969-.02-.703-.05-.783-.304-.851a.496.496 0 01-.173-.07.78.78 0 01.021-.238c.064-.348-.06-.478-.32-.331-.128.072-.235.072-.235.001 0-.104.21-.403.3-.425.092-.023.294.047.627.22l.202.105.022.281c.012.155.033.623.046 1.04.014.417.036.853.05.968.024.192.035.211.131.223a.49.49 0 00.23-.053l.126-.064-.034-.858c-.052-1.287-.04-1.92.046-2.494.033-.217.006-.308-.159-.545-.116-.167-.138-.232-.138-.407v-.209l.147-.024a2.39 2.39 0 01.314-.024h.166v-.489c0-.393.014-.51.068-.601.067-.112.067-.117-.068-.364a1.38 1.38 0 00-.156-.25c-.011 0-.08.113-.155.252-.133.247-.134.254-.069.364a.722.722 0 01.067.348v.236h-.392v-.236a.72.72 0 01.068-.35c.066-.11.065-.117-.056-.334-.069-.122-.142-.227-.163-.233-.02-.008-.1.096-.176.228l-.137.242.075.095c.057.071.076.157.076.341v.247h-.392v-.267c0-.19.017-.28.059-.314.085-.07.074-.125-.084-.39l-.142-.24-.132.227c-.154.268-.158.3-.054.431.07.087.079.157.079.597v.498h.627v.146c0 .144-.003.146-.206.193a2.3 2.3 0 00-.428.16c-.218.11-.222.11-.243.03-.012-.044-.018-.082-.013-.084.004-.001.074-.051.155-.11.141-.103.145-.11.092-.211a1.055 1.055 0 00-.202-.232l-.146-.127.02-.512c.014-.346.04-.56.084-.662.089-.209.085-.218-.107-.218h-.17l-.07-.251c-.037-.139-.083-.252-.102-.252-.018 0-.09.104-.162.232l-.128.232h-.493l-.16-.251a2.887 2.887 0 00-.17-.252c-.005 0-.066.158-.136.35zm-8.152.683c.417.114.762.356 1.021.717.228.318.319.579.341.983a1.798 1.798 0 01-.574 1.463 1.908 1.908 0 01-2.894-.297 1.727 1.727 0 01-.322-1.052c0-1.273 1.18-2.154 2.428-1.814zm19.483.01c.47.18.91.615 1.092 1.08.13.33.148.888.041 1.235a1.863 1.863 0 01-1.692 1.318c-.586.035-1.011-.115-1.432-.503-.435-.4-.63-.896-.595-1.51.018-.305.04-.383.18-.662a1.899 1.899 0 011.1-.982c.225-.08.312-.09.67-.078.306.01.468.037.636.101zm-10.924.025a.25.25 0 01.062.155c0 .072-.021.094-.09.094-.12 0-.184-.07-.184-.201 0-.126.109-.15.212-.048zm.788-.02c.014.023.004.092-.022.155-.034.081-.075.114-.14.114-.091 0-.112-.034-.095-.155.02-.135.195-.213.257-.114zm9.206.064a1.733 1.733 0 00-1.319.962c-.322.68-.195 1.412.337 1.937 1 .988 2.692.455 2.931-.923.195-1.123-.796-2.128-1.949-1.976zm-19.732.14a1.49 1.49 0 00-.609.423c-.517.554-.625 1.311-.283 1.975.133.258.476.584.768.73.258.13.27.132.773.132.486 0 .523-.006.746-.114.304-.146.68-.516.816-.803a1.843 1.843 0 000-1.497c-.137-.287-.512-.657-.816-.803-.214-.104-.276-.115-.705-.124-.42-.01-.493-.001-.69.08zm20.378.154c.312.105.115.422-.297.477-.583.079-.917-.021-.917-.274 0-.047.271-.183.45-.226.154-.036.63-.022.764.023zm-19.13.102c.144.062.206.112.206.162 0 .094-.127.219-.255.25-.162.041-.773-.002-.9-.063-.153-.074-.251-.244-.193-.335.064-.1.193-.125.584-.113.265.008.404.032.559.1zm19.81.29c.162.155.182.193.182.344 0 .167-.12.41-.218.441-.023.008-.092-.113-.153-.268a6.789 6.789 0 00-.178-.417.475.475 0 01-.049-.26c.019-.123.021-.124.127-.07.06.03.19.134.29.23zm-21.082-.123a.472.472 0 01-.049.262 6.778 6.778 0 00-.178.417c-.06.155-.128.276-.15.268-.16-.052-.274-.458-.178-.636.05-.093.452-.437.51-.437.014 0 .034.057.045.126zm19.11.107c.023.042.125.119.226.17.102.05.218.128.258.172.104.114.258.558.286.824l.024.228h-.157c-.47 0-.948-.367-1.09-.835-.05-.161-.047-.174.067-.334.126-.177.255-.303.31-.303.018 0 .053.035.076.078zm-17.4-.002c.038.02.136.132.218.25l.148.212-.119.25a1.658 1.658 0 01-.282.407c-.188.181-.536.325-.742.308l-.14-.012.005-.199c.006-.235.143-.665.258-.81a.75.75 0 01.25-.173.615.615 0 00.233-.17c.075-.113.076-.114.17-.063zm8.74.197c0 .107-.146.384-.217.411-.032.012-.087-.002-.122-.03-.084-.07-.22-.372-.189-.422.013-.02.137-.038.276-.038.228 0 .253.008.253.079zm10.145.004c.043.045.134.233.202.416.107.287.127.399.142.798.024.645-.019.78-.294.917-.203.102-.58.177-.687.136-.046-.017-.045-.064.002-.304.083-.417.048-1.12-.077-1.534-.068-.226-.083-.329-.053-.349.04-.025.53-.147.64-.158.026-.003.082.032.125.078zm-20.018.038c.14.024.265.06.279.08.013.021-.02.18-.073.354-.129.425-.164 1.165-.073 1.548.035.145.063.271.063.28 0 .033-.294.017-.45-.023-.27-.069-.447-.16-.517-.265-.097-.146-.122-.909-.04-1.225.15-.576.313-.858.473-.816.046.013.198.043.338.067zm20.907.52a1.8 1.8 0 01.007.38c-.02.31-.14.613-.33.831l-.112.13.006-.564.007-.563.13-.156c.152-.18.256-.201.292-.057zm-22.012.094l.129.154.008.563.008.564-.107-.127a1.397 1.397 0 01-.335-.824c-.033-.509.06-.612.297-.33zm19.183-.008c.07.136.402.445.57.53.104.054.566.172.68.175.04 0-.003.353-.076.612-.079.284-.17.321-.46.19-.49-.222-.84-.71-.877-1.225-.028-.387.043-.51.163-.282zm-16.492.267c-.001.27-.018.343-.129.565-.16.32-.47.611-.773.723-.279.103-.35.07-.425-.202-.056-.202-.117-.609-.091-.609.098 0 .504-.099.637-.155.199-.084.49-.336.61-.529.126-.202.172-.146.17.207zm9.581.226c.127.065.196.166.196.287 0 .106-.088.103-.337-.012-.27-.124-.302-.23-.095-.306.093-.034.115-.031.236.031zm-1.332.3c.143.097.226.205.186.245-.044.043-.214-.017-.34-.123-.228-.189-.098-.292.154-.122zm-7.582 1.502c.273.103.654.458 1.185 1.105 1.25 1.522 3.092 2.533 5.146 2.825.404.057.47.078.682.218l.235.155-.4-.024a8.633 8.633 0 01-3.555-1.035c-.994-.554-1.725-1.164-2.496-2.084-.669-.798-.842-.906-1.418-.884-.295.01-.398.032-.579.12-.715.347-.945.922-.66 1.652.316.808 1.089 1.78 2.095 2.634a11.34 11.34 0 004.82 2.381c.88.194 1.294.233 2.448.233.918 0 1.159-.014 1.626-.086 1.678-.262 3.162-.823 4.515-1.708 1.687-1.103 3.035-2.644 3.287-3.756.054-.238.057-.319.017-.492-.125-.552-.752-.995-1.413-.996-.507-.001-.723.142-1.344.894-1.368 1.655-3.125 2.676-5.208 3.027-.48.08-1.206.145-1.206.107 0-.012.102-.083.226-.157.17-.101.302-.146.538-.18 1.5-.215 2.854-.764 3.997-1.62.376-.282 1.014-.917 1.45-1.445.521-.629.762-.825 1.156-.94.747-.22 1.694.201 2.054.913.122.24.14.31.14.563 0 .515-.298 1.188-.852 1.928-.31.413-1.303 1.41-1.774 1.777-1.162.91-2.791 1.736-4.212 2.135a12.82 12.82 0 01-1.847.352c-.675.078-2.09.056-2.717-.042a12.17 12.17 0 01-6.06-2.776c-1.366-1.157-2.313-2.637-2.235-3.49.054-.589.616-1.167 1.325-1.363.29-.08.734-.055 1.034.058zm2.085 3.1c.117.067.221.142.231.168.01.025-.136.331-.324.68-.277.514-.344.672-.359.84-.02.239.037.33.247.4.272.088.389-.041.902-.998.15-.281.286-.512.3-.512.015 0 .133.062.263.138l.237.14-.111.2c-.061.109-.209.382-.329.605-.283.53-.417.708-.596.792-.317.149-.858-.005-1.193-.34-.226-.225-.29-.38-.265-.65.017-.187.08-.332.387-.903.202-.373.373-.68.381-.68.008 0 .111.054.229.12zm11.246.14c.278.128.512.513.548.902.029.31-.067.572-.297.814-.184.194-1 .716-1.061.678-.036-.021-1.021-1.77-1.021-1.812 0-.029.56-.362.866-.515.35-.176.679-.198.965-.067zm-.964.419c-.17.078-.207.11-.19.172.034.131.67 1.24.71 1.24.077 0 .339-.208.415-.33.144-.23.091-.515-.168-.9-.197-.293-.414-.345-.767-.183zm-1.341.527c.023.067.043.127.043.133 0 .006-.11.047-.245.091-.378.126-.368.111-.288.403l.07.251.277-.093c.153-.051.29-.093.306-.093.04 0 .118.234.092.275-.012.019-.037.035-.057.035-.02 0-.133.035-.252.08-.175.064-.217.097-.217.167 0 .09.11.45.152.495.014.015.182-.024.375-.085.193-.062.354-.109.359-.104.004.004.025.073.047.152l.04.145-.624.201c-.374.12-.638.187-.657.166-.042-.047-.64-1.958-.62-1.978.029-.029 1.024-.357 1.09-.36.04-.001.083.046.109.12zm-6.684.046l.15.045.303.736c.333.81.376.898.406.847.012-.018.094-.312.184-.651.09-.34.166-.623.172-.628.005-.005.119.019.254.052.191.048.24.075.226.124-.01.034-.128.49-.261 1.011-.134.522-.25.956-.257.965-.008.009-.11-.007-.226-.034l-.213-.05-.233-.567a71.46 71.46 0 01-.344-.847c-.067-.17-.122-.262-.138-.233-.015.028-.1.328-.19.668s-.17.626-.18.635c-.025.025-.444-.071-.466-.107-.01-.016.094-.464.233-.995a38.1 38.1 0 00.253-.993c.001-.042.152-.031.327.022zm5.034.498l.012.143-.24.027c-.158.018-.249.047-.263.085-.013.031.026.421.085.866.06.445.099.833.088.862-.02.048-.478.133-.516.095a15.19 15.19 0 01-.136-.862 13.975 13.975 0 00-.143-.881c-.011-.018-.059-.025-.106-.015-.047.01-.168.028-.267.04l-.182.023-.017-.14c-.009-.076 0-.148.019-.16.05-.03 1.48-.242 1.576-.233.06.006.08.04.09.15zm-2.269.096l.094.025-.026.681c-.014.375-.037.843-.05 1.04l-.025.358h-.582l.021-.203c.012-.112.031-.456.043-.765.012-.309.033-.697.046-.862l.023-.3h.181c.1.001.224.012.275.026zm-1.534 3.017c.06.012.089.046.089.106 0 .049.021.11.048.137.039.038.038.054-.005.08-.097.06-.433.084-.587.043-.225-.06-.488-.278-.612-.508l-.055-.1.517.112.605.13zm4.872-.086c-.127.203-.372.403-.553.451-.162.043-.57.018-.605-.037-.01-.016 0-.092.022-.17.026-.095.067-.148.125-.162.335-.082 1.069-.237 1.08-.227.009.006-.023.071-.069.145zm-2.965.258c.136 0 .17.017.226.113a.27.27 0 00.205.14c.077.014.14.04.14.057 0 .074-.345.193-.562.193-.287 0-.44-.065-.623-.266-.23-.252-.207-.293.153-.263.165.014.372.026.46.026z" fill="#C90808"/>
</svg>
