<svg xmlns="http://www.w3.org/2000/svg" fill="none" viewBox="0 0 125 36">
  <path d="M123.922 31.848c0 1.919-1.586 3.473-3.548 3.473H4.244c-1.96 0-3.553-1.554-3.553-3.473V4.156C.691 2.24 2.283.68 4.245.68h116.128c1.963 0 3.548 1.56 3.548 3.477l.001 27.692z" fill="#000"/>
  <path d="M120 .721c2.137 0 3.876 1.696 3.876 3.779v27c0 2.084-1.739 3.779-3.876 3.779H4.615C2.478 35.279.74 33.583.74 31.5v-27C.74 2.417 2.478.721 4.615.721H120zM120 0H4.615C2.078 0 0 2.026 0 4.5v27C0 33.974 2.078 36 4.615 36H120c2.537 0 4.615-2.026 4.615-4.5v-27c0-2.474-2.078-4.5-4.615-4.5z" fill="#A6A6A6"/>
  <path d="M27.811 17.805c-.027-2.9 2.436-4.311 2.549-4.377-1.395-1.983-3.557-2.254-4.316-2.275-1.816-.187-3.578 1.059-4.502 1.059-.944 0-2.368-1.041-3.903-1.01-1.975.029-3.823 1.144-4.837 2.876-2.092 3.53-.532 8.719 1.472 11.573 1.003 1.398 2.174 2.958 3.707 2.903 1.5-.06 2.06-.932 3.87-.932 1.794 0 2.32.932 3.884.897 1.61-.025 2.623-1.404 3.59-2.814 1.16-1.602 1.625-3.18 1.643-3.26-.038-.014-3.126-1.163-3.157-4.64zm-2.954-8.53c.807-.983 1.36-2.322 1.206-3.68-1.168.05-2.628.788-3.47 1.75-.743.848-1.408 2.237-1.236 3.544 1.312.095 2.659-.645 3.5-1.614zM49.52 28.354h-2.097l-1.148-3.518h-3.992l-1.094 3.518h-2.04l3.954-11.978h2.442l3.974 11.978zm-3.592-4.994l-1.038-3.128c-.11-.32-.316-1.072-.62-2.256h-.036c-.121.51-.316 1.262-.584 2.256l-1.02 3.128h3.298zm13.76.57c0 1.468-.407 2.629-1.22 3.481-.73.759-1.636 1.138-2.717 1.138-1.166 0-2.005-.409-2.515-1.226h-.037v4.55h-1.968V22.56c0-.923-.025-1.87-.073-2.843h1.731l.11 1.37h.037c.656-1.032 1.652-1.547 2.989-1.547 1.045 0 1.917.402 2.615 1.208.7.806 1.048 1.866 1.048 3.181zm-2.005.07c0-.841-.193-1.534-.583-2.08-.425-.568-.997-.853-1.713-.853-.486 0-.927.159-1.321.47a2.176 2.176 0 00-.775 1.237c-.06.237-.091.432-.091.585v1.44c0 .628.198 1.158.593 1.59.395.434.908.65 1.54.65.74 0 1.318-.28 1.73-.836.414-.557.62-1.291.62-2.204zm12.194-.07c0 1.468-.407 2.629-1.222 3.481-.729.759-1.634 1.138-2.715 1.138-1.167 0-2.005-.409-2.514-1.226h-.037v4.55H61.42V22.56c0-.923-.025-1.87-.073-2.843h1.73l.11 1.37h.037c.656-1.032 1.652-1.547 2.99-1.547 1.043 0 1.915.402 2.615 1.208.697.806 1.047 1.866 1.047 3.181zm-2.005.07c0-.841-.195-1.534-.584-2.08-.426-.568-.995-.853-1.713-.853a2.09 2.09 0 00-1.322.47 2.174 2.174 0 00-.773 1.237c-.06.237-.091.432-.091.585v1.44c0 .628.197 1.158.59 1.59.395.433.909.65 1.542.65.741 0 1.318-.28 1.73-.836.414-.557.621-1.291.621-2.204zm13.395.995c0 1.019-.362 1.848-1.09 2.487-.801.7-1.915 1.049-3.347 1.049-1.322 0-2.381-.248-3.183-.746l.456-1.6a5.5 5.5 0 002.844.766c.742 0 1.319-.164 1.733-.49.413-.326.618-.763.618-1.309 0-.486-.17-.895-.51-1.227-.339-.332-.905-.641-1.695-.926-2.15-.782-3.225-1.928-3.225-3.435 0-.984.377-1.792 1.13-2.42.752-.629 1.755-.943 3.008-.943 1.118 0 2.047.19 2.788.569l-.492 1.564c-.692-.367-1.475-.55-2.351-.55-.692 0-1.233.166-1.621.497a1.406 1.406 0 00-.492 1.084c0 .474.187.865.564 1.173.328.284.923.592 1.787.924 1.057.415 1.833.9 2.333 1.457.497.554.745 1.248.745 2.076zm6.506-3.838h-2.169v4.193c0 1.067.382 1.6 1.148 1.6.352 0 .644-.03.875-.09l.054 1.458c-.388.14-.898.212-1.53.212-.778 0-1.385-.231-1.823-.693-.437-.463-.657-1.238-.657-2.328v-4.354H82.38v-1.44h1.292v-1.58l1.933-.57v2.15h2.17v1.442zm9.787 2.807c0 1.328-.389 2.418-1.166 3.27-.815.877-1.897 1.315-3.246 1.315-1.3 0-2.334-.42-3.106-1.261-.771-.84-1.157-1.902-1.157-3.18 0-1.339.397-2.435 1.193-3.287.795-.854 1.868-1.28 3.216-1.28 1.3 0 2.346.42 3.135 1.262.755.816 1.132 1.87 1.132 3.161zm-2.041.062c0-.796-.175-1.48-.528-2.049-.413-.69-1.002-1.033-1.767-1.033-.79 0-1.392.345-1.805 1.033-.353.57-.528 1.265-.528 2.085 0 .797.175 1.48.528 2.049.426.69 1.02 1.033 1.788 1.033.751 0 1.34-.351 1.766-1.051.363-.58.546-1.271.546-2.067zm8.439-2.621a3.508 3.508 0 00-.62-.053c-.693 0-1.228.254-1.605.765-.327.45-.492 1.018-.492 1.705v4.532h-1.967l.019-5.917c0-.995-.025-1.902-.074-2.719h1.714l.072 1.652h.054a2.962 2.962 0 01.984-1.367 2.422 2.422 0 011.423-.463c.182 0 .346.012.492.035v1.83zm8.803 2.222c0 .344-.023.633-.072.87h-5.904c.023.853.308 1.506.856 1.956.498.402 1.141.604 1.931.604.875 0 1.672-.136 2.389-.409l.309 1.332c-.839.357-1.828.534-2.97.534-1.373 0-2.452-.394-3.236-1.182-.783-.787-1.175-1.845-1.175-3.172 0-1.302.364-2.386 1.094-3.251.765-.924 1.798-1.385 3.097-1.385 1.277 0 2.243.461 2.9 1.385.519.733.781 1.64.781 2.718zm-1.877-.498c.013-.569-.115-1.06-.382-1.475-.341-.534-.864-.8-1.568-.8-.644 0-1.167.26-1.567.782-.328.415-.522.913-.582 1.492h4.099v.001zM45.277 9.008c0 1.06-.326 1.857-.977 2.392-.602.494-1.459.742-2.569.742-.55 0-1.02-.024-1.415-.07V6.284a10.705 10.705 0 011.667-.123c1.056 0 1.853.225 2.39.673.602.506.904 1.23.904 2.174zm-1.02.026c0-.686-.186-1.213-.56-1.58-.372-.366-.917-.55-1.634-.55-.305 0-.564.02-.78.061v4.4c.12.018.338.026.654.026.74 0 1.312-.2 1.715-.602.402-.401.605-.986.605-1.755zm6.429.899c0 .653-.191 1.187-.574 1.607-.4.43-.93.646-1.594.646-.639 0-1.147-.206-1.526-.62-.379-.413-.568-.934-.568-1.563 0-.657.195-1.196.586-1.614.391-.419.918-.628 1.58-.628.64 0 1.152.206 1.54.619.37.401.556.92.556 1.553zm-1.004.03c0-.39-.087-.726-.26-1.006-.202-.339-.491-.508-.867-.508-.388 0-.684.17-.887.508-.173.28-.26.62-.26 1.024 0 .391.087.727.26 1.007.21.338.501.508.878.508.37 0 .66-.172.868-.517.179-.285.268-.624.268-1.015zm8.255-2.116l-1.361 4.243h-.886l-.564-1.843a13.44 13.44 0 01-.35-1.37h-.018c-.084.466-.2.922-.35 1.37l-.599 1.843h-.896l-1.28-4.243h.994l.492 2.017c.119.477.217.931.295 1.362h.018c.072-.355.191-.807.359-1.353l.617-2.025h.789l.591 1.982c.144.483.26.948.35 1.397h.026c.066-.437.164-.902.296-1.397l.528-1.982h.95zm5.016 4.243h-.968V9.66c0-.75-.291-1.123-.877-1.123a.883.883 0 00-.698.308 1.08 1.08 0 00-.269.727v2.517h-.967v-3.03c0-.372-.012-.776-.035-1.214h.85l.045.664h.027c.112-.207.28-.377.501-.513a1.67 1.67 0 01.877-.238c.406 0 .744.128 1.013.384.334.314.5.783.5 1.406v2.542zm2.667 0h-.966V5.9h.967v6.19zm5.695-2.157c0 .653-.191 1.187-.574 1.607-.4.43-.932.646-1.594.646-.64 0-1.148-.206-1.527-.62-.378-.413-.567-.934-.567-1.563 0-.657.195-1.196.586-1.614.391-.419.917-.628 1.58-.628.639 0 1.151.206 1.54.619.37.401.556.92.556 1.553zm-1.005.03c0-.39-.087-.726-.26-1.006-.201-.339-.491-.508-.866-.508-.39 0-.685.17-.887.508-.173.28-.26.62-.26 1.024 0 .391.087.727.26 1.007.21.338.501.508.878.508.37 0 .658-.172.867-.517.18-.285.268-.624.268-1.015zm5.686 2.127h-.868l-.073-.49h-.026c-.297.39-.721.586-1.271.586-.411 0-.743-.129-.994-.384a1.189 1.189 0 01-.34-.864c0-.519.221-.914.667-1.187.445-.274 1.071-.408 1.877-.402v-.08c0-.558-.301-.837-.904-.837-.43 0-.808.105-1.134.314l-.197-.619c.404-.244.904-.366 1.493-.366 1.137 0 1.707.585 1.707 1.755v1.562c0 .424.022.761.063 1.012zm-1.004-1.458v-.655c-1.067-.018-1.6.268-1.6.855 0 .222.06.387.185.498.124.11.283.166.472.166a.99.99 0 00.592-.197.802.802 0 00.35-.667zm6.502 1.458h-.859l-.045-.682h-.027c-.274.519-.741.778-1.397.778-.525 0-.961-.2-1.307-.602-.346-.402-.52-.923-.52-1.563 0-.686.188-1.242.565-1.667a1.754 1.754 0 011.343-.594c.584 0 .993.192 1.226.576h.018V5.9h.969v5.047c0 .413.01.794.034 1.143zM80.49 10.3v-.707a1.4 1.4 0 00-.026-.297 1.07 1.07 0 00-.35-.571.965.965 0 00-.647-.232 1 1 0 00-.852.42c-.205.28-.31.637-.31 1.073 0 .42.1.76.297 1.022.21.279.493.418.846.418a.942.942 0 00.764-.349c.187-.215.278-.474.278-.777zm9.278-.367c0 .653-.191 1.187-.573 1.607-.401.43-.931.646-1.595.646-.637 0-1.146-.206-1.526-.62-.379-.413-.568-.934-.568-1.563 0-.657.195-1.196.586-1.614.391-.419.918-.628 1.581-.628.638 0 1.152.206 1.54.619.37.401.555.92.555 1.553zm-1.003.03c0-.39-.087-.726-.26-1.006-.203-.339-.491-.508-.868-.508-.387 0-.683.17-.887.508-.173.28-.26.62-.26 1.024 0 .391.088.727.26 1.007.21.338.501.508.878.508.37 0 .66-.172.869-.517.178-.285.268-.624.268-1.015zm6.205 2.127h-.967V9.66c0-.75-.292-1.123-.878-1.123a.88.88 0 00-.698.308c-.179.206-.268.45-.268.727v2.517h-.969v-3.03c0-.372-.01-.776-.034-1.214h.85l.045.664h.026c.114-.207.282-.377.502-.513a1.67 1.67 0 01.878-.238c.405 0 .743.128 1.011.384.335.314.501.783.501 1.406v2.542zm6.51-3.536h-1.065v2.06c0 .524.189.786.564.786.174 0 .318-.014.431-.044l.025.716c-.191.07-.442.105-.751.105-.383 0-.68-.113-.895-.34-.216-.227-.323-.609-.323-1.144v-2.14h-.636v-.706h.636V7.07l.948-.28v1.056h1.065v.708h.001zm5.121 3.536h-.968V9.678c0-.76-.292-1.141-.876-1.141-.449 0-.755.22-.923.661a1.145 1.145 0 00-.045.34v2.55h-.967V5.9h.967v2.557h.018c.305-.465.741-.697 1.307-.697.401 0 .732.128.995.384.328.32.492.795.492 1.423v2.523zm5.283-2.322c0 .169-.013.311-.036.427h-2.901c.013.42.151.74.42.96.246.199.562.298.95.298.429 0 .82-.067 1.173-.201l.151.655c-.412.175-.898.262-1.46.262-.674 0-1.204-.194-1.588-.58-.386-.388-.577-.907-.577-1.559 0-.64.178-1.172.537-1.597.375-.454.881-.68 1.521-.68.626 0 1.101.226 1.423.68.259.36.387.805.387 1.335zm-.923-.244a1.241 1.241 0 00-.187-.725c-.168-.262-.424-.393-.77-.393a.926.926 0 00-.77.384 1.4 1.4 0 00-.287.734h2.014z" fill="#fff"/>
</svg>
