<svg xmlns="http://www.w3.org/2000/svg" fill="none" viewBox="0 0 292 222">
  <g filter="url(#MThuVIbBba)">
    <path d="M8 14a8 8 0 018-8h260a8 8 0 018 8v208H8V14z" fill="#fff"/>
    <rect x="32" y="62" width="228" height="56" rx="8" fill="#FAFAFA"/>
    <rect x="44" y="74" width="32" height="32" rx="16" fill="#F23434" fill-opacity=".2"/>
    <path d="M66.25 90v7.5h-12V90m13.5-3.75h-15V90h15v-3.75zm-7.5 11.25V86.25m0 0h-3.375a1.875 1.875 0 110-3.75c2.625 0 3.375 3.75 3.375 3.75zm0 0h3.375a1.875 1.875 0 100-3.75c-2.625 0-3.375 3.75-3.375 3.75z" stroke="#DF2626" stroke-width="1.5" stroke-linecap="round" stroke-linejoin="round"/>
    <path d="M85.119 85h1.536v-3.853h2.188L90.91 85h1.75l-2.257-4.121c1.248-.463 1.87-1.502 1.87-2.87 0-1.873-1.164-3.19-3.525-3.19h-3.63V85zm1.536-5.175v-3.69h1.929c1.516 0 2.143.721 2.143 1.875 0 1.148-.627 1.815-2.123 1.815h-1.95zm10.563 5.33c1.666 0 2.844-.821 3.182-2.064l-1.407-.254c-.268.721-.915 1.09-1.76 1.09-1.273 0-2.128-.826-2.168-2.298h5.429v-.527c0-2.759-1.65-3.838-3.38-3.838-2.128 0-3.53 1.62-3.53 3.968 0 2.371 1.382 3.922 3.634 3.922zm-2.148-4.64c.06-1.083.846-2.023 2.054-2.023 1.153 0 1.909.855 1.914 2.024H95.07zm10.708-3.151h-1.646v-.686c0-.677.279-1.044 1.005-1.044.308 0 .527.07.666.114l.348-1.203a3.567 3.567 0 00-1.243-.204c-1.208 0-2.267.706-2.267 2.138v.885h-1.178v1.193h1.178V85h1.491v-6.443h1.646v-1.193zm4.524 7.79c1.666 0 2.844-.82 3.182-2.063l-1.407-.254c-.268.721-.915 1.09-1.76 1.09-1.273 0-2.128-.826-2.167-2.298h5.428v-.527c0-2.759-1.65-3.838-3.38-3.838-2.128 0-3.53 1.62-3.53 3.968 0 2.371 1.382 3.922 3.634 3.922zm-2.148-4.638c.06-1.084.846-2.024 2.054-2.024 1.153 0 1.909.855 1.914 2.024h-3.968zM115.228 85h1.486v-4.663c0-1 .771-1.72 1.825-1.72a3.5 3.5 0 01.775.089v-1.422a6.023 6.023 0 00-.631-.035c-.895 0-1.66.507-1.939 1.328h-.079v-1.213h-1.437V85zm5.373 0h1.486v-4.663c0-1 .771-1.72 1.825-1.72.308 0 .656.054.776.089v-1.422a6.058 6.058 0 00-.632-.035c-.895 0-1.66.507-1.939 1.328h-.079v-1.213h-1.437V85zm7.527.169c1.263 0 1.974-.641 2.257-1.213h.06V85h1.451v-5.071c0-2.222-1.75-2.665-2.963-2.665-1.382 0-2.655.557-3.152 1.95l1.397.317c.219-.542.776-1.064 1.775-1.064.96 0 1.452.502 1.452 1.368v.034c0 .542-.557.532-1.929.691-1.447.17-2.928.547-2.928 2.282 0 1.502 1.128 2.327 2.58 2.327zm.323-1.193c-.84 0-1.447-.378-1.447-1.114 0-.795.706-1.079 1.566-1.193.483-.065 1.626-.194 1.84-.408v.985c0 .905-.721 1.73-1.959 1.73zm6.912-9.158h-1.487V85h1.487V74.818z" fill="#181818"/>
    <path d="M84.676 95.912h3.202V105h1.233v-9.088h3.201v-1.094h-7.636v1.094zm11.375 9.247c2.068 0 3.46-1.571 3.46-3.937 0-2.387-1.392-3.958-3.46-3.958s-3.46 1.571-3.46 3.958c0 2.366 1.392 3.937 3.46 3.937zm0-1.054c-1.57 0-2.287-1.352-2.287-2.883 0-1.532.716-2.904 2.287-2.904s2.287 1.372 2.287 2.904c0 1.531-.716 2.883-2.287 2.883zm8.135 1.054c1.471 0 1.969-.915 2.227-1.332h.139V105h1.134V94.818h-1.173v3.759h-.1c-.258-.398-.716-1.313-2.207-1.313-1.929 0-3.262 1.532-3.262 3.938 0 2.426 1.333 3.957 3.242 3.957zm.159-1.054c-1.472 0-2.227-1.293-2.227-2.923 0-1.611.736-2.864 2.227-2.864 1.432 0 2.187 1.154 2.187 2.864 0 1.73-.775 2.923-2.187 2.923zm7.9 1.074c1.332 0 2.028-.716 2.267-1.213h.06V105h1.173v-5.031c0-2.426-1.85-2.705-2.824-2.705-1.153 0-2.466.398-3.063 1.79l1.114.398c.259-.557.87-1.154 1.989-1.154 1.079 0 1.611.572 1.611 1.551v.04c0 .567-.577.517-1.969.696-1.417.184-2.963.497-2.963 2.247 0 1.492 1.153 2.347 2.605 2.347zm.179-1.054c-.935 0-1.611-.418-1.611-1.233 0-.895.815-1.173 1.73-1.293.497-.059 1.83-.198 2.029-.437v1.074c0 .954-.756 1.889-2.148 1.889zm5.945 3.739c1.059 0 1.804-.562 2.247-1.75l3.251-8.73-1.282-.02-2.108 6.085h-.08l-2.108-6.085h-1.273l2.824 7.676-.219.596c-.427 1.164-.954 1.273-1.809 1.054l-.299 1.034c.12.06.458.14.856.14z" fill="#767676"/>
    <path d="M168.928 93.37h1.561v-2.66h2.659v-1.562h-2.659v-2.66h-1.561v2.66h-2.66v1.562h2.66v2.66zm10.538-8.552h-1.755l-2.53 1.626v1.69l2.381-1.521h.06V95h1.844V84.818zm6.349 10.376c2.456.005 3.922-1.934 3.922-5.275 0-3.321-1.476-5.24-3.922-5.24s-3.918 1.914-3.923 5.24c0 3.336 1.467 5.275 3.923 5.275zm0-1.556c-1.268 0-2.063-1.273-2.058-3.719.005-2.426.795-3.704 2.058-3.704 1.268 0 2.058 1.278 2.063 3.704 0 2.446-.79 3.719-2.063 3.719zm7.311-.03h-1.591l-.035.557c-.085 1.347-.438 2.72-.582 3.32h1.213c.239-.626.791-2.077.93-3.33l.065-.547zm5.363 1.586c2.456.005 3.922-1.934 3.922-5.275 0-3.321-1.476-5.24-3.922-5.24s-3.918 1.914-3.923 5.24c0 3.336 1.467 5.275 3.923 5.275zm0-1.556c-1.268 0-2.064-1.273-2.059-3.719.005-2.426.796-3.704 2.059-3.704 1.267 0 2.058 1.278 2.063 3.704 0 2.446-.791 3.719-2.063 3.719zm9.338 1.556c2.455.005 3.922-1.934 3.922-5.275 0-3.321-1.476-5.24-3.922-5.24s-3.918 1.914-3.923 5.24c0 3.336 1.467 5.275 3.923 5.275zm0-1.556c-1.268 0-2.064-1.273-2.059-3.719.005-2.426.796-3.704 2.059-3.704 1.267 0 2.058 1.278 2.063 3.704 0 2.446-.791 3.719-2.063 3.719zm9.337 1.556c2.456.005 3.923-1.934 3.923-5.275 0-3.321-1.477-5.24-3.923-5.24-2.446 0-3.917 1.914-3.922 5.24 0 3.336 1.466 5.275 3.922 5.275zm0-1.556c-1.267 0-2.063-1.273-2.058-3.719.005-2.426.796-3.704 2.058-3.704 1.268 0 2.059 1.278 2.064 3.704 0 2.446-.791 3.719-2.064 3.719zM226.311 95h1.844v-3.44h1.949c2.352 0 3.615-1.412 3.615-3.371 0-1.944-1.248-3.37-3.59-3.37h-3.818V95zm1.844-4.957V86.36h1.691c1.382 0 1.993.746 1.993 1.83s-.611 1.854-1.983 1.854h-1.701zm10.899-2.68h-1.506v-1.829h-1.8v1.83h-1.084v1.392h1.084V93c-.01 1.437 1.034 2.143 2.387 2.103a3.616 3.616 0 001.059-.179l-.304-1.406a2.28 2.28 0 01-.527.07c-.452 0-.815-.16-.815-.886v-3.947h1.506v-1.392zm7.432 2.02c-.249-1.293-1.283-2.119-3.073-2.119-1.839 0-3.092.905-3.087 2.317-.005 1.114.681 1.85 2.148 2.153l1.302.273c.701.154 1.029.438 1.029.87 0 .522-.567.915-1.422.915-.825 0-1.362-.358-1.516-1.044l-1.755.169c.224 1.402 1.402 2.232 3.276 2.232 1.909 0 3.257-.99 3.262-2.436-.005-1.089-.706-1.755-2.148-2.068l-1.303-.278c-.775-.175-1.083-.443-1.078-.886-.005-.516.566-.874 1.317-.874.83 0 1.268.452 1.407.954l1.641-.179z" fill="#181818"/>
    <rect x="30" y="134" width="228" height="56" rx="8" fill="#FAFAFA"/>
    <rect x="42" y="146" width="32" height="32" rx="16" fill="#2898FF" fill-opacity=".2"/>
    <path fill-rule="evenodd" clip-rule="evenodd" d="M55.258 155.8h4.884c.718 0 1.318 0 1.794.064.502.067.955.216 1.32.58.364.365.513.818.58 1.32.047.347.06.76.063 1.236.248.001.45.006.63.042a2.2 2.2 0 011.729 1.729c.042.214.042.456.042.77v.118c0 .314 0 .556-.042.77a2.2 2.2 0 01-1.729 1.729c-.189.037-.4.042-.662.042-.01.172-.022.335-.037.49-.073.71-.224 1.303-.57 1.821a3.812 3.812 0 01-1.049 1.049c-.518.346-1.111.497-1.821.57-.693.07-1.561.07-2.657.07h-.066c-1.096 0-1.964 0-2.657-.07-.71-.073-1.303-.224-1.821-.57a3.812 3.812 0 01-1.049-1.049c-.346-.518-.497-1.111-.57-1.821-.07-.693-.07-1.561-.07-2.657v-2.475c0-.718 0-1.318.064-1.794.068-.502.216-.955.58-1.32.365-.364.818-.513 1.32-.58.476-.064 1.076-.064 1.794-.064zm8.64 7.2c.244-.002.33-.006.397-.019a1 1 0 00.786-.786c.016-.082.019-.195.019-.595 0-.4-.003-.513-.02-.595a1 1 0 00-.785-.786 2.39 2.39 0 00-.395-.019v1.833c0 .344 0 .666-.002.967z" fill="#2898FF"/>
    <path d="M91.575 150.129c-.348-2.177-2.053-3.45-4.206-3.45-2.635 0-4.579 1.974-4.579 5.23 0 3.256 1.934 5.23 4.58 5.23 2.236 0 3.872-1.402 4.205-3.415l-1.55-.005c-.264 1.302-1.358 2.018-2.646 2.018-1.745 0-3.062-1.337-3.062-3.828 0-2.471 1.312-3.828 3.067-3.828 1.298 0 2.387.731 2.64 2.048h1.551zm4.936 7.025c2.153 0 3.559-1.576 3.559-3.937 0-2.377-1.406-3.953-3.56-3.953-2.152 0-3.559 1.576-3.559 3.953 0 2.361 1.407 3.937 3.56 3.937zm.005-1.248c-1.407 0-2.063-1.228-2.063-2.694 0-1.462.656-2.705 2.063-2.705 1.397 0 2.053 1.243 2.053 2.705 0 1.466-.656 2.694-2.053 2.694zm8.848-6.542h-1.646v-.686c0-.677.279-1.044 1.005-1.044.308 0 .527.069.666.114l.348-1.203a3.554 3.554 0 00-1.243-.204c-1.208 0-2.267.706-2.267 2.138v.885h-1.178v1.193h1.178V157h1.491v-6.443h1.646v-1.193zm5.168 0h-1.646v-.686c0-.677.279-1.044 1.005-1.044.308 0 .527.069.666.114l.348-1.203a3.559 3.559 0 00-1.243-.204c-1.208 0-2.267.706-2.267 2.138v.885h-1.178v1.193h1.178V157h1.491v-6.443h1.646v-1.193zm4.524 7.79c1.666 0 2.844-.82 3.182-2.063l-1.407-.254c-.269.721-.915 1.089-1.76 1.089-1.273 0-2.128-.825-2.168-2.297h5.429v-.527c0-2.759-1.65-3.838-3.38-3.838-2.128 0-3.53 1.621-3.53 3.968 0 2.371 1.382 3.922 3.634 3.922zm-2.148-4.638c.06-1.084.846-2.024 2.054-2.024 1.153 0 1.909.855 1.914 2.024h-3.968zm10.365 4.638c1.665 0 2.844-.82 3.182-2.063l-1.407-.254c-.269.721-.915 1.089-1.76 1.089-1.273 0-2.128-.825-2.168-2.297h5.429v-.527c0-2.759-1.65-3.838-3.38-3.838-2.128 0-3.53 1.621-3.53 3.968 0 2.371 1.382 3.922 3.634 3.922zm-2.148-4.638c.06-1.084.845-2.024 2.053-2.024 1.154 0 1.91.855 1.915 2.024h-3.968z" fill="#181818"/>
    <path d="M82.358 166.818l3.679 5.986V177h1.233v-4.196l3.679-5.986h-1.412l-2.824 4.753h-.12l-2.823-4.753h-1.412zm12.148 10.341c1.551 0 2.685-.775 3.043-1.929l-1.134-.318c-.298.795-.99 1.193-1.909 1.193-1.377 0-2.327-.89-2.381-2.525h5.543v-.498c0-2.843-1.69-3.818-3.281-3.818-2.069 0-3.44 1.631-3.44 3.977 0 2.347 1.352 3.918 3.559 3.918zm-2.381-4.594c.08-1.188.92-2.247 2.262-2.247 1.272 0 2.088.955 2.088 2.247h-4.35zm12.737-1.491c-.368-1.084-1.193-1.81-2.705-1.81-1.61 0-2.804.915-2.804 2.208 0 1.054.627 1.76 2.029 2.088l1.272.298c.771.179 1.134.547 1.134 1.074 0 .656-.696 1.193-1.79 1.193-.959 0-1.561-.413-1.77-1.233l-1.113.278c.273 1.298 1.342 1.989 2.903 1.989 1.775 0 2.983-.969 2.983-2.287 0-1.064-.666-1.735-2.028-2.068l-1.134-.278c-.905-.224-1.312-.527-1.312-1.114 0-.656.696-1.134 1.63-1.134 1.024 0 1.447.567 1.651 1.094l1.054-.298zm5.226-1.71h-1.63v-1.83h-1.174v1.83h-1.153v.994h1.153v4.773c0 1.332 1.074 1.968 2.068 1.968.438 0 .716-.079.875-.139l-.238-1.054c-.1.02-.259.06-.517.06-.517 0-1.014-.159-1.014-1.154v-4.454h1.63v-.994zm4.885 7.795c1.551 0 2.684-.775 3.042-1.929l-1.133-.318c-.298.795-.989 1.193-1.909 1.193-1.377 0-2.327-.89-2.382-2.525h5.544v-.498c0-2.843-1.691-3.818-3.281-3.818-2.069 0-3.441 1.631-3.441 3.977 0 2.347 1.352 3.918 3.56 3.918zm-2.382-4.594c.08-1.188.92-2.247 2.263-2.247 1.272 0 2.088.955 2.088 2.247h-4.351zM119.92 177h1.173v-4.832c0-1.034.815-1.79 1.929-1.79.313 0 .636.06.716.079v-1.193c-.134-.01-.443-.02-.617-.02-.915 0-1.71.517-1.988 1.273h-.08v-1.153h-1.133V177zm7.86.159c1.471 0 1.968-.915 2.227-1.332h.139V177h1.134v-10.182h-1.174v3.759h-.099c-.259-.398-.716-1.313-2.207-1.313-1.929 0-3.262 1.531-3.262 3.938 0 2.426 1.333 3.957 3.242 3.957zm.159-1.054c-1.472 0-2.228-1.293-2.228-2.923 0-1.611.736-2.864 2.228-2.864 1.432 0 2.187 1.154 2.187 2.864 0 1.73-.775 2.923-2.187 2.923zm7.9 1.074c1.332 0 2.028-.716 2.267-1.213h.059V177h1.174v-5.031c0-2.426-1.85-2.705-2.824-2.705-1.154 0-2.466.398-3.063 1.79l1.114.398c.258-.557.87-1.154 1.989-1.154 1.078 0 1.61.572 1.61 1.551v.04c0 .567-.576.517-1.968.696-1.417.184-2.964.497-2.964 2.247 0 1.492 1.154 2.347 2.606 2.347zm.179-1.054c-.935 0-1.611-.418-1.611-1.233 0-.895.815-1.173 1.73-1.293.497-.059 1.829-.198 2.028-.437v1.074c0 .954-.755 1.889-2.147 1.889zm5.944 3.739c1.059 0 1.805-.562 2.248-1.75l3.251-8.73-1.283-.02-2.108 6.085h-.079l-2.108-6.085h-1.273l2.824 7.676-.219.596c-.427 1.164-.954 1.273-1.809 1.054l-.299 1.034c.12.06.458.14.855.14z" fill="#767676"/>
    <path d="M198.928 165.369h1.561v-2.659h2.659v-1.562h-2.659v-2.659h-1.561v2.659h-2.66v1.562h2.66v2.659zm10.538-8.551h-1.755l-2.53 1.626v1.69l2.381-1.521h.06V167h1.844v-10.182zm6.125 10.321c2.153 0 3.654-1.461 3.654-3.485 0-1.959-1.362-3.371-3.211-3.371-.826 0-1.557.329-1.934.776h-.06l.293-2.7h4.38v-1.541h-5.906l-.532 5.25 1.666.274c.343-.378.989-.632 1.6-.627 1.119.005 1.924.83 1.919 1.984.005 1.138-.78 1.949-1.869 1.949-.92 0-1.66-.582-1.725-1.417h-1.79c.05 1.69 1.526 2.908 3.515 2.908zm8.892-.139h1.844v-3.44h1.949c2.352 0 3.614-1.412 3.614-3.371 0-1.944-1.247-3.371-3.589-3.371h-3.818V167zm1.844-4.957v-3.684h1.691c1.382 0 1.993.746 1.993 1.83s-.611 1.854-1.983 1.854h-1.701zm10.899-2.679h-1.506v-1.83h-1.8v1.83h-1.084v1.392h1.084v4.245c-.01 1.437 1.034 2.143 2.386 2.103a3.595 3.595 0 001.059-.179l-.303-1.407c-.099.025-.303.07-.527.07-.452 0-.815-.159-.815-.885v-3.947h1.506v-1.392zm7.431 2.018c-.248-1.293-1.282-2.118-3.072-2.118-1.839 0-3.092.905-3.087 2.317-.005 1.114.681 1.849 2.147 2.153l1.303.273c.701.154 1.029.438 1.029.87 0 .522-.567.915-1.422.915-.825 0-1.362-.358-1.516-1.044l-1.755.169c.224 1.402 1.402 2.232 3.276 2.232 1.909 0 3.257-.989 3.262-2.436-.005-1.089-.706-1.755-2.148-2.068l-1.303-.279c-.775-.174-1.084-.442-1.079-.884-.005-.518.567-.875 1.318-.875.83 0 1.268.452 1.407.954l1.64-.179z" fill="#181818"/>
    <path d="M36.559 47.14c2.178 0 3.763-1.249 3.759-2.969.004-1.273-.791-2.187-2.218-2.391v-.08c1.104-.238 1.845-1.059 1.84-2.202.005-1.551-1.318-2.819-3.351-2.819-1.979 0-3.51 1.178-3.55 2.883h1.775c.03-.855.825-1.387 1.765-1.387.95 0 1.58.577 1.576 1.432.005.89-.731 1.482-1.785 1.482h-.9v1.422h.9c1.288 0 2.053.646 2.048 1.566.005.9-.775 1.516-1.864 1.516-1.024 0-1.815-.532-1.86-1.362h-1.869c.05 1.72 1.586 2.908 3.734 2.908zm5.465-.14h6.98v-1.541H44.57v-.07l1.755-1.785c1.98-1.899 2.526-2.823 2.526-3.972 0-1.705-1.387-2.953-3.435-2.953-2.019 0-3.45 1.253-3.45 3.187h1.754c0-1.04.657-1.69 1.67-1.69.97 0 1.691.591 1.691 1.55 0 .85-.517 1.457-1.521 2.476l-3.535 3.466V47zm10.828-1.392h-1.59l-.036.557c-.084 1.347-.437 2.72-.581 3.32h1.213c.238-.626.79-2.077.93-3.33l.064-.547zm5.309 1.531c2.177 0 3.763-1.248 3.758-2.968.005-1.273-.79-2.187-2.217-2.391v-.08c1.103-.238 1.844-1.059 1.84-2.202.004-1.551-1.318-2.819-3.352-2.819-1.978 0-3.51 1.178-3.55 2.883h1.776c.03-.855.825-1.387 1.764-1.387.95 0 1.581.577 1.576 1.432.005.89-.73 1.482-1.784 1.482h-.9v1.422h.9c1.287 0 2.053.646 2.048 1.566.005.9-.776 1.516-1.864 1.516-1.025 0-1.815-.532-1.86-1.362h-1.87c.05 1.72 1.587 2.908 3.734 2.908zm9.228.055c2.456.005 3.923-1.934 3.923-5.275 0-3.321-1.477-5.24-3.923-5.24-2.446 0-3.918 1.914-3.923 5.24 0 3.336 1.467 5.275 3.923 5.275zm0-1.556c-1.268 0-2.063-1.273-2.058-3.719.005-2.426.795-3.704 2.058-3.704 1.268 0 2.058 1.278 2.063 3.704 0 2.446-.79 3.719-2.063 3.719zm9.338 1.556c2.456.005 3.922-1.934 3.922-5.275 0-3.321-1.476-5.24-3.922-5.24s-3.918 1.914-3.923 5.24c0 3.336 1.467 5.275 3.923 5.275zm0-1.556c-1.268 0-2.063-1.273-2.058-3.719.005-2.426.795-3.704 2.058-3.704 1.268 0 2.058 1.278 2.063 3.704 0 2.446-.79 3.719-2.063 3.719zM85.873 47h1.845v-3.44h1.949c2.351 0 3.614-1.412 3.614-3.371 0-1.944-1.248-3.37-3.59-3.37h-3.818V47zm1.845-4.957V38.36h1.69c1.382 0 1.994.746 1.994 1.83s-.612 1.854-1.984 1.854h-1.7zm10.307 5.106c2.237 0 3.659-1.576 3.659-3.937 0-2.367-1.422-3.948-3.659-3.948s-3.659 1.581-3.659 3.948c0 2.361 1.422 3.937 3.66 3.937zm.01-1.442c-1.238 0-1.844-1.103-1.844-2.5s.606-2.516 1.844-2.516c1.218 0 1.825 1.119 1.825 2.516s-.607 2.5-1.825 2.5zM103.212 47h1.8v-7.636h-1.8V47zm.905-8.72c.571 0 1.039-.438 1.039-.975 0-.541-.468-.979-1.039-.979-.577 0-1.044.438-1.044.98 0 .536.467.974 1.044.974zm4.545 4.246c0-1.104.666-1.74 1.616-1.74.929 0 1.486.611 1.486 1.63V47h1.8v-4.862c.005-1.83-1.039-2.874-2.615-2.874-1.144 0-1.929.547-2.277 1.397h-.09v-1.297h-1.72V47h1.8v-4.474zm10.545-3.162H117.7v-1.83h-1.799v1.83h-1.084v1.392h1.084V45c-.01 1.437 1.034 2.143 2.386 2.103a3.616 3.616 0 001.059-.179l-.303-1.406c-.1.024-.304.07-.527.07-.453 0-.816-.16-.816-.886v-3.947h1.507v-1.392zm7.431 2.018c-.249-1.292-1.283-2.118-3.072-2.118-1.84 0-3.093.905-3.088 2.317-.005 1.114.681 1.85 2.148 2.153l1.302.273c.701.154 1.03.438 1.03.87 0 .522-.567.915-1.422.915-.826 0-1.363-.358-1.517-1.044l-1.755.169c.224 1.402 1.402 2.232 3.277 2.232 1.909 0 3.256-.99 3.261-2.436-.005-1.089-.706-1.755-2.148-2.068l-1.302-.279c-.776-.173-1.084-.442-1.079-.885-.005-.517.567-.875 1.317-.875.831 0 1.268.453 1.407.955l1.641-.179z" fill="#000"/>
  </g>
  <defs>
    <filter id="MThuVIbBba" x="0" y="0" width="292" height="232" filterUnits="userSpaceOnUse" color-interpolation-filters="sRGB">
      <feFlood flood-opacity="0" result="BackgroundImageFix"/>
      <feColorMatrix in="SourceAlpha" type="matrix" values="0 0 0 0 0 0 0 0 0 0 0 0 0 0 0 0 0 0 127 0" result="hardAlpha"/>
      <feOffset dy="2"/>
      <feGaussianBlur stdDeviation="4"/>
      <feComposite in2="hardAlpha" operator="out"/>
      <feColorMatrix type="matrix" values="0 0 0 0 0.575 0 0 0 0 0.575 0 0 0 0 0.575 0 0 0 0.25 0"/>
      <feBlend mode="normal" in2="BackgroundImageFix" result="effect1_dropShadow_1056:21868"/>
      <feColorMatrix in="SourceAlpha" type="matrix" values="0 0 0 0 0 0 0 0 0 0 0 0 0 0 0 0 0 0 127 0" result="hardAlpha"/>
      <feOffset dy="2"/>
      <feGaussianBlur stdDeviation="4"/>
      <feComposite in2="hardAlpha" operator="out"/>
      <feColorMatrix type="matrix" values="0 0 0 0 0.616667 0 0 0 0 0.616667 0 0 0 0 0.616667 0 0 0 0.25 0"/>
      <feBlend mode="normal" in2="effect1_dropShadow_1056:21868" result="effect2_dropShadow_1056:21868"/>
      <feBlend mode="normal" in="SourceGraphic" in2="effect2_dropShadow_1056:21868" result="shape"/>
    </filter>
  </defs>
</svg>
