<svg xmlns="http://www.w3.org/2000/svg" fill="none" viewBox="0 0 292 222">
  <g opacity=".8" filter="url(#E3-IrA-b8a)">
    <path d="M8 14a8 8 0 018-8h260a8 8 0 018 8v208H8V14z" fill="#fff"/>
    <path d="M39.423 36.818v6.498c0 1.278-.89 2.192-2.287 2.192-1.402 0-2.287-.914-2.287-2.192v-6.498h-1.845v6.652c0 2.188 1.64 3.684 4.132 3.684 2.48 0 4.131-1.496 4.131-3.684v-6.652h-1.844zm9.805 4.564c-.249-1.292-1.283-2.118-3.073-2.118-1.84 0-3.092.905-3.087 2.317-.005 1.114.681 1.85 2.148 2.153l1.302.273c.701.154 1.03.438 1.03.87 0 .522-.567.915-1.422.915-.826 0-1.363-.358-1.517-1.044l-1.755.169c.224 1.402 1.402 2.232 3.276 2.232 1.91 0 3.257-.99 3.262-2.436-.005-1.089-.706-1.755-2.148-2.068l-1.302-.279c-.776-.173-1.084-.442-1.08-.885-.004-.517.567-.875 1.318-.875.83 0 1.268.453 1.407.955l1.64-.179zm5.029 5.767c1.78 0 3.002-.87 3.32-2.197l-1.68-.19c-.243.647-.84.985-1.616.985-1.163 0-1.934-.766-1.948-2.073h5.32v-.552c0-2.68-1.612-3.858-3.49-3.858-2.188 0-3.615 1.606-3.615 3.963 0 2.396 1.407 3.922 3.709 3.922zm-1.92-4.688c.055-.974.776-1.795 1.85-1.795 1.034 0 1.73.756 1.74 1.795h-3.59zM59.175 47h1.8v-4.49c0-.969.73-1.655 1.72-1.655.303 0 .68.055.835.105v-1.656a4.311 4.311 0 00-.647-.05c-.875 0-1.605.497-1.884 1.382h-.08v-1.272h-1.744V47zm7.35-4.474c0-1.104.666-1.74 1.616-1.74.93 0 1.486.611 1.486 1.63V47h1.8v-4.862c.005-1.83-1.039-2.874-2.615-2.874-1.143 0-1.929.547-2.277 1.397h-.09v-1.297h-1.72V47h1.8v-4.474zm8.93 4.628c1.197 0 1.913-.562 2.241-1.203h.06V47h1.73v-5.11c0-2.02-1.645-2.626-3.102-2.626-1.606 0-2.839.716-3.237 2.108l1.68.239c.18-.522.687-.97 1.567-.97.835 0 1.292.428 1.292 1.179v.03c0 .517-.542.541-1.889.685-1.481.16-2.898.602-2.898 2.322 0 1.502 1.099 2.297 2.555 2.297zm.466-1.322c-.75 0-1.287-.343-1.287-1.005 0-.69.601-.979 1.407-1.093.472-.065 1.417-.184 1.65-.373v.9c0 .85-.686 1.57-1.77 1.57zM81.296 47h1.8v-4.644c0-.94.626-1.575 1.401-1.575.761 0 1.283.512 1.283 1.297V47h1.765v-4.763c0-.86.512-1.456 1.382-1.456.726 0 1.303.427 1.303 1.372V47h1.804v-5.126c0-1.705-.984-2.61-2.386-2.61-1.109 0-1.954.547-2.292 1.397h-.08c-.293-.865-1.033-1.397-2.063-1.397-1.024 0-1.79.527-2.107 1.397h-.09v-1.297h-1.72V47zm15.945.15c1.78 0 3.003-.87 3.321-2.198l-1.68-.19c-.244.647-.84.985-1.616.985-1.163 0-1.934-.766-1.95-2.073h5.321v-.552c0-2.68-1.611-3.858-3.49-3.858-2.188 0-3.615 1.606-3.615 3.963 0 2.396 1.407 3.922 3.709 3.922zm-1.92-4.69c.056-.974.776-1.794 1.85-1.794 1.034 0 1.73.756 1.74 1.795h-3.59z" fill="#000"/>
    <rect x="32.5" y="62.5" width="227" height="39" rx="7.5" fill="#F4F4F4" stroke="#E5E5E5"/>
    <path d="M33.004 143h1.845v-3.44h1.949c2.351 0 3.614-1.412 3.614-3.371 0-1.944-1.248-3.371-3.59-3.371h-3.818V143zm1.845-4.957v-3.684h1.69c1.382 0 1.994.746 1.994 1.83s-.612 1.854-1.984 1.854h-1.7zm9.146 5.111c1.198 0 1.914-.562 2.242-1.203h.06V143h1.73v-5.111c0-2.018-1.645-2.625-3.102-2.625-1.606 0-2.839.716-3.237 2.108l1.68.239c.18-.522.687-.97 1.567-.97.835 0 1.292.428 1.292 1.179v.029c0 .517-.541.542-1.889.687-1.481.159-2.898.601-2.898 2.321 0 1.502 1.099 2.297 2.555 2.297zm.468-1.322c-.751 0-1.288-.343-1.288-1.005 0-.691.602-.979 1.407-1.093.472-.065 1.417-.184 1.65-.373v.9c0 .85-.686 1.571-1.77 1.571zm11.41-4.45c-.25-1.293-1.283-2.118-3.073-2.118-1.84 0-3.092.905-3.087 2.317-.005 1.114.68 1.849 2.147 2.153l1.303.273c.7.154 1.029.438 1.029.87 0 .522-.567.915-1.422.915-.825 0-1.362-.358-1.516-1.044l-1.755.169c.223 1.402 1.402 2.232 3.276 2.232 1.91 0 3.256-.989 3.261-2.436-.005-1.089-.706-1.755-2.147-2.068l-1.303-.279c-.776-.174-1.084-.442-1.079-.884-.005-.518.567-.875 1.318-.875.83 0 1.267.452 1.407.954l1.64-.179zm7.683 0c-.249-1.293-1.283-2.118-3.072-2.118-1.84 0-3.093.905-3.088 2.317-.005 1.114.681 1.849 2.148 2.153l1.302.273c.701.154 1.03.438 1.03.87 0 .522-.567.915-1.422.915-.826 0-1.363-.358-1.517-1.044l-1.755.169c.224 1.402 1.402 2.232 3.277 2.232 1.909 0 3.256-.989 3.261-2.436-.005-1.089-.706-1.755-2.148-2.068l-1.302-.279c-.776-.174-1.084-.442-1.08-.884-.004-.518.568-.875 1.318-.875.83 0 1.268.452 1.407.954l1.64-.179zM66.78 143h1.88l1.431-5.161h.105l1.43 5.161h1.875l2.162-7.636h-1.84l-1.322 5.339h-.074l-1.372-5.339H69.24l-1.372 5.369h-.07l-1.342-5.369h-1.835L66.78 143zm13.267.149c2.237 0 3.659-1.576 3.659-3.937 0-2.367-1.422-3.948-3.66-3.948-2.237 0-3.658 1.581-3.658 3.948 0 2.361 1.421 3.937 3.659 3.937zm.01-1.442c-1.238 0-1.845-1.103-1.845-2.5s.607-2.516 1.845-2.516c1.218 0 1.824 1.119 1.824 2.516s-.606 2.5-1.824 2.5zM85.233 143h1.8v-4.489c0-.97.73-1.656 1.72-1.656.303 0 .681.055.835.105v-1.656a4.296 4.296 0 00-.646-.05c-.875 0-1.606.497-1.884 1.382h-.08v-1.272h-1.745V143zm8.07.134c1.313 0 1.905-.78 2.188-1.337h.11V143h1.77v-10.182h-1.805v3.808h-.075c-.273-.551-.835-1.362-2.183-1.362-1.765 0-3.152 1.382-3.152 3.928 0 2.515 1.348 3.942 3.147 3.942zm.503-1.476c-1.189 0-1.815-1.044-1.815-2.476 0-1.422.616-2.441 1.815-2.441 1.158 0 1.794.959 1.794 2.441 0 1.481-.646 2.476-1.794 2.476z" fill="#000"/>
    <rect x="32.5" y="158.5" width="227" height="39" rx="7.5" fill="#F4F4F4" stroke="#E5E5E5"/>
  </g>
  <defs>
    <filter id="E3-IrA-b8a" x="0" y="0" width="292" height="232" filterUnits="userSpaceOnUse" color-interpolation-filters="sRGB">
      <feFlood flood-opacity="0" result="BackgroundImageFix"/>
      <feColorMatrix in="SourceAlpha" type="matrix" values="0 0 0 0 0 0 0 0 0 0 0 0 0 0 0 0 0 0 127 0" result="hardAlpha"/>
      <feOffset dy="2"/>
      <feGaussianBlur stdDeviation="4"/>
      <feComposite in2="hardAlpha" operator="out"/>
      <feColorMatrix type="matrix" values="0 0 0 0 0.575 0 0 0 0 0.575 0 0 0 0 0.575 0 0 0 0.25 0"/>
      <feBlend mode="normal" in2="BackgroundImageFix" result="effect1_dropShadow_1055:21556"/>
      <feColorMatrix in="SourceAlpha" type="matrix" values="0 0 0 0 0 0 0 0 0 0 0 0 0 0 0 0 0 0 127 0" result="hardAlpha"/>
      <feOffset dy="2"/>
      <feGaussianBlur stdDeviation="4"/>
      <feComposite in2="hardAlpha" operator="out"/>
      <feColorMatrix type="matrix" values="0 0 0 0 0.616667 0 0 0 0 0.616667 0 0 0 0 0.616667 0 0 0 0.25 0"/>
      <feBlend mode="normal" in2="effect1_dropShadow_1055:21556" result="effect2_dropShadow_1055:21556"/>
      <feBlend mode="normal" in="SourceGraphic" in2="effect2_dropShadow_1055:21556" result="shape"/>
    </filter>
  </defs>
</svg>
