<svg xmlns="http://www.w3.org/2000/svg" fill="none" viewBox="0 0 292 222">
  <g opacity=".8" filter="url(#ICDy_DUGNa)">
    <path d="M8 14a8 8 0 018-8h260a8 8 0 018 8v208H8V14z" fill="#fff"/>
    <path d="M38.538 39.617h1.775c-.035-1.72-1.502-2.938-3.67-2.938-2.137 0-3.743 1.203-3.738 3.003 0 1.462 1.039 2.302 2.714 2.734l1.159.299c1.098.278 1.824.62 1.83 1.411-.006.87-.831 1.452-2.034 1.452-1.154 0-2.048-.517-2.123-1.586h-1.815c.075 2.024 1.581 3.162 3.953 3.162 2.44 0 3.858-1.218 3.863-3.013-.005-1.765-1.462-2.57-2.993-2.933l-.955-.239c-.835-.198-1.74-.551-1.73-1.401.005-.766.691-1.328 1.845-1.328 1.098 0 1.824.512 1.919 1.377zm5.278 2.909c0-1.104.686-1.74 1.65-1.74.945 0 1.502.601 1.502 1.63V47h1.8v-4.862c0-1.845-1.044-2.874-2.63-2.874-1.173 0-1.92.532-2.272 1.397h-.09v-3.843h-1.76V47h1.8v-4.474zm8.984 4.628c1.198 0 1.914-.562 2.242-1.203h.06V47h1.73v-5.11c0-2.02-1.646-2.626-3.102-2.626-1.606 0-2.84.716-3.237 2.108l1.68.239c.18-.522.687-.97 1.566-.97.836 0 1.293.428 1.293 1.179v.03c0 .517-.542.541-1.89.685-1.48.16-2.898.602-2.898 2.322 0 1.502 1.1 2.297 2.556 2.297zm.467-1.322c-.75 0-1.287-.343-1.287-1.005 0-.69.601-.979 1.407-1.093.472-.065 1.416-.184 1.65-.373v.9c0 .85-.686 1.57-1.77 1.57zM58.641 47h1.8v-4.49c0-.969.731-1.655 1.72-1.655.304 0 .681.055.836.105v-1.656a4.311 4.311 0 00-.647-.05c-.875 0-1.605.497-1.884 1.382h-.08v-1.272h-1.745V47zm8.617.15c1.78 0 3.003-.87 3.322-2.198l-1.68-.19c-.245.647-.841.985-1.617.985-1.163 0-1.934-.766-1.948-2.073h5.32v-.552c0-2.68-1.612-3.858-3.49-3.858-2.188 0-3.615 1.606-3.615 3.963 0 2.396 1.407 3.922 3.709 3.922zm-1.918-4.69c.054-.974.775-1.794 1.849-1.794 1.034 0 1.73.756 1.74 1.795h-3.59zm11.428 7.404c1.402 0 2.212-.721 2.645-1.94l3.067-8.55-1.924-.01-1.765 5.767h-.08l-1.76-5.767h-1.908l2.769 7.795-.154.413c-.333.87-.86.93-1.646.7l-.417 1.403c.243.1.68.189 1.173.189zM86.8 47.149c2.237 0 3.659-1.576 3.659-3.937 0-2.367-1.422-3.948-3.66-3.948-2.237 0-3.659 1.581-3.659 3.948 0 2.361 1.422 3.937 3.66 3.937zm.01-1.442c-1.238 0-1.845-1.103-1.845-2.5s.607-2.516 1.845-2.516c1.218 0 1.824 1.119 1.824 2.516s-.606 2.5-1.825 2.5zm10.043-1.919c0 1.164-.83 1.74-1.625 1.74-.865 0-1.442-.611-1.442-1.58v-4.584h-1.8v4.862c0 1.834 1.044 2.873 2.546 2.873 1.143 0 1.948-.601 2.296-1.456h.08V47h1.745v-7.636h-1.8v4.424zM100.505 47h1.8v-4.49c0-.969.73-1.655 1.72-1.655.303 0 .681.055.835.105v-1.656a4.316 4.316 0 00-.646-.05c-.875 0-1.606.497-1.885 1.382h-.079v-1.272h-1.745V47zm13.89-3.212c0 1.164-.83 1.74-1.625 1.74-.865 0-1.442-.611-1.442-1.58v-4.584h-1.8v4.862c0 1.834 1.044 2.873 2.546 2.873 1.143 0 1.949-.601 2.297-1.456h.079V47h1.745v-7.636h-1.8v4.424zm5.451-1.262c0-1.104.666-1.74 1.615-1.74.93 0 1.487.611 1.487 1.63V47h1.8v-4.862c.004-1.83-1.04-2.874-2.616-2.874-1.143 0-1.929.547-2.277 1.397h-.089v-1.297h-1.72V47h1.8v-4.474zM126.577 47h1.8v-7.636h-1.8V47zm.905-8.72c.572 0 1.039-.438 1.039-.975 0-.541-.467-.979-1.039-.979-.577 0-1.044.438-1.044.98 0 .536.467.974 1.044.974zm9.641 11.584v-10.5h-1.77v1.262h-.104c-.274-.551-.835-1.362-2.183-1.362-1.765 0-3.152 1.382-3.152 3.928 0 2.515 1.348 3.942 3.147 3.942 1.313 0 1.904-.78 2.188-1.337h.074v4.067h1.8zm-1.765-6.682c0 1.481-.646 2.476-1.795 2.476-1.188 0-1.814-1.044-1.814-2.476 0-1.422.616-2.441 1.814-2.441 1.159 0 1.795.96 1.795 2.44zm8.487.606c0 1.164-.831 1.74-1.626 1.74-.865 0-1.442-.611-1.442-1.58v-4.584h-1.8v4.862c0 1.834 1.044 2.873 2.546 2.873 1.143 0 1.949-.601 2.297-1.456h.079V47h1.745v-7.636h-1.799v4.424zm7.031 3.361c1.78 0 3.003-.87 3.321-2.197l-1.681-.19c-.243.647-.84.985-1.615.985-1.164 0-1.934-.766-1.949-2.073h5.319v-.552c0-2.68-1.61-3.858-3.49-3.858-2.187 0-3.614 1.606-3.614 3.963 0 2.396 1.407 3.922 3.709 3.922zm-1.919-4.688c.054-.974.775-1.795 1.849-1.795 1.034 0 1.73.756 1.74 1.795h-3.589zM159.267 47h1.799v-4.49c0-.969.731-1.655 1.72-1.655.304 0 .682.055.836.105v-1.656a4.32 4.32 0 00-.647-.05c-.875 0-1.606.497-1.884 1.382h-.079v-1.272h-1.745V47zm8.617.15c1.779 0 3.002-.87 3.321-2.198l-1.681-.19c-.243.647-.84.985-1.616.985-1.163 0-1.934-.766-1.948-2.073h5.319v-.552c0-2.68-1.611-3.858-3.49-3.858-2.187 0-3.614 1.606-3.614 3.963 0 2.396 1.407 3.922 3.709 3.922zm-1.92-4.69c.055-.974.776-1.794 1.85-1.794 1.034 0 1.73.756 1.74 1.795h-3.59zm10.706-3.096h-1.586v-.602c0-.596.248-.93.919-.93.284 0 .522.065.672.11l.362-1.392a4.48 4.48 0 00-1.367-.21c-1.327 0-2.386.762-2.386 2.303v.72h-1.129v1.393h1.129V47h1.8v-6.244h1.586v-1.392zm4.503 7.785c1.779 0 3.002-.87 3.321-2.197l-1.681-.19c-.243.647-.84.985-1.616.985-1.163 0-1.934-.766-1.948-2.073h5.319v-.552c0-2.68-1.611-3.858-3.49-3.858-2.187 0-3.614 1.606-3.614 3.963 0 2.396 1.407 3.922 3.709 3.922zm-1.919-4.688c.054-.974.775-1.795 1.849-1.795 1.034 0 1.73.756 1.74 1.795h-3.589zM186.091 47h1.799v-4.49c0-.969.731-1.655 1.721-1.655.303 0 .681.055.835.105v-1.656a4.316 4.316 0 00-.646-.05c-.875 0-1.606.497-1.885 1.382h-.079v-1.272h-1.745V47zm5.551 0h1.799v-4.49c0-.969.731-1.655 1.72-1.655.304 0 .682.055.836.105v-1.656a4.32 4.32 0 00-.647-.05c-.875 0-1.606.497-1.884 1.382h-.079v-1.272h-1.745V47zm7.597.154c1.199 0 1.914-.562 2.243-1.203h.059V47h1.73v-5.11c0-2.02-1.645-2.626-3.102-2.626-1.606 0-2.839.716-3.236 2.108l1.68.239c.179-.522.686-.97 1.566-.97.835 0 1.293.428 1.293 1.179v.03c0 .517-.542.541-1.89.685-1.481.16-2.898.602-2.898 2.322 0 1.502 1.099 2.297 2.555 2.297zm.468-1.322c-.751 0-1.288-.343-1.288-1.005 0-.69.602-.979 1.407-1.093.472-.065 1.417-.184 1.651-.373v.9c0 .85-.687 1.57-1.77 1.57zm7.174-9.014h-1.8V47h1.8V36.818zm7.123 0h-1.8V47h1.8V36.818zM215.854 47h1.8v-7.636h-1.8V47zm.905-8.72c.572 0 1.039-.438 1.039-.975 0-.541-.467-.979-1.039-.979-.576 0-1.044.438-1.044.98 0 .536.468.974 1.044.974zm4.546 4.246c0-1.104.666-1.74 1.615-1.74.93 0 1.487.611 1.487 1.63V47h1.799v-4.862c.005-1.83-1.039-2.874-2.615-2.874-1.143 0-1.929.547-2.277 1.397h-.089v-1.297h-1.72V47h1.8v-4.474zM228.036 47h1.8v-2.565l.656-.701L232.829 47h2.152l-3.132-4.34 2.958-3.296h-2.103l-2.744 3.067h-.124v-5.613h-1.8V47z" fill="#000"/>
    <rect x="32.5" y="62.5" width="227" height="39" rx="7.5" fill="#FAFAFA" stroke="#E5E5E5"/>
    <path d="M50.568 82.75c0-1.523.972-2.386 2.296-2.386 1.261 0 2.022.795 2.022 2.181V88h1.341v-5.546c0-2.244-1.193-3.295-2.977-3.295-1.375 0-2.16.574-2.568 1.477h-.114v-4.272h-1.34V88h1.34v-5.25zm11.908-3.477h-1.864v-2.091h-1.34v2.09h-1.319v1.137h1.318v5.455c0 1.522 1.228 2.25 2.364 2.25.5 0 .818-.091 1-.16l-.273-1.204c-.113.023-.295.068-.59.068-.592 0-1.16-.182-1.16-1.318v-5.09h1.864v-1.137zm5.812 0h-1.863v-2.091h-1.341v2.09h-1.318v1.137h1.318v5.455c0 1.522 1.227 2.25 2.363 2.25.5 0 .819-.091 1-.16l-.272-1.204c-.114.023-.296.068-.591.068-.591 0-1.16-.182-1.16-1.318v-5.09h1.864v-1.137zm2.017 12h1.341v-4.614h.114c.295.477.864 1.523 2.545 1.523 2.182 0 3.705-1.75 3.705-4.523 0-2.75-1.523-4.5-3.727-4.5-1.705 0-2.228 1.045-2.523 1.5h-.16v-1.386h-1.295v12zm1.319-7.637c0-1.954.863-3.272 2.5-3.272 1.704 0 2.545 1.431 2.545 3.272 0 1.864-.864 3.341-2.545 3.341-1.614 0-2.5-1.363-2.5-3.34zm14.613-2.409c-.42-1.238-1.363-2.068-3.09-2.068-1.842 0-3.205 1.045-3.205 2.523 0 1.204.716 2.011 2.318 2.386l1.454.341c.881.205 1.296.625 1.296 1.227 0 .75-.796 1.364-2.046 1.364-1.096 0-1.784-.472-2.022-1.41l-1.273.32c.313 1.482 1.534 2.272 3.318 2.272 2.029 0 3.41-1.108 3.41-2.614 0-1.216-.762-1.983-2.319-2.364l-1.295-.318c-1.034-.255-1.5-.602-1.5-1.272 0-.75.795-1.296 1.863-1.296 1.17 0 1.654.648 1.887 1.25l1.204-.34zm3.155 6.864c.563 0 1.023-.46 1.023-1.023 0-.562-.46-1.022-1.023-1.022s-1.023.46-1.023 1.022c0 .563.46 1.023 1.023 1.023zm0-6.477c.563 0 1.023-.46 1.023-1.023s-.46-1.023-1.023-1.023-1.023.46-1.023 1.023c0 .562.46 1.023 1.023 1.023zm7.543-5.796h-1.228l-3.75 13.932h1.228l3.75-13.932zm5.703 0h-1.227l-3.75 13.932h1.227l3.75-13.932zm5.135 12.364c1.932 0 3.204-1.182 3.432-2.728h-1.341c-.25.955-1.046 1.523-2.091 1.523-1.591 0-2.614-1.318-2.614-3.34 0-1.978 1.046-3.273 2.614-3.273 1.182 0 1.886.727 2.091 1.522h1.341c-.228-1.636-1.614-2.727-3.455-2.727-2.364 0-3.932 1.864-3.932 4.523 0 2.614 1.5 4.5 3.955 4.5zm7.96.022c1.523 0 2.318-.818 2.591-1.386h.068V88h1.341v-5.75c0-2.773-2.114-3.09-3.227-3.09-1.318 0-2.818.454-3.5 2.044l1.272.455c.296-.636.995-1.318 2.273-1.318 1.233 0 1.841.653 1.841 1.773v.045c0 .648-.659.591-2.25.795-1.619.21-3.386.569-3.386 2.569 0 1.704 1.318 2.681 2.977 2.681zm.205-1.204c-1.069 0-1.841-.477-1.841-1.41 0-1.022.931-1.34 1.977-1.476.568-.069 2.091-.228 2.318-.5v1.227c0 1.09-.864 2.159-2.454 2.159zm6.242 1h1.341v-5.523c0-1.181.932-2.045 2.205-2.045a4.1 4.1 0 01.818.09V79.16a12.854 12.854 0 00-.705-.023c-1.045 0-1.954.591-2.272 1.455h-.091v-1.318h-1.296V88zm8.983.182c1.682 0 2.25-1.046 2.546-1.523h.159V88h1.295V76.364h-1.341v4.295h-.113c-.296-.455-.818-1.5-2.523-1.5-2.204 0-3.727 1.75-3.727 4.5 0 2.773 1.523 4.523 3.704 4.523zm.182-1.205c-1.682 0-2.545-1.477-2.545-3.34 0-1.841.841-3.273 2.545-3.273 1.637 0 2.5 1.318 2.5 3.272 0 1.978-.886 3.341-2.5 3.341zm7.801-10.613h-1.341V88h1.341V76.364zm6.115 11.818c1.773 0 3.069-.886 3.478-2.205l-1.296-.363c-.341.909-1.131 1.363-2.182 1.363-1.573 0-2.659-1.017-2.721-2.886h6.335v-.568c0-3.25-1.932-4.364-3.75-4.364-2.364 0-3.932 1.864-3.932 4.545 0 2.682 1.546 4.478 4.068 4.478zm-2.721-5.25c.091-1.358 1.051-2.568 2.585-2.568 1.455 0 2.386 1.09 2.386 2.568h-4.971zm14.557-1.705c-.421-1.238-1.364-2.068-3.091-2.068-1.841 0-3.205 1.045-3.205 2.523 0 1.204.716 2.011 2.318 2.386l1.455.341c.881.205 1.295.625 1.295 1.227 0 .75-.795 1.364-2.045 1.364-1.097 0-1.784-.472-2.023-1.41l-1.273.32c.313 1.482 1.534 2.272 3.319 2.272 2.028 0 3.409-1.108 3.409-2.614 0-1.216-.762-1.983-2.318-2.364l-1.296-.318c-1.034-.255-1.5-.602-1.5-1.272 0-.75.796-1.296 1.864-1.296 1.17 0 1.653.648 1.886 1.25l1.205-.34zm8.359 0c-.42-1.238-1.364-2.068-3.091-2.068-1.841 0-3.204 1.045-3.204 2.523 0 1.204.715 2.011 2.318 2.386l1.454.341c.881.205 1.296.625 1.296 1.227 0 .75-.796 1.364-2.046 1.364-1.096 0-1.784-.472-2.022-1.41l-1.273.32c.312 1.482 1.534 2.272 3.318 2.272 2.028 0 3.409-1.108 3.409-2.614 0-1.216-.761-1.983-2.318-2.364l-1.296-.318c-1.034-.255-1.5-.602-1.5-1.272 0-.75.796-1.296 1.864-1.296 1.171 0 1.653.648 1.886 1.25l1.205-.34zm3.155 6.864c.562 0 1.023-.46 1.023-1.023 0-.562-.461-1.022-1.023-1.022-.563 0-1.023.46-1.023 1.022 0 .563.46 1.023 1.023 1.023zm6.974.09c1.932 0 3.205-1.181 3.432-2.727h-1.341c-.25.955-1.045 1.523-2.091 1.523-1.591 0-2.613-1.318-2.613-3.34 0-1.978 1.045-3.273 2.613-3.273 1.182 0 1.887.727 2.091 1.522h1.341c-.227-1.636-1.614-2.727-3.455-2.727-2.363 0-3.931 1.864-3.931 4.523 0 2.614 1.5 4.5 3.954 4.5zm8.938 0c2.363 0 3.954-1.795 3.954-4.5 0-2.727-1.591-4.522-3.954-4.522-2.364 0-3.955 1.795-3.955 4.523 0 2.704 1.591 4.5 3.955 4.5zm0-1.204c-1.796 0-2.614-1.545-2.614-3.295s.818-3.318 2.614-3.318c1.795 0 2.613 1.568 2.613 3.318s-.818 3.295-2.613 3.295zM190.524 88h1.341v-5.454c0-1.279.932-2.182 1.977-2.182 1.017 0 1.728.664 1.728 1.659V88h1.363v-5.682c0-1.125.705-1.954 1.932-1.954.955 0 1.773.505 1.773 1.795V88h1.341v-5.84c0-2.052-1.103-3-2.659-3-1.25 0-2.165.573-2.614 1.476h-.091c-.432-.931-1.193-1.477-2.341-1.477-1.136 0-1.977.545-2.341 1.477h-.113v-1.363h-1.296V88zm18.02-12.182h-1.227l-3.75 13.932h1.227l3.75-13.932zM210.134 88h1.34v-5.454c0-1.279.932-2.182 1.978-2.182 1.017 0 1.727.664 1.727 1.659V88h1.364v-5.682c0-1.125.704-1.954 1.931-1.954.955 0 1.773.505 1.773 1.795V88h1.341v-5.84c0-2.052-1.102-3-2.659-3-1.25 0-2.165.573-2.614 1.476h-.091c-.431-.931-1.193-1.477-2.34-1.477-1.137 0-1.978.545-2.341 1.477h-.114v-1.363h-1.295V88zm14.883.09c.563 0 1.023-.46 1.023-1.022s-.46-1.022-1.023-1.022c-.562 0-1.023.46-1.023 1.022 0 .563.461 1.023 1.023 1.023zm4.406 0c.563 0 1.023-.46 1.023-1.022s-.46-1.022-1.023-1.022c-.562 0-1.022.46-1.022 1.022 0 .563.46 1.023 1.022 1.023zm4.407 0c.562 0 1.022-.46 1.022-1.022s-.46-1.022-1.022-1.022c-.563 0-1.023.46-1.023 1.022 0 .563.46 1.023 1.023 1.023z" fill="#767676"/>
    <rect x="32" y="150" width="228" height="48" rx="24" fill="#F00303"/>
    <path d="M121.241 172.29c-.358-2.585-2.347-4.085-4.926-4.085-3.04 0-5.33 2.215-5.33 5.977 0 3.756 2.261 5.977 5.33 5.977 2.767 0 4.602-1.79 4.926-4.011l-2.125-.012c-.267 1.364-1.381 2.131-2.773 2.131-1.886 0-3.239-1.415-3.239-4.085 0-2.625 1.341-4.085 3.245-4.085 1.414 0 2.522.801 2.767 2.193h2.125zm5.646 7.88c2.557 0 4.182-1.801 4.182-4.5 0-2.704-1.625-4.511-4.182-4.511-2.557 0-4.182 1.807-4.182 4.511 0 2.699 1.625 4.5 4.182 4.5zm.011-1.647c-1.414 0-2.108-1.262-2.108-2.858 0-1.597.694-2.875 2.108-2.875 1.392 0 2.086 1.278 2.086 2.875 0 1.596-.694 2.858-2.086 2.858zm5.917 4.75h2.056v-4.648h.086c.324.636 1 1.528 2.5 1.528 2.056 0 3.596-1.63 3.596-4.505 0-2.909-1.585-4.489-3.602-4.489-1.54 0-2.182.926-2.494 1.557h-.12v-1.443h-2.022v12zm2.017-7.637c0-1.693.727-2.789 2.051-2.789 1.369 0 2.074 1.164 2.074 2.789 0 1.637-.716 2.83-2.074 2.83-1.313 0-2.051-1.136-2.051-2.83zm8.964 7.637c1.602 0 2.529-.824 3.023-2.216l3.506-9.773-2.199-.011-2.017 6.591h-.091l-2.012-6.591h-2.181l3.164 8.909-.176.471c-.38.995-.983 1.063-1.88.802l-.478 1.602c.279.113.779.216 1.341.216zm13.982-14.909h-2.057V180h2.057v-11.636zM159.893 180h2.057v-8.727h-2.057V180zm1.034-9.966c.653 0 1.187-.5 1.187-1.114 0-.619-.534-1.119-1.187-1.119-.659 0-1.193.5-1.193 1.119 0 .614.534 1.114 1.193 1.114zm5.194 4.852c0-1.261.762-1.988 1.847-1.988 1.063 0 1.699.699 1.699 1.863V180h2.057v-5.557c.005-2.091-1.188-3.284-2.989-3.284-1.307 0-2.204.625-2.602 1.597h-.102v-1.483h-1.966V180h2.056v-5.114zm7.694 5.114h2.056v-2.932l.75-.801 2.671 3.733h2.46l-3.579-4.96 3.38-3.767h-2.403l-3.137 3.505h-.142v-6.414h-2.056V180z" fill="#fff"/>
  </g>
  <defs>
    <filter id="ICDy_DUGNa" x="0" y="0" width="292" height="232" filterUnits="userSpaceOnUse" color-interpolation-filters="sRGB">
      <feFlood flood-opacity="0" result="BackgroundImageFix"/>
      <feColorMatrix in="SourceAlpha" type="matrix" values="0 0 0 0 0 0 0 0 0 0 0 0 0 0 0 0 0 0 127 0" result="hardAlpha"/>
      <feOffset dy="2"/>
      <feGaussianBlur stdDeviation="4"/>
      <feComposite in2="hardAlpha" operator="out"/>
      <feColorMatrix type="matrix" values="0 0 0 0 0.575 0 0 0 0 0.575 0 0 0 0 0.575 0 0 0 0.25 0"/>
      <feBlend mode="normal" in2="BackgroundImageFix" result="effect1_dropShadow_1055:4801"/>
      <feColorMatrix in="SourceAlpha" type="matrix" values="0 0 0 0 0 0 0 0 0 0 0 0 0 0 0 0 0 0 127 0" result="hardAlpha"/>
      <feOffset dy="2"/>
      <feGaussianBlur stdDeviation="4"/>
      <feComposite in2="hardAlpha" operator="out"/>
      <feColorMatrix type="matrix" values="0 0 0 0 0.616667 0 0 0 0 0.616667 0 0 0 0 0.616667 0 0 0 0.25 0"/>
      <feBlend mode="normal" in2="effect1_dropShadow_1055:4801" result="effect2_dropShadow_1055:4801"/>
      <feBlend mode="normal" in="SourceGraphic" in2="effect2_dropShadow_1055:4801" result="shape"/>
    </filter>
  </defs>
</svg>
