<svg xmlns="http://www.w3.org/2000/svg" fill="none" viewBox="0 0 151 158">
  <path d="M83.038 151.389c-.6 1.851-2.51 6.39-7.137 6.39-5.263 0-7.087-5.975-7.176-6.227l-.156-.565s4.532.395 7.029.395c2.49 0 6.756-.258 7.447-.395l-.007.402z" fill="#000"/>
  <path d="M96.846 148.444l1.08.143c-1.288 3.532-3.601 7.49-8.135 7.49-4.423 0-6.603-2.686-7.517-4.482l-.772-.494s7.617-.259 15.344-2.657m-41.732.001l-1.08.144c1.282 3.531 3.606 7.489 8.154 7.489 4.397 0 6.768-2.827 7.744-4.481l.524-.495s-7.605-.258-15.342-2.657" fill="#000"/>
  <path d="M79.592 151.765c-.718 1.078-1.2 1.022-2.048 1.022-.44 0-1.072.371-1.065 1.056.019.539.438.976 1.126.976 1.566 0 2.764-2.277 3.081-3.247 0 0 .918-.039 1.185-.068 0 0-1.641 5.151-5.914 5.151-4.28 0-6.024-5.089-6.024-5.089s3.607.23 5.664.23c2.063 0 3.376-.02 3.995-.031" fill="url(#N2KV6wcB1Lja)"/>
  <path d="M55.696 149.495c2.78.773 4.767 1.427 9.45 2.023 0 0-.149.497-1.168.457-.39-.026-.442-.128-.577-.152-.3-.057-.736.263-.692.795.046.376.345.842 1.385.842s2.25-.888 2.863-1.719c0 0 .62.153 1.267.186 0 0-2.002 2.933-5.934 2.933-4.317 0-5.925-4.066-6.594-5.365" fill="url(#N2KV6wcB1Ljb)"/>
  <path d="M75.544 125.353c14.912 0 31.431-9.604 43.029-23.448 1.263-1.498 3.378-4.342 8.415-4.342 5.045 0 11.751 4.826 10.966 13.608-.585 6.396-9.297 20.828-24.214 29.705-14.913 8.912-28.652 10.819-38.195 10.819-9.552 0-23.278-1.907-38.2-10.819-14.915-8.877-23.625-23.309-24.206-29.705-.785-8.782 5.923-13.608 10.958-13.608 5.05 0 7.173 2.844 8.432 4.342 11.581 13.844 28.109 23.448 43.015 23.448v0z" fill="#FFE500" stroke="#000" stroke-width="2.098" stroke-miterlimit="3.863"/>
  <path d="M75.42 127.482c-15.004 0-32.077-9.29-44.652-24.319-1.28-1.526-2.909-3.49-6.786-3.49-2.265 0-4.833 1.273-6.535 3.241-1.282 1.462-2.72 4.039-2.375 7.991.499 5.398 8.651 19.368 23.181 28.044 11.712 6.991 24.217 10.523 37.166 10.523 12.962 0 25.467-3.532 37.179-10.523 14.525-8.676 22.69-22.646 23.17-28.044.36-3.952-1.088-6.529-2.353-7.991-1.711-1.968-4.286-3.24-6.54-3.24-3.894 0-5.521 1.963-6.789 3.489-12.567 15.029-29.661 24.319-44.667 24.319z" fill="#DA020E"/>
  <path d="M139.96 49.11l.053-3.65c1.071.86 3.086.873 4.265-.445.536-.601.842-1.53.797-2.487-.05-1.08-.517-2.202-1.286-2.993-4.353-4.464-8.219-8.921-8.219-8.921-.4-.663-1.025-1.142-1.387-1.306-.533-.267-2.427-1.175-3.871 1.127-1.303 2.085-1.11 5.025-.859 6.098l4.081 5.838c1.398 1.86 5.336 5.816 6.426 6.739zM52.724 11.273c5.138-1.811 9.836-3.309 16.167-3.896l.96-.566c-3.534-2.926-7.045-4.923-10.541-4.923-2.196 0-6.662 1.566-7.658 9.835l1.072-.45zm45.652 0c-5.14-1.811-9.834-3.309-16.159-3.896l-.972-.566c3.549-2.926 7.051-4.923 10.551-4.923 2.198 0 6.646 1.566 7.662 9.835l-1.082-.45z" fill="#000"/>
  <path d="M69.74 7.101C72.325 1.886 74.69 0 76.01 0c1.634 0 3.558 2.726 5.07 6.253l.317.8-1.328-.109c-.872-.172-3.353-.205-4.3-.205-.973 0-3.07 0-4.332.124L69.74 7.1z" fill="#000"/>
  <path d="M49.358 124.624l-3.743 7.099c-1.13 2.133-2.294 3.487-4.203 2.339-1.88-1.116-1.444-2.733-.29-4.937l3.752-7.108-3.026-1.762-3.966 7.512c-2.183 4.135.564 6.699 2.715 7.942 2.297 1.334 5.64 2.326 7.803-1.778l3.993-7.545-3.035-1.762zm48.126 14.625l-1.26-4.073 3.754-1.272-.52-1.694-3.759 1.279-1.07-3.481 3.844-1.323-.518-1.677-7.036 2.401 3.91 12.617 7.757-2.64-.511-1.683-4.591 1.546zm8.038-16.327l-4.283 2.591 6.342 11.541 4.267-2.589c4.409-2.668 4.828-6.71 3.092-9.953-2.09-3.847-5.54-3.936-9.418-1.59zm6.473 3.512c1.606 2.953 1.28 5.107-1.194 6.593l-1.178.72-4.656-8.442 1.267-.771c2.97-1.791 4.656-.196 5.761 1.9zm-34.265 5.408l.229 1.729 3.54-.526 1.53 11.406 3.293-.479-1.526-11.399 3.487-.508-.24-1.754-10.313 1.531zm-2.998.108l-3.315-.19-.663 13.252 3.317.186.661-13.248zm-10.065-1.62l-2.31 9.055-4.32-10.922-2.689-.757-3.275 12.821 2.928.815 2.328-9.131 4.387 11.015 2.629.745 3.262-12.826-2.94-.815zM47.221 46.658v62.158l28.324 19.097 28.321-19.097.042-62.064c-.907-.839-2.791-2.679-4.267-3.642H51.317c-1.223.901-3.673 3.07-4.096 3.548z" fill="#FFE500"/>
  <g filter="url(#N2KV6wcB1Ljc)">
    <path d="M47.221 21.409v87.406l28.323 19.097 28.321-19.097.043-87.311" stroke="#B54005" stroke-width="10" stroke-miterlimit="3.863"/>
  </g>
  <path d="M86.865 91.255v-2.31s-.585-.95-2.035-.95c-1.447 0-2.312.457-2.312.84 0 .625 1.295 2.42 4.347 2.42zm-11.421-20.45l2.189-4.012 1.715 4.011h2.842c-1.71 1.684-2.408 4.23-2.408 5.929v1.85c0 .787-.377 2.088-.377 2.088s2.467 1.972 2.846 2.315c.158.13.33.21.217.552-.196.576-1.871 1.37-2.042 1.52-.379.353-.478.565-.379.914.12.336.434.398 1.076.159.648-.219 1.991-.959 3.117-1.464 1.122-.513 2.625-.383 2.625-.383V82.02h-4.243v-7.193l-.75-1.268 1.871-3.499 1.882 3.52-.74 1.247v3.757h2.16v-3.757l-.744-1.246 1.877-3.494 1.87 3.494-.74 1.246v3.757h2.177v-3.757l-.77-1.246 1.884-3.494 1.877 3.494-.75 1.246.037 7.183h-4.278v3.321c.97.957 1.886 3.121 1.886 4.396 0 1.305-.81 1.857-.81 1.857.272 1.025.219 1.451.103 2.38-.103.942-1.225 2.413-1.225 2.413v17.169c0 1.166-2.574 1.051-2.574.055V96.764c-1.457-1.672-5.422-2.986-5.422-2.986-1.455 1.526-2.35 4.176-2.35 4.176.632.464 1.615 0 1.986-.45.364-.45 1.111-.568 1.543-.283.422.283.528.391.382 1.054-.166.698-.431 1.813-.431 2.593 0 .799.857.62 1.497.68 1.292.119 1.505 1.635 1.397 2.48-.105.851-.484 2.655-.484 3.777 0 1.111.057 2.233.162 2.87.112.614.322 1.292.263 2.085-.065 1.066-.69 1.237-1.338.552-.64-.674-9.6-10.697-9.6-10.697-.596 2.039 1.883 5.515 2.683 6.589.806 1.073.753 1.862.048 2.597-.69.727-2.035 1.115-2.298 1.8-.274.663.642 2.704 2.526 5.235 1.877 2.527-2.156 4.223-4.562 4.729-2.422.499-2.422-1.246-2.254-2.202.16-.948.16-1.524.101-2.357-.052-.848-.793-2.023-1.823-3.43-1.016-1.414-1.016-2.699-.593-5.975.427-3.267.326-5.352.326-5.352s-1.073.047-2.631 0c-1.55-.061-2.835-1.005-2.945-4.95-.107-3.933-.196-13.327-.45-14.312-.249-.974-1.253-1.153-1.676-1.283-.44-.115-.46-.78-.035-1.019 1.12-.572 2.462-2.014 1.965-2.91-.503-.9-2.475-.714-3.795-.036-1.324.671-2.72 2.147-3.08 2.549-.346.397-.647.397-.61-.031.045-.46-.244-2.609-.414-3.353-.19-.751-.83-2.171-1.046-2.547-.213-.377 0-.523.362-.377.347.15 1.143.497 1.89.704.753.239 1.471-.15 1.814-.888.358-.762 1.057-2.368 1.415-3.085.351-.71.92-.55 1.387-.442.463.115.892.415 1.32.594.425.186.78.15.932-.077.145-.217.322-.298.579-.86.25-.56.562-.293.602-.07 1.28 8.075 4.614 8.446 4.614 8.446-.501 1.345-1.676 3.49-1.954 4.031-.3.506-.412 1.226-.486 1.785-.056.556.185 5.89.541 7.845.362 1.957 1.501 1.195 1.871.597.344-.597 1.461-3.08 1.461-3.08s.276-.675.276-1.236c0-.566-.926-1.792-1.139-2.174-.22-.388-1.002-1.133-1.002-3.012 0-1.874 1.609-3.172 2.187-3.665.573-.492.573-1.175.495-1.586-.25-1.449-1.718-4.497-2.423-5.665-.722-1.164-2.115-3.375-2.115-3.375h2.896l1.865-4.064 2.03 4.082 2.119.02zm-.47 12.311a13.81 13.81 0 001.341-3.342h-2.732s.438 1.743 1.391 3.342zm-2.845-8.263c.11.84.705 1.16 1.157.915.45-.261.373-.941.038-1.485-.32-.532-.985-1.126-1.19-1.038-.207.09-.077 1.113-.005 1.608zm5.415-1.608c-.195-.088-.896.506-1.229 1.038-.32.544-.402 1.224.053 1.484.444.246 1.017-.081 1.16-.914.078-.495.231-1.517.016-1.608" fill="url(#N2KV6wcB1Ljd)"/>
  <path d="M49.443 62.155v3.742h52.255v-3.742h-3.853v.604h-44.55v-.604h-3.853zm.003-16.817h52.245v14.909H49.446v-14.91z" fill="#DA020E"/>
  <path d="M58.423 55.919l4.002 1.031 2.16-6.315v-1.599l-6.161 6.883zm32.978 3.722v-1.945h-3.776v-1.634h3.085v-7.21h-2.843l-.973-1.983-.95 1.984h-2.851v7.209h3.098v1.634h-7.428v-1.634h3.09v-7.21h-2.848l-.962-1.983-.972 1.984h-2.84v7.209h3.105v1.634h-7.582v-1.634h3.096v-7.21h-2.852l-.953-1.983-.979 1.984h-2.842v7.209h3.107v1.634l-5.999.02-5.967-1.462 1.195 3.387H91.4z" fill="#FFE500"/>
  <path d="M53.02 10.684c5.043-1.772 8.855-3.152 15.067-3.73-2.863-2.086-5.403-3.85-8.325-3.85-1.537 0-2.85.616-3.153 1.742-.282 1.025.488 1.471.762 1.403.286-.078.49-.166.42-.444-.073-.294.144-1.04 1.12-1.04.994 0 1.369.965 1.369 1.627 0 .663-1.002 1.77-2.844 1.77-1.806 0-2.732-1.264-2.663-2.432-.87 1.338-1.378 2.692-1.753 4.954" fill="url(#N2KV6wcB1Lje)"/>
  <path d="M17.877 42.372l4.097-5.837c.235-1.074.423-4.011-.887-6.096-1.431-2.304-3.317-1.394-3.87-1.127-.35.163-.986.64-1.377 1.305 0 0-3.938 4.55-8.272 9.028-.613.638-1.286 1.804-1.343 2.884-.053.959.315 1.922.846 2.523 1.185 1.325 3.256 1.272 4.315.41l.074 3.65c1.09-.922 5.022-4.88 6.417-6.74z" fill="#000"/>
  <path d="M75.546 33.874c23.322 0 36.591 22.971 39.487 27.004 5.144 7.205 11.442 13.054 18.74 11.121 10.72-2.877 10.162-19.54 10.162-19.54-2.587-1.955-6.994-4.416-15.031-16.37-7.87-11.717-25.679-29.075-53.358-29.075-27.686 0-45.491 17.358-53.342 29.076-8.045 11.953-12.468 14.414-15.03 16.369 0 0-.578 16.662 10.15 19.54 7.294 1.933 13.588-3.916 18.74-11.12 2.886-4.034 16.164-27.005 39.482-27.005v0z" fill="#FFE500" stroke="#000" stroke-width="2.098" stroke-miterlimit="3.863"/>
  <path d="M75.544 31.695c22.485 0 35.857 20.013 40.693 27.234 6.4 8.965 11.818 12.349 17.023 10.96 7.523-2.01 8.458-12.876 8.559-16.164v-.13l-.084-.07c-2.653-1.928-7.09-5.123-14.524-16.183-4.435-6.604-21.272-28.168-51.667-28.168-30.383 0-47.235 21.564-51.668 28.168-7.373 10.989-12.01 14.34-14.494 16.129l-.106.09.013.115c.101 3.295 1.038 14.218 8.542 16.212 5.211 1.39 10.64-1.994 17.023-10.959 4.832-7.221 18.217-27.235 40.69-27.235" fill="#DA020E"/>
  <path d="M63.33 14.977c-4.126.916-6.843 4.108-5.953 8.435.518 2.337 2.505 6.637 8.79 5.235 1.745-.35 2.688-1.078 3.602-1.995l-1.146-1.38c-.431.503-1.075 1.237-2.521 1.553-3.042.673-4.85-1.909-5.3-4.137-.67-3.302 1.164-5.578 3.235-6.048 1.48-.342 2.376.08 2.945.311H67l.385-1.691c-.998-.42-2.196-.698-4.056-.283zm34.503 19.036c2.359 1.49 4.934 1.237 6.138-.855.875-1.462.884-2.677-.169-4.853-.271-.616-.627-1.058-.865-1.619-.465-.91-.894-1.654-.494-2.359.442-.764 1.465-.826 2.391-.232.97.617 1.372 1.635 1.576 2.33l1.522-.689c-.467-1.312-1.16-2.489-2.743-3.472-2.704-1.71-4.904-1.259-5.82.343-.928 1.61-.665 2.95.034 4.325 0 0 .434.78.684 1.312.613 1.073 1.326 2.427.825 3.273-.606 1.067-1.65 1.299-2.667.636-1.303-.861-1.608-1.864-1.88-2.843l-1.673.751c.369 1.348 1.234 2.744 3.14 3.952zM79.819 14.28l-.094 5.407-4.955-.075.073-5.427-3.321-.064L71.3 27.39l3.328.076.105-6.083 4.963.095-.094 6.071 3.323.053.217-13.268-3.324-.053zm47.585 42.132c.024.033 1.95 1.031 4.09-.985 1.789-1.688 1.189-4-.68-6.172l-3.445-4.017-9.394 8.883 2.22 2.584 3.741-3.52 1.079 1.279-2.368 5.605 2.836 2.377 1.921-6.034zm1.678-6.536c.88 1.025.895 2.242-.128 3.187-.996.963-2.267.742-3.234-.37l-.562-.661 3.181-3.015.743.859zm-14.661-3.39l3.147-2.74 2.524 3.151 1.305-1.142-2.538-3.165 2.662-2.352 2.6 3.249 1.29-1.129-4.749-5.94-9.68 8.531 5.229 6.55 1.305-1.138-3.095-3.875zm-3.628-19.937l-1.129 1.299 2.653 2.516-7.351 8.556 2.48 2.34 7.34-8.56 2.618 2.474 1.124-1.298-7.735-7.327zm-21.645.841l1.339-4.046 3.723 1.347.554-1.683-3.73-1.345 1.135-3.466 3.837 1.38.539-1.673-6.99-2.525-4.11 12.566 7.705 2.767.547-1.674-4.549-1.648zm-40.033-6.5l4.749 7.942-10.573-4.141-2.353 1.55 6.704 11.272 2.553-1.688-4.78-8.024 10.682 4.161 2.307-1.517-6.717-11.265-2.572 1.71zM34.326 32.892l-2.161 2.434 6.06 12.645 1.48-1.661-1.647-3.364 2.926-3.302 3.317 1.475 2.438-2.739-12.413-5.488zm5.111 6.02l-2.195 2.475-2.257-4.55 4.452 2.076zm-12.252 2.004l-2.354 2.94 4.397 9.542-9.43-3.24-2.029 2.522 9.69 8.537 1.47-1.834-6.847-6.047 9.178 3.136.966-1.201-4.376-9.202 6.876 6.05 2.147-2.666-9.688-8.537z" fill="#FFE500"/>
  <path d="M12.383 47.676l-.01-2.927c4.759-4.585 7.003-9.193 7.003-9.193s-1.75-.691-2.532-1.736c-.388-.58-.537-1.374-.472-1.906.152-.998.893-1.504 1.145-1.62.547-.247 1.564-.808 2.697.827 1.206 1.77.888 5.127.722 5.9 0 0-2.22 4.053-8.553 10.655" fill="url(#N2KV6wcB1Ljf)"/>
  <path d="M17.65 36.089c-.642 1.175-2.261 4.011-6.355 8.038-.68.669-2.377 1.236-3.339.103a2.578 2.578 0 01-.562-1.771c.047-.828.52-1.791.996-2.215.825-.731 4.342-4.458 6.843-7.389.07.535.507 1.43.507 1.43.345.499.766 1.216 1.91 1.804" fill="url(#N2KV6wcB1Ljg)"/>
  <path d="M75.42 127.482c-15.005 0-32.077-9.29-44.652-24.319-1.28-1.526-2.909-3.49-6.786-3.49-2.265 0-4.833 1.273-6.535 3.241-1.282 1.462-2.72 4.039-2.375 7.991.499 5.398 8.651 19.368 23.181 28.044 11.712 6.991 24.217 10.523 37.166 10.523" fill="url(#N2KV6wcB1Ljh)"/>
  <path d="M75.419 127.482c15.004 0 32.076-9.29 44.651-24.319 1.28-1.526 2.909-3.49 6.786-3.49 2.265 0 4.833 1.273 6.536 3.241 1.282 1.462 2.719 4.04 2.374 7.991-.499 5.398-8.651 19.369-23.181 28.045-11.712 6.99-24.217 10.522-37.166 10.522" fill="url(#N2KV6wcB1Lji)"/>
  <path d="M116.237 58.928c6.4 8.965 11.818 12.348 17.023 10.959 7.523-2.01 8.458-12.875 8.559-16.164v-.13l-.084-.068c-2.653-1.929-7.09-5.125-14.524-16.184" fill="url(#N2KV6wcB1Ljj)"/>
  <path d="M34.873 58.93c-6.4 8.963-11.818 12.347-17.023 10.958-7.523-2.01-8.458-12.875-8.559-16.164v-.13l.085-.069c2.652-1.928 7.089-5.124 14.523-16.183" fill="url(#N2KV6wcB1Ljk)"/>
  <path d="M98.09 10.684c-5.044-1.772-8.856-3.152-15.067-3.73 2.862-2.086 5.403-3.85 8.325-3.85 1.536 0 2.85.616 3.153 1.742.282 1.025-.489 1.471-.762 1.403-.287-.078-.49-.166-.421-.444.073-.294-.143-1.04-1.12-1.04-.994 0-1.368.965-1.368 1.627 0 .663 1.002 1.77 2.843 1.77 1.806 0 2.733-1.264 2.663-2.432.871 1.338 1.379 2.692 1.754 4.954" fill="url(#N2KV6wcB1Ljl)"/>
  <path d="M75.781 3.736c-.157 1.012-1.267 1.981-2.389 1.981-1.124 0-1.46-.19-1.46-.19-.17.279-.32.493-.497.793 1.019-.042 3.382-.11 4.33-.11.945 0 3.565.144 4.13.186-.912-2.242-2.67-5.346-3.884-5.346-.042 0-.095-.004-.16-.004-.284 0-1.269.896-1.796 1.682-.693 1.033 1.726 1.008 1.726 1.008z" fill="url(#N2KV6wcB1Ljm)"/>
  <path d="M138.728 47.674l.01-2.926c-4.759-4.585-7.003-9.193-7.003-9.193s1.749-.691 2.532-1.736c.388-.581.537-1.374.472-1.906-.152-.999-.893-1.504-1.145-1.62-.548-.247-1.564-.808-2.697.827-1.206 1.77-.888 5.126-.722 5.9 0 0 2.219 4.052 8.553 10.654" fill="url(#N2KV6wcB1Ljn)"/>
  <path d="M133.46 36.09c.642 1.174 2.261 4.01 6.355 8.037.68.669 2.376 1.237 3.338.103.36-.439.598-1.055.562-1.77-.046-.83-.52-1.792-.996-2.216-.825-.731-4.342-4.458-6.843-7.389-.069.535-.507 1.43-.507 1.43-.345.499-.766 1.217-1.909 1.804" fill="url(#N2KV6wcB1Ljo)"/>
  <path d="M47.221 46.658v62.158l28.324 19.097 28.321-19.097.042-62.064c-.907-.839-2.791-2.679-4.267-3.642H51.317c-1.223.901-3.673 3.07-4.096 3.548h0z" stroke="#000" stroke-width="2.098" stroke-miterlimit="3.863"/>
  <path d="M96.31 149.495c-2.78.773-4.767 1.427-9.45 2.023 0 0 .149.497 1.168.458.389-.027.441-.128.576-.153.301-.057.737.263.693.795-.047.376-.346.842-1.385.842-1.04 0-2.25-.888-2.863-1.718 0 0-.62.152-1.267.185 0 0 2.002 2.933 5.934 2.933 4.317 0 5.925-4.066 6.594-5.365" fill="url(#N2KV6wcB1Ljp)"/>
  <path d="M2 85.691c0-7.498 5.799-13.597 12.953-13.597 7.157 0 12.952 6.099 12.952 13.597 0 7.512-5.795 13.597-12.952 13.597C7.8 99.288 2 93.204 2 85.692z" fill="#FFE500" stroke="#000" stroke-width="2.098" stroke-miterlimit="3.863"/>
  <path d="M4.964 85.187c0-5.685 4.472-10.309 9.988-10.309 5.519 0 9.987 4.624 9.987 10.31 0 5.695-4.468 10.308-9.987 10.308-5.516 0-9.988-4.613-9.988-10.309z" fill="url(#N2KV6wcB1Ljq)"/>
  <path d="M17.704 95.037c-.568.19-.814-.228-1.073-.528-1.008-1.217-1.267-4.457-1.267-4.886 0-.43.151-.903.44-.914 2.43-.049 4.167-.789 5.76-2.178 1.592-1.365 2.283-2.931 2.424-3.21.139-.309.469-.254.53.175.067.358.196 1 .196 1.696 0 4.67-3 8.484-7.01 9.845zm-2.565.422c-.07 0-.148.008-.213.008-1.791 0-3.764-.717-4.932-1.415-1.21-.692-1.665-3.952-1.665-5.6 0-5.365 2.097-8.558 2.438-9.186.332-.636 1.082-.702 1.631-.547.568.172.77.276 1.425.479.341.117 1.034.265 1.553.362.52.13 1.08.245.743 1.263-.332 1.02-1.464 3.473-1.578 6.38-.11 2.63.223 5.243.79 6.849.372 1.038.372 1.426-.192 1.407zM7.738 83.21c-.478-.265-1.053-1.56-1.246-1.937-.13-.272-.13-1.05.057-1.38.8-1.47 1.934-2.83 3.395-3.539.179-.082.43-.097.43.353 0 .241.123.617.128.855 0 .241.096.734-.194 1.122-.305.391-1.612 2.823-1.947 4.186-.055.305-.143.625-.623.34zm-.27 8.61c-1.355-1.405-2.321-3.95-2.321-6.629 0-1.04.147-2.036.41-2.981 0 0 .242-.425.453-.065.162.266.385.533.566.886.202.354 1.25 1.19 1.162 1.873-.366 2.507-.038 5.838.076 6.399.1.554-.045.79-.346.517zm4.28-16.34a9.68 9.68 0 013.178-.546c1.678 0 3.307.32 4.667 1.23.349.239.448.517.448.93 0 1.345-2.004 1.796-3.33 1.796-1.334 0-2.976-.555-4.138-.941-1.158-.38-1.41-1.082-1.41-1.403 0-.307.225-.943.585-1.067zm9.046 1.495l.653.554c.935.895 1.779 1.915 2.27 3.139.612 1.541-1.29 3.876-1.847 4.415-2.517 2.48-4.094 2.434-4.986 2.569-.893.137-1.472-.45-1.449-1.155.057-2.063 1.457-5.62 1.86-6.289.256-.43.702-.698.702-.698.935-.271 1.842-.68 2.311-1.24.46-.57.486-1.295.486-1.295zm-5.771-2.71c-6.018 0-10.89 5.115-10.89 11.425 0 6.315 4.872 11.429 10.89 11.429 6.014 0 10.897-5.114 10.897-11.428 0-6.31-4.884-11.426-10.897-11.426" fill="#DA020E"/>
  <path d="M123.456 85.665c0-7.498 5.799-13.575 12.954-13.575 7.159 0 12.953 6.077 12.953 13.575 0 7.512-5.794 13.6-12.953 13.6-7.155 0-12.954-6.088-12.954-13.6z" fill="#FFE500" stroke="#000" stroke-width="2.098" stroke-miterlimit="3.863"/>
  <path d="M143.996 91.771c-.284.294-.444.037-.324-.512.099-.546.429-3.888.061-6.395-.091-.68.964-1.515 1.158-1.873.193-.351.414-.625.57-.881.217-.371.446.044.446.044.278.957.413 1.957.413 2.993 0 2.688-.979 5.224-2.324 6.624zm-.878-8.939c-.337-1.358-1.652-3.801-1.949-4.19-.299-.375-.204-.874-.2-1.115 0-.239.131-.62.131-.868 0-.431.248-.422.425-.34 1.469.709 2.597 2.05 3.405 3.531.179.338.184 1.111.051 1.374-.189.38-.76 1.674-1.248 1.948-.489.28-.56-.046-.615-.34zm-1.635 11.179c-1.171.687-3.143 1.411-4.943 1.411h-.208c-.554.016-.566-.389-.187-1.422.549-1.593.892-4.217.778-6.84-.113-2.92-1.231-5.346-1.578-6.373-.337-1.018.225-1.142.751-1.257.522-.108 1.213-.267 1.556-.382.644-.205.852-.31 1.421-.48.553-.15 1.298-.074 1.637.546.333.636 2.433 3.85 2.433 9.202 0 1.639-.458 4.895-1.66 5.595zm-7.711.98a10.357 10.357 0 01-7.013-9.844c0-.687.128-1.323.181-1.694.078-.429.385-.5.539-.184.141.288.84 1.852 2.423 3.22 1.603 1.38 3.323 2.132 5.769 2.185.297.016.436.473.436.913 0 .435-.251 3.668-1.255 4.876-.267.31-.524.734-1.08.528zm-6.007-14.36c.478-1.225 1.326-2.263 2.261-3.137 0 0 .463-.411.642-.555 0 0 .038.731.503 1.28.463.551 1.362.984 2.296 1.243 0 0 .44.28.703.71.415.65 1.804 4.202 1.865 6.28.017.707-.555 1.295-1.45 1.16-.897-.126-2.469-.097-4.984-2.564-.556-.542-2.457-2.872-1.836-4.418zm4.109-4.507c1.379-.914 2.987-1.234 4.666-1.234 1.112 0 2.168.198 3.181.547.372.122.591.751.591 1.067 0 .312-.246 1.023-1.412 1.405-1.162.375-2.797.936-4.13.936-1.341 0-3.338-.457-3.338-1.795 0-.404.097-.698.442-.926zm4.563-1.89c-6.011 0-10.886 5.117-10.886 11.412 0 6.33 4.875 11.428 10.886 11.428 6.022 0 10.897-5.098 10.897-11.428 0-6.295-4.875-11.412-10.897-11.412z" fill="#DA020E"/>
  <path d="M126.569 85.135c0-5.686 4.471-10.31 9.988-10.31 5.518 0 9.986 4.624 9.986 10.31 0 5.695-4.468 10.309-9.986 10.309-5.517 0-9.988-4.614-9.988-10.31z" fill="url(#N2KV6wcB1Ljr)"/>
  <defs>
    <radialGradient id="N2KV6wcB1Lja" cx="0" cy="0" r="1" gradientUnits="userSpaceOnUse" gradientTransform="matrix(5.07562 0 0 3.95927 75.902 154.012)">
      <stop stop-color="#FFE500"/>
      <stop offset=".5" stop-color="#FFE500"/>
      <stop offset="1" stop-color="#E15007"/>
    </radialGradient>
    <radialGradient id="N2KV6wcB1Ljb" cx="0" cy="0" r="1" gradientUnits="userSpaceOnUse" gradientTransform="matrix(5.36702 0 0 5.06376 61.96 152.178)">
      <stop stop-color="#FFE500"/>
      <stop offset=".5" stop-color="#FFE500"/>
      <stop offset="1" stop-color="#E15007"/>
    </radialGradient>
    <radialGradient id="N2KV6wcB1Lje" cx="0" cy="0" r="1" gradientUnits="userSpaceOnUse" gradientTransform="matrix(6.13612 0 0 6.13079 59.423 7.226)">
      <stop stop-color="#FFE500"/>
      <stop offset=".5" stop-color="#FFE500"/>
      <stop offset="1" stop-color="#E15007"/>
    </radialGradient>
    <radialGradient id="N2KV6wcB1Ljf" cx="0" cy="0" r="1" gradientUnits="userSpaceOnUse" gradientTransform="rotate(-61.447 40.987 7.489) scale(9.93328 8.51957)">
      <stop stop-color="#FFE500"/>
      <stop offset=".5" stop-color="#FFE500"/>
      <stop offset="1" stop-color="#E15007"/>
    </radialGradient>
    <radialGradient id="N2KV6wcB1Ljl" cx="0" cy="0" r="1" gradientUnits="userSpaceOnUse" gradientTransform="matrix(-6.13612 0 0 -6.13079 91.687 7.226)">
      <stop stop-color="#FFE500"/>
      <stop offset=".5" stop-color="#FFE500"/>
      <stop offset="1" stop-color="#E15007"/>
    </radialGradient>
    <radialGradient id="N2KV6wcB1Ljm" cx="0" cy="0" r="1" gradientUnits="userSpaceOnUse" gradientTransform="matrix(4.63578 0 0 4.64964 75.555 4.243)">
      <stop stop-color="#FFE500"/>
      <stop offset=".5" stop-color="#FFE500"/>
      <stop offset="1" stop-color="#E15007"/>
    </radialGradient>
    <radialGradient id="N2KV6wcB1Ljn" cx="0" cy="0" r="1" gradientUnits="userSpaceOnUse" gradientTransform="rotate(-118.553 80.006 -20.545) scale(9.93326 8.51952)">
      <stop stop-color="#FFE500"/>
      <stop offset=".5" stop-color="#FFE500"/>
      <stop offset="1" stop-color="#E15007"/>
    </radialGradient>
    <radialGradient id="N2KV6wcB1Ljp" cx="0" cy="0" r="1" gradientUnits="userSpaceOnUse" gradientTransform="matrix(-5.36703 0 0 -5.06381 90.046 152.178)">
      <stop stop-color="#FFE500"/>
      <stop offset=".5" stop-color="#FFE500"/>
      <stop offset="1" stop-color="#E15007"/>
    </radialGradient>
    <radialGradient id="N2KV6wcB1Ljq" cx="0" cy="0" r="1" gradientUnits="userSpaceOnUse" gradientTransform="matrix(9.98707 0 0 10.309 14.952 85.187)">
      <stop stop-color="#DA030E" stop-opacity="0"/>
      <stop offset=".875" stop-color="#DA020E" stop-opacity="0"/>
      <stop offset="1" stop-color="#DA020E"/>
    </radialGradient>
    <radialGradient id="N2KV6wcB1Ljr" cx="0" cy="0" r="1" gradientUnits="userSpaceOnUse" gradientTransform="matrix(9.98708 0 0 10.309 136.556 85.135)">
      <stop stop-color="#DA030E" stop-opacity="0"/>
      <stop offset=".875" stop-color="#DA020E" stop-opacity="0"/>
      <stop offset="1" stop-color="#DA020E"/>
    </radialGradient>
    <linearGradient id="N2KV6wcB1Ljd" x1="74.084" y1="66.513" x2="74.084" y2="96.08" gradientUnits="userSpaceOnUse">
      <stop stop-color="#8F0904"/>
      <stop offset=".25" stop-color="#B40509"/>
      <stop offset="1" stop-color="#DA020E"/>
    </linearGradient>
    <linearGradient id="N2KV6wcB1Ljg" x1="13.531" y1="35.913" x2="15.982" y2="38.48" gradientUnits="userSpaceOnUse">
      <stop stop-color="#FFE500"/>
      <stop offset=".5" stop-color="#FFE500"/>
      <stop offset="1" stop-color="#E15007"/>
    </linearGradient>
    <linearGradient id="N2KV6wcB1Ljh" x1="18.819" y1="102.552" x2="35.782" y2="121.105" gradientUnits="userSpaceOnUse">
      <stop stop-color="#740703"/>
      <stop offset="1" stop-color="#DA020E" stop-opacity="0"/>
    </linearGradient>
    <linearGradient id="N2KV6wcB1Lji" x1="132.019" y1="102.552" x2="115.056" y2="121.106" gradientUnits="userSpaceOnUse">
      <stop stop-color="#740703"/>
      <stop offset="1" stop-color="#DA020E" stop-opacity="0"/>
    </linearGradient>
    <linearGradient id="N2KV6wcB1Ljj" x1="137.983" y1="66.919" x2="128.89" y2="58.766" gradientUnits="userSpaceOnUse">
      <stop stop-color="#740703"/>
      <stop offset="1" stop-color="#DA020E" stop-opacity="0"/>
    </linearGradient>
    <linearGradient id="N2KV6wcB1Ljk" x1="13.127" y1="66.92" x2="22.808" y2="57.184" gradientUnits="userSpaceOnUse">
      <stop stop-color="#740703"/>
      <stop offset="1" stop-color="#DA020E" stop-opacity="0"/>
    </linearGradient>
    <linearGradient id="N2KV6wcB1Ljo" x1="137.578" y1="35.913" x2="135.128" y2="38.48" gradientUnits="userSpaceOnUse">
      <stop stop-color="#FFE500"/>
      <stop offset=".5" stop-color="#FFE500"/>
      <stop offset="1" stop-color="#E15007"/>
    </linearGradient>
    <filter id="N2KV6wcB1Ljc" x="36.038" y="15.226" width="79.052" height="124.899" filterUnits="userSpaceOnUse" color-interpolation-filters="sRGB">
      <feFlood flood-opacity="0" result="BackgroundImageFix"/>
      <feBlend in="SourceGraphic" in2="BackgroundImageFix" result="shape"/>
      <feGaussianBlur stdDeviation="3.091" result="effect1_foregroundBlur_1078:23629"/>
    </filter>
  </defs>
</svg>
