<svg xmlns="http://www.w3.org/2000/svg" fill="none" viewBox="0 0 145 152">
  <path d="M79.796 145.331c-.576 1.777-2.411 6.135-6.853 6.135-5.051 0-6.803-5.736-6.888-5.978l-.15-.543s4.35.38 6.748.38c2.39 0 6.486-.248 7.149-.38l-.006.386z" fill="#000"/>
  <path d="M93.052 142.505l1.037.138c-1.237 3.39-3.457 7.19-7.81 7.19-4.246 0-6.339-2.578-7.216-4.302l-.742-.475s7.313-.248 14.731-2.551m-40.063-.001l-1.037.138c1.23 3.39 3.462 7.19 7.828 7.19 4.221 0 6.497-2.714 7.434-4.302l.503-.475s-7.3-.248-14.728-2.551" fill="#000"/>
  <path d="M76.488 145.693c-.689 1.035-1.151.982-1.966.982-.422 0-1.028.356-1.022 1.014.018.517.42.937 1.08.937 1.504 0 2.654-2.186 2.96-3.117 0 0 .88-.038 1.137-.066 0 0-1.576 4.945-5.678 4.945-4.108 0-5.783-4.886-5.783-4.886s3.463.221 5.437.221c1.98 0 3.241-.019 3.835-.03" fill="url(#vWyitJAHW8ha)"/>
  <path d="M53.548 143.515c2.67.742 4.577 1.369 9.073 1.942 0 0-.144.477-1.122.439-.374-.026-.424-.123-.553-.147-.29-.055-.708.253-.665.764.044.36.331.808 1.33.808.998 0 2.16-.853 2.747-1.65 0 0 .596.146 1.217.178 0 0-1.922 2.816-5.697 2.816-4.144 0-5.688-3.904-6.33-5.15" fill="url(#vWyitJAHW8hb)"/>
  <path d="M72.604 120.338c14.314 0 30.173-9.219 41.307-22.51 1.212-1.438 3.243-4.169 8.079-4.169 4.843 0 11.281 4.633 10.527 13.064-.561 6.141-8.925 19.996-23.246 28.518-14.316 8.555-27.505 10.385-36.667 10.385-9.17 0-22.347-1.83-36.672-10.385-14.318-8.522-22.68-22.377-23.237-28.518-.754-8.43 5.686-13.064 10.52-13.064 4.847 0 6.886 2.731 8.094 4.17 11.118 13.29 26.984 22.509 41.295 22.509v0z" fill="#FFE500" stroke="#000" stroke-width="2.098" stroke-miterlimit="3.863"/>
  <path d="M72.481 122.384c-14.403 0-30.793-8.918-42.864-23.346-1.229-1.465-2.793-3.35-6.515-3.35-2.174 0-4.64 1.221-6.274 3.11-1.23 1.404-2.611 3.879-2.28 7.672.48 5.183 8.305 18.594 22.254 26.923 11.243 6.711 23.248 10.102 35.68 10.102 12.443 0 24.448-3.391 35.691-10.102 13.945-8.329 21.783-21.74 22.244-26.923.345-3.793-1.045-6.268-2.26-7.671-1.642-1.89-4.114-3.11-6.278-3.11-3.738 0-5.3 1.884-6.518 3.35-12.064 14.427-28.474 23.345-42.88 23.345z" fill="#DA020E"/>
  <path d="M134.444 47.145l.05-3.503c1.029.825 2.962.838 4.094-.428.515-.577.808-1.47.766-2.388-.049-1.036-.497-2.114-1.235-2.873a227.112 227.112 0 01-7.891-8.564c-.383-.636-.984-1.096-1.331-1.253-.511-.257-2.33-1.128-3.716 1.081-1.251 2.002-1.065 4.824-.825 5.855l3.918 5.604c1.342 1.785 5.123 5.583 6.17 6.47zM50.693 10.82c4.932-1.74 9.443-3.177 15.52-3.74l.922-.544c-3.393-2.81-6.763-4.726-10.12-4.726-2.107 0-6.395 1.503-7.35 9.442l1.028-.432zm43.828 0c-4.934-1.738-9.44-3.176-15.513-3.74l-.933-.542c3.407-2.81 6.77-4.727 10.13-4.727 2.11 0 6.379 1.504 7.355 9.442l-1.039-.432z" fill="#000"/>
  <path d="M67.03 6.817C69.51 1.811 71.78 0 73.05 0c1.567 0 3.414 2.616 4.865 6.003l.305.767-1.275-.104c-.836-.165-3.219-.197-4.128-.197-.934 0-2.946 0-4.159.119l-1.628.229z" fill="#000"/>
  <path d="M47.462 119.637l-3.593 6.815c-1.085 2.048-2.202 3.348-4.035 2.245-1.805-1.07-1.386-2.623-.279-4.739l3.603-6.823-2.906-1.692-3.807 7.211c-2.095 3.97.542 6.431 2.607 7.625 2.205 1.281 5.413 2.233 7.49-1.707l3.834-7.243-2.914-1.692zm46.201 14.04l-1.21-3.91 3.605-1.221-.5-1.626-3.609 1.227-1.026-3.341 3.69-1.271-.497-1.609-6.756 2.305 3.755 12.112 7.446-2.534-.49-1.616-4.408 1.484zm7.717-15.674l-4.112 2.488 6.088 11.079 4.096-2.485c4.233-2.562 4.636-6.442 2.968-9.555-2.006-3.694-5.318-3.779-9.04-1.527zm6.214 3.372c1.541 2.835 1.228 4.902-1.146 6.329l-1.132.691-4.47-8.104 1.217-.74c2.851-1.719 4.47-.188 5.531 1.824zm-32.895 5.191l.22 1.66 3.399-.504 1.469 10.949 3.16-.46-1.465-10.943 3.349-.488-.23-1.683-9.902 1.469zm-2.878.104l-3.182-.183-.637 12.723 3.185.178.634-12.718zm-9.663-1.555l-2.216 8.693-4.149-10.485-2.58-.728-3.144 12.309 2.81.783 2.235-8.766 4.211 10.575 2.524.714 3.132-12.313-2.823-.782zM45.412 44.79v59.672l27.19 18.333 27.189-18.333.04-59.58c-.87-.806-2.679-2.573-4.096-3.497h-46.39c-1.175.865-3.526 2.947-3.933 3.405z" fill="#FFE500"/>
  <g filter="url(#vWyitJAHW8hc)">
    <path d="M45.412 20.552v83.91l27.19 18.333 27.189-18.333.04-83.82" stroke="#B54005" stroke-width="10" stroke-miterlimit="3.863"/>
  </g>
  <path d="M83.47 87.604v-2.218s-.562-.912-1.954-.912c-1.388 0-2.219.44-2.219.806 0 .6 1.243 2.324 4.173 2.324zM72.506 67.971l2.101-3.85 1.647 3.85h2.728c-1.64 1.616-2.311 4.06-2.311 5.691v1.777c0 .755-.362 2.004-.362 2.004s2.368 1.894 2.732 2.222c.151.125.317.202.208.53-.188.554-1.796 1.315-1.96 1.46-.364.338-.459.542-.364.877.115.322.416.382 1.033.153.622-.21 1.911-.92 2.992-1.406 1.077-.492 2.52-.367 2.52-.367V78.74h-4.074v-6.907l-.719-1.217 1.796-3.358 1.807 3.38-.711 1.195v3.607h2.075v-3.606l-.715-1.196 1.802-3.355 1.794 3.355-.709 1.195v3.607h2.09v-3.606l-.74-1.196 1.809-3.355 1.802 3.355-.72 1.195.035 6.896h-4.106v3.19c.931.917 1.81 2.995 1.81 4.219 0 1.253-.778 1.783-.778 1.783.261.984.21 1.393.1 2.284-.1.905-1.177 2.317-1.177 2.317v16.482c0 1.12-2.47 1.009-2.47.053V92.892c-1.4-1.605-5.206-2.866-5.206-2.866-1.397 1.465-2.255 4.01-2.255 4.01.606.445 1.55 0 1.905-.433.35-.433 1.067-.545 1.481-.272.406.272.508.376.368 1.012-.16.67-.414 1.74-.414 2.489 0 .768.822.596 1.437.653 1.24.115 1.444 1.57 1.341 2.381-.1.817-.464 2.549-.464 3.626 0 1.067.054 2.144.155 2.755.107.589.31 1.24.253 2.001-.063 1.024-.663 1.188-1.285.53-.615-.646-9.217-10.269-9.217-10.269-.572 1.957 1.809 5.295 2.577 6.325.774 1.031.723 1.788.046 2.494-.663.698-1.954 1.071-2.206 1.728-.263.636.616 2.596 2.424 5.025 1.803 2.426-2.069 4.055-4.379 4.54-2.325.479-2.325-1.196-2.164-2.114.154-.909.154-1.463.097-2.262-.05-.814-.761-1.943-1.75-3.293-.975-1.357-.975-2.591-.57-5.736.41-3.136.314-5.138.314-5.138s-1.03.045-2.526 0c-1.487-.059-2.722-.964-2.827-4.751-.103-3.777-.188-12.795-.432-13.74-.239-.936-1.203-1.108-1.609-1.233-.422-.11-.442-.748-.034-.977 1.075-.55 2.364-1.934 1.887-2.795-.483-.863-2.376-.685-3.643-.034-1.271.645-2.61 2.061-2.956 2.447-.334.382-.623.382-.586-.03.042-.44-.235-2.504-.398-3.218-.182-.721-.797-2.085-1.005-2.445-.204-.363 0-.503.348-.363.333.145 1.097.478 1.814.677.724.229 1.413-.144 1.742-.853.344-.731 1.015-2.273 1.358-2.962.337-.68.883-.528 1.332-.424.444.11.857.399 1.267.57.408.179.75.145.895-.074.14-.208.309-.286.556-.825.24-.538.539-.282.577-.067 1.229 7.752 4.43 8.108 4.43 8.108-.481 1.291-1.609 3.35-1.875 3.87-.29.485-.397 1.176-.467 1.713-.055.534.178 5.655.52 7.532.347 1.878 1.44 1.147 1.796.572.329-.572 1.402-2.956 1.402-2.956s.265-.648.265-1.187c0-.543-.89-1.72-1.094-2.087-.212-.373-.962-1.087-.962-2.892 0-1.798 1.544-3.045 2.1-3.517.55-.473.55-1.129.475-1.523-.24-1.391-1.649-4.317-2.326-5.439a731.75 731.75 0 00-2.03-3.24h2.78l1.79-3.901 1.948 3.918 2.035.02zm-.45 11.82c.907-1.574 1.286-3.209 1.286-3.209H70.72s.42 1.673 1.335 3.208zm-2.733-7.933c.105.806.677 1.113 1.112.878.432-.25.357-.904.036-1.425-.307-.511-.946-1.082-1.142-.997-.2.087-.075 1.069-.006 1.544zm5.2-1.544c-.188-.084-.861.486-1.18.997-.308.521-.386 1.175.05 1.425.426.235.976-.079 1.113-.878.075-.475.223-1.457.016-1.544" fill="url(#vWyitJAHW8hd)"/>
  <path d="M47.546 59.666v3.592H97.71v-3.592h-3.7v.58H51.245v-.58h-3.7zm.002-16.142h50.156v14.312H47.548V43.524z" fill="#DA020E"/>
  <path d="M56.167 53.681l3.84.99 2.074-6.062v-1.535l-5.914 6.607zm31.658 3.574v-1.867h-3.626v-1.57h2.963v-6.92h-2.73l-.934-1.905-.911 1.905h-2.738v6.92h2.974v1.57h-7.13v-1.57h2.966v-6.92h-2.734L75 44.993l-.933 1.905h-2.726v6.92h2.98v1.57h-7.278v-1.57h2.972v-6.92h-2.738l-.915-1.905-.94 1.905h-2.728v6.92h2.983v1.57l-5.759.019-5.729-1.404 1.148 3.252h32.487z" fill="#FFE500"/>
  <path d="M50.98 10.256c4.84-1.7 8.5-3.026 14.463-3.582-2.748-2.001-5.187-3.696-7.991-3.696-1.475 0-2.736.592-3.027 1.673-.271.984.468 1.413.731 1.347.275-.074.47-.16.404-.426-.07-.282.138-.999 1.075-.999.954 0 1.314.927 1.314 1.563 0 .636-.962 1.698-2.73 1.698-1.734 0-2.623-1.213-2.556-2.334-.837 1.285-1.324 2.584-1.684 4.756" fill="url(#vWyitJAHW8he)"/>
  <path d="M17.242 40.676l3.932-5.604c.227-1.03.407-3.85-.85-5.852-1.374-2.212-3.185-1.338-3.716-1.082-.336.157-.946.615-1.322 1.253 0 0-3.78 4.369-7.941 8.666-.588.613-1.235 1.733-1.29 2.77-.05.92.304 1.845.813 2.421 1.138 1.273 3.126 1.222 4.142.395l.071 3.503c1.047-.885 4.821-4.684 6.161-6.47z" fill="#000"/>
  <path d="M72.603 32.52c22.389 0 35.127 22.052 37.908 25.924 4.938 6.916 10.984 12.531 17.99 10.676 10.291-2.763 9.756-18.76 9.756-18.76-2.484-1.876-6.715-4.238-14.43-15.713-7.555-11.25-24.652-27.913-51.224-27.913-26.578 0-43.671 16.664-51.209 27.913C13.671 46.122 9.426 48.484 6.967 50.36c0 0-.556 15.996 9.744 18.759 7.001 1.855 13.043-3.76 17.99-10.676 2.77-3.872 15.517-25.924 37.902-25.924v0z" fill="#FFE500" stroke="#000" stroke-width="2.098" stroke-miterlimit="3.863"/>
  <path d="M72.603 30.426c21.585 0 34.422 19.213 39.065 26.145 6.143 8.606 11.345 11.854 16.342 10.52 7.222-1.929 8.119-12.36 8.216-15.516v-.126l-.081-.065c-2.546-1.852-6.806-4.92-13.943-15.537-4.257-6.34-20.421-27.041-49.6-27.041-29.168 0-45.346 20.702-49.601 27.041-7.079 10.55-11.53 13.766-13.915 15.484l-.1.087.011.11c.097 3.163.997 13.649 8.2 15.564 5.004 1.333 10.215-1.915 16.343-10.52 4.638-6.933 17.488-26.146 39.063-26.146" fill="#DA020E"/>
  <path d="M60.876 14.375c-3.96.88-6.57 3.944-5.715 8.098.497 2.243 2.405 6.372 8.439 5.025 1.675-.335 2.58-1.035 3.457-1.915l-1.1-1.325c-.413.484-1.032 1.188-2.42 1.49-2.92.647-4.656-1.831-5.088-3.97-.643-3.17 1.117-5.355 3.106-5.806 1.42-.329 2.281.076 2.827.299h.018l.37-1.625c-.958-.403-2.108-.67-3.894-.271zM93.999 32.65c2.265 1.43 4.736 1.187 5.892-.821.841-1.404.849-2.57-.162-4.659-.26-.591-.602-1.015-.83-1.554-.447-.873-.859-1.588-.475-2.264.424-.734 1.406-.794 2.296-.223.931.591 1.317 1.569 1.513 2.237l1.461-.662c-.449-1.26-1.113-2.39-2.633-3.333-2.597-1.641-4.708-1.209-5.587.329-.891 1.546-.639 2.833.032 4.152 0 0 .416.748.657 1.259.588 1.03 1.273 2.33.792 3.142-.582 1.025-1.584 1.247-2.56.611-1.25-.827-1.544-1.79-1.805-2.729l-1.606.721c.354 1.293 1.184 2.634 3.015 3.794zM76.706 13.706l-.091 5.191-4.757-.072.07-5.21-3.188-.061-.212 12.737 3.195.072.1-5.84 4.766.092-.091 5.829 3.19.05.208-12.737-3.19-.05zm45.681 40.447c.023.031 1.872.99 3.927-.946 1.717-1.62 1.141-3.84-.653-5.925l-3.308-3.857-9.018 8.529 2.132 2.48 3.59-3.38 1.037 1.228-2.273 5.382 2.722 2.281 1.844-5.792zm1.611-6.275c.845.984.859 2.152-.123 3.06-.956.924-2.177.712-3.104-.356l-.54-.634 3.054-2.895.713.825zm-14.074-3.254l3.021-2.631 2.423 3.026 1.252-1.097-2.437-3.038 2.557-2.258 2.495 3.119 1.239-1.084-4.559-5.702-9.293 8.19 5.019 6.286 1.253-1.092-2.97-3.719zm-3.484-19.14l-1.083 1.247 2.546 2.415-7.056 8.215 2.38 2.245 7.046-8.216 2.514 2.375 1.079-1.247-7.426-7.034zm-20.778.808l1.285-3.885 3.574 1.294.532-1.616-3.581-1.291 1.09-3.327 3.683 1.325.517-1.607-6.71-2.424-3.945 12.063 7.396 2.657.525-1.607-4.367-1.582zm-38.432-6.24l4.559 7.624-10.15-3.975-2.26 1.488 6.437 10.82 2.45-1.62-4.588-7.703 10.255 3.995 2.214-1.457L49.7 18.41l-2.469 1.641zm-14.197 11.52l-2.076 2.337 5.818 12.14 1.42-1.595-1.58-3.23 2.81-3.17 3.184 1.417 2.34-2.63-11.916-5.269zm4.906 5.78l-2.108 2.375-2.166-4.368 4.274 1.994zm-11.762 1.924l-2.26 2.822 4.221 9.16-9.052-3.11-1.948 2.42 9.301 8.196 1.413-1.76-6.574-5.805 8.81 3.01.928-1.153-4.201-8.834 6.602 5.808 2.06-2.56-9.3-8.194z" fill="#FFE500"/>
  <path d="M11.968 45.767l-.01-2.81c4.569-4.401 6.723-8.824 6.723-8.824s-1.68-.664-2.431-1.667c-.372-.558-.515-1.319-.453-1.83.146-.958.857-1.444 1.1-1.554.525-.238 1.5-.776 2.588.793 1.158 1.698.853 4.921.693 5.664 0 0-2.13 3.89-8.21 10.228" fill="url(#vWyitJAHW8hf)"/>
  <path d="M17.025 34.645c-.616 1.128-2.17 3.851-6.1 7.717-.653.642-2.282 1.187-3.205.1a2.475 2.475 0 01-.54-1.701c.045-.795.5-1.72.956-2.127.792-.702 4.169-4.279 6.57-7.093.066.513.486 1.372.486 1.372.332.48.736 1.169 1.833 1.733" fill="url(#vWyitJAHW8hg)"/>
  <path d="M72.481 122.384c-14.403 0-30.793-8.918-42.864-23.346-1.229-1.465-2.793-3.35-6.515-3.35-2.174 0-4.64 1.221-6.274 3.11-1.23 1.404-2.611 3.879-2.28 7.672.48 5.183 8.305 18.594 22.254 26.923 11.243 6.711 23.248 10.102 35.68 10.102" fill="url(#vWyitJAHW8hh)"/>
  <path d="M72.481 122.383c14.404 0 30.794-8.918 42.865-23.346 1.229-1.465 2.793-3.35 6.515-3.35 2.174 0 4.639 1.221 6.274 3.11 1.231 1.404 2.611 3.879 2.28 7.672-.479 5.183-8.305 18.594-22.254 26.923-11.243 6.711-23.248 10.102-35.68 10.102" fill="url(#vWyitJAHW8hi)"/>
  <path d="M111.668 56.57c6.143 8.606 11.345 11.855 16.342 10.52 7.222-1.929 8.119-12.359 8.216-15.516v-.125l-.081-.066c-2.546-1.851-6.805-4.92-13.943-15.536" fill="url(#vWyitJAHW8hj)"/>
  <path d="M33.558 56.57c-6.144 8.606-11.345 11.855-16.342 10.521-7.222-1.93-8.12-12.36-8.217-15.517v-.125l.081-.066c2.546-1.851 6.806-4.92 13.943-15.536" fill="url(#vWyitJAHW8hk)"/>
  <path d="M94.246 10.256c-4.841-1.7-8.501-3.026-14.464-3.582 2.748-2.001 5.187-3.696 7.992-3.696 1.475 0 2.736.592 3.027 1.674.27.983-.469 1.412-.732 1.346-.275-.074-.47-.16-.404-.426.07-.282-.137-.999-1.075-.999-.954 0-1.313.927-1.313 1.563 0 .636.962 1.698 2.73 1.698 1.733 0 2.622-1.213 2.556-2.334.836 1.285 1.323 2.584 1.683 4.756" fill="url(#vWyitJAHW8hl)"/>
  <path d="M72.831 3.587c-.151.972-1.216 1.902-2.293 1.902-1.08 0-1.403-.182-1.403-.182-.163.267-.307.473-.476.761.978-.04 3.247-.106 4.156-.106.907 0 3.423.138 3.965.178-.875-2.152-2.563-5.13-3.728-5.13-.04-.001-.091-.005-.154-.005-.273 0-1.218.86-1.724 1.615-.665.991 1.657.967 1.657.967z" fill="url(#vWyitJAHW8hm)"/>
  <path d="M133.258 45.767l.01-2.81c-4.569-4.401-6.723-8.824-6.723-8.824s1.679-.664 2.431-1.667c.372-.558.515-1.319.453-1.83-.146-.958-.857-1.444-1.1-1.554-.525-.238-1.501-.776-2.588.793-1.158 1.698-.853 4.921-.693 5.664 0 0 2.129 3.89 8.21 10.228" fill="url(#vWyitJAHW8hn)"/>
  <path d="M128.203 34.647c.617 1.128 2.17 3.85 6.101 7.716.652.642 2.281 1.187 3.205.1a2.478 2.478 0 00.539-1.701c-.044-.795-.499-1.72-.956-2.127-.792-.702-4.168-4.279-6.569-7.093-.067.514-.487 1.372-.487 1.372-.331.48-.736 1.169-1.833 1.733" fill="url(#vWyitJAHW8ho)"/>
  <path d="M45.412 44.79v59.672l27.19 18.333 27.189-18.333.04-59.58c-.87-.806-2.679-2.573-4.096-3.497h-46.39c-1.175.865-3.526 2.947-3.933 3.405h0z" stroke="#000" stroke-width="2.098" stroke-miterlimit="3.863"/>
  <path d="M92.537 143.514c-2.669.743-4.576 1.37-9.072 1.943 0 0 .143.477 1.121.439.374-.026.424-.123.554-.147.289-.055.707.253.665.764-.045.36-.332.808-1.33.808s-2.16-.853-2.748-1.65c0 0-.596.146-1.217.178 0 0 1.922 2.816 5.697 2.816 4.144 0 5.688-3.904 6.33-5.151" fill="url(#vWyitJAHW8hp)"/>
  <path d="M2 82.263C2 75.064 7.567 69.21 14.435 69.21c6.87 0 12.434 5.854 12.434 13.053 0 7.211-5.563 13.053-12.434 13.053C7.567 95.316 2 89.474 2 82.263z" fill="#FFE500" stroke="#000" stroke-width="2.098" stroke-miterlimit="3.863"/>
  <path d="M4.847 81.778c0-5.458 4.292-9.897 9.588-9.897 5.298 0 9.587 4.439 9.587 9.897 0 5.467-4.29 9.896-9.587 9.896-5.296 0-9.588-4.429-9.588-9.896z" fill="url(#vWyitJAHW8hq)"/>
  <path d="M17.075 91.234c-.546.182-.782-.219-1.03-.507-.969-1.169-1.217-4.28-1.217-4.69 0-.414.145-.868.422-.878 2.334-.047 4.001-.757 5.53-2.091 1.528-1.31 2.191-2.814 2.326-3.081.134-.297.451-.244.51.168.064.343.188.96.188 1.628a9.942 9.942 0 01-6.73 9.45zm-2.463.405c-.067 0-.142.008-.205.008-1.72 0-3.613-.689-4.734-1.36-1.162-.663-1.598-3.793-1.598-5.374 0-5.15 2.012-8.217 2.34-8.819.319-.61 1.038-.674 1.566-.526.545.166.74.265 1.367.46.328.113.993.255 1.492.348.499.125 1.036.235.713 1.213-.32.98-1.406 3.333-1.515 6.124-.106 2.525.214 5.033.757 6.575.358.996.358 1.37-.184 1.35zM7.506 79.88c-.459-.254-1.01-1.497-1.197-1.86-.125-.26-.125-1.007.055-1.325.768-1.41 1.857-2.716 3.26-3.397.171-.078.412-.093.412.34 0 .23.119.591.123.82 0 .231.093.704-.186 1.077-.293.376-1.548 2.71-1.87 4.019-.052.292-.137.6-.597.326zm-.259 8.265c-1.301-1.348-2.229-3.791-2.229-6.363 0-.999.142-1.955.394-2.862 0 0 .233-.408.435-.062.155.254.37.511.543.85.194.34 1.2 1.143 1.116 1.798-.352 2.407-.037 5.605.072 6.143.097.532-.042.76-.33.496zm4.108-15.686a9.292 9.292 0 013.051-.524c1.61 0 3.175.307 4.48 1.18.336.23.43.497.43.894 0 1.29-1.923 1.724-3.196 1.724-1.281 0-2.857-.533-3.973-.904-1.111-.364-1.354-1.039-1.354-1.346 0-.295.217-.906.562-1.024zm8.685 1.435l.627.532c.897.86 1.707 1.839 2.178 3.013.588 1.48-1.237 3.722-1.772 4.24-2.417 2.38-3.93 2.336-4.787 2.465-.857.132-1.413-.432-1.39-1.109.054-1.98 1.398-5.394 1.784-6.037.246-.413.675-.67.675-.67.897-.26 1.768-.653 2.218-1.191.44-.547.467-1.243.467-1.243zm-5.54-2.602c-5.778 0-10.456 4.911-10.456 10.97 0 6.061 4.678 10.97 10.455 10.97 5.773 0 10.461-4.909 10.461-10.97 0-6.059-4.688-10.97-10.46-10.97" fill="#DA020E"/>
  <path d="M118.597 82.237c0-7.199 5.567-13.032 12.435-13.032 6.872 0 12.435 5.833 12.435 13.032 0 7.211-5.563 13.055-12.435 13.055-6.868 0-12.435-5.844-12.435-13.055z" fill="#FFE500" stroke="#000" stroke-width="2.098" stroke-miterlimit="3.863"/>
  <path d="M138.317 88.102c-.273.282-.427.036-.311-.492.095-.524.412-3.732.058-6.139-.087-.653.926-1.455 1.112-1.798.185-.337.398-.6.547-.846.208-.356.429.042.429.042.266.918.396 1.879.396 2.874 0 2.58-.94 5.014-2.231 6.359zm-.843-8.582c-.323-1.304-1.586-3.649-1.871-4.022-.287-.36-.196-.84-.192-1.07 0-.23.125-.597.125-.834 0-.414.239-.405.408-.327 1.411.68 2.494 1.968 3.27 3.39.172.325.176 1.067.048 1.32-.181.364-.729 1.607-1.198 1.87-.469.27-.537-.045-.59-.327zm-1.57 10.732c-1.123.66-3.017 1.355-4.745 1.355h-.2c-.531.014-.543-.374-.179-1.366.527-1.529.856-4.048.747-6.567-.109-2.803-1.182-5.131-1.515-6.117-.324-.978.216-1.097.721-1.207.501-.104 1.164-.256 1.493-.366.619-.198.819-.297 1.364-.46.532-.145 1.247-.073 1.572.523.32.61 2.336 3.696 2.336 8.834 0 1.573-.44 4.698-1.594 5.37zm-7.402.941a9.943 9.943 0 01-6.733-9.45c0-.66.124-1.27.174-1.627.075-.411.37-.48.517-.176.136.276.807 1.777 2.326 3.092 1.54 1.323 3.191 2.046 5.539 2.097.285.015.418.453.418.875 0 .418-.24 3.522-1.204 4.682-.257.297-.503.704-1.037.507zm-5.767-13.787c.459-1.174 1.273-2.171 2.17-3.01 0 0 .445-.395.617-.533 0 0 .036.702.483 1.228.444.53 1.307.946 2.204 1.194 0 0 .423.269.675.682.398.624 1.732 4.033 1.79 6.029.017.678-.533 1.242-1.392 1.113-.861-.121-2.37-.093-4.785-2.462-.533-.52-2.358-2.757-1.762-4.24zm3.945-4.325c1.323-.878 2.867-1.186 4.479-1.186a9.31 9.31 0 013.054.526c.357.117.568.721.568 1.024 0 .3-.237.982-1.356 1.349-1.116.36-2.686.899-3.965.899-1.287 0-3.205-.439-3.205-1.724 0-.388.093-.67.425-.888zm4.38-1.815c-5.771 0-10.451 4.912-10.451 10.956 0 6.077 4.68 10.97 10.451 10.97 5.782 0 10.462-4.893 10.462-10.97 0-6.043-4.68-10.956-10.462-10.956z" fill="#DA020E"/>
  <path d="M121.586 81.73c0-5.458 4.293-9.897 9.589-9.897 5.297 0 9.587 4.439 9.587 9.897 0 5.467-4.29 9.896-9.587 9.896-5.296 0-9.589-4.429-9.589-9.896z" fill="url(#vWyitJAHW8hr)"/>
  <defs>
    <radialGradient id="vWyitJAHW8ha" cx="0" cy="0" r="1" gradientUnits="userSpaceOnUse" gradientTransform="matrix(4.87259 0 0 3.8009 72.946 147.851)">
      <stop stop-color="#FFE500"/>
      <stop offset=".5" stop-color="#FFE500"/>
      <stop offset="1" stop-color="#E15007"/>
    </radialGradient>
    <radialGradient id="vWyitJAHW8hb" cx="0" cy="0" r="1" gradientUnits="userSpaceOnUse" gradientTransform="matrix(5.15234 0 0 4.86124 59.561 146.09)">
      <stop stop-color="#FFE500"/>
      <stop offset=".5" stop-color="#FFE500"/>
      <stop offset="1" stop-color="#E15007"/>
    </radialGradient>
    <radialGradient id="vWyitJAHW8he" cx="0" cy="0" r="1" gradientUnits="userSpaceOnUse" gradientTransform="matrix(5.89068 0 0 5.88555 57.126 6.936)">
      <stop stop-color="#FFE500"/>
      <stop offset=".5" stop-color="#FFE500"/>
      <stop offset="1" stop-color="#E15007"/>
    </radialGradient>
    <radialGradient id="vWyitJAHW8hf" cx="0" cy="0" r="1" gradientUnits="userSpaceOnUse" gradientTransform="matrix(4.55791 -8.37614 7.18406 3.90923 14.306 38.313)">
      <stop stop-color="#FFE500"/>
      <stop offset=".5" stop-color="#FFE500"/>
      <stop offset="1" stop-color="#E15007"/>
    </radialGradient>
    <radialGradient id="vWyitJAHW8hl" cx="0" cy="0" r="1" gradientUnits="userSpaceOnUse" gradientTransform="matrix(-5.89067 0 0 -5.88556 88.1 6.936)">
      <stop stop-color="#FFE500"/>
      <stop offset=".5" stop-color="#FFE500"/>
      <stop offset="1" stop-color="#E15007"/>
    </radialGradient>
    <radialGradient id="vWyitJAHW8hm" cx="0" cy="0" r="1" gradientUnits="userSpaceOnUse" gradientTransform="matrix(4.45035 0 0 4.46365 72.614 4.074)">
      <stop stop-color="#FFE500"/>
      <stop offset=".5" stop-color="#FFE500"/>
      <stop offset="1" stop-color="#E15007"/>
    </radialGradient>
    <radialGradient id="vWyitJAHW8hn" cx="0" cy="0" r="1" gradientUnits="userSpaceOnUse" gradientTransform="matrix(-4.5579 -8.37612 7.184 -3.9092 130.92 38.313)">
      <stop stop-color="#FFE500"/>
      <stop offset=".5" stop-color="#FFE500"/>
      <stop offset="1" stop-color="#E15007"/>
    </radialGradient>
    <radialGradient id="vWyitJAHW8hp" cx="0" cy="0" r="1" gradientUnits="userSpaceOnUse" gradientTransform="matrix(-5.15235 0 0 -4.86127 86.524 146.09)">
      <stop stop-color="#FFE500"/>
      <stop offset=".5" stop-color="#FFE500"/>
      <stop offset="1" stop-color="#E15007"/>
    </radialGradient>
    <radialGradient id="vWyitJAHW8hq" cx="0" cy="0" r="1" gradientUnits="userSpaceOnUse" gradientTransform="matrix(9.58758 0 0 9.89665 14.434 81.778)">
      <stop stop-color="#DA030E" stop-opacity="0"/>
      <stop offset=".875" stop-color="#DA020E" stop-opacity="0"/>
      <stop offset="1" stop-color="#DA020E"/>
    </radialGradient>
    <radialGradient id="vWyitJAHW8hr" cx="0" cy="0" r="1" gradientUnits="userSpaceOnUse" gradientTransform="matrix(9.58758 0 0 9.89664 131.174 81.73)">
      <stop stop-color="#DA030E" stop-opacity="0"/>
      <stop offset=".875" stop-color="#DA020E" stop-opacity="0"/>
      <stop offset="1" stop-color="#DA020E"/>
    </radialGradient>
    <linearGradient id="vWyitJAHW8hd" x1="71.2" y1="63.852" x2="71.2" y2="92.236" gradientUnits="userSpaceOnUse">
      <stop stop-color="#8F0904"/>
      <stop offset=".25" stop-color="#B40509"/>
      <stop offset="1" stop-color="#DA020E"/>
    </linearGradient>
    <linearGradient id="vWyitJAHW8hg" x1="13.071" y1="34.477" x2="15.424" y2="36.941" gradientUnits="userSpaceOnUse">
      <stop stop-color="#FFE500"/>
      <stop offset=".5" stop-color="#FFE500"/>
      <stop offset="1" stop-color="#E15007"/>
    </linearGradient>
    <linearGradient id="vWyitJAHW8hh" x1="18.145" y1="98.452" x2="34.43" y2="116.263" gradientUnits="userSpaceOnUse">
      <stop stop-color="#740703"/>
      <stop offset="1" stop-color="#DA020E" stop-opacity="0"/>
    </linearGradient>
    <linearGradient id="vWyitJAHW8hi" x1="126.817" y1="98.451" x2="110.533" y2="116.262" gradientUnits="userSpaceOnUse">
      <stop stop-color="#740703"/>
      <stop offset="1" stop-color="#DA020E" stop-opacity="0"/>
    </linearGradient>
    <linearGradient id="vWyitJAHW8hj" x1="132.544" y1="64.242" x2="123.815" y2="56.414" gradientUnits="userSpaceOnUse">
      <stop stop-color="#740703"/>
      <stop offset="1" stop-color="#DA020E" stop-opacity="0"/>
    </linearGradient>
    <linearGradient id="vWyitJAHW8hk" x1="12.681" y1="64.242" x2="21.975" y2="54.895" gradientUnits="userSpaceOnUse">
      <stop stop-color="#740703"/>
      <stop offset="1" stop-color="#DA020E" stop-opacity="0"/>
    </linearGradient>
    <linearGradient id="vWyitJAHW8ho" x1="132.157" y1="34.478" x2="129.804" y2="36.942" gradientUnits="userSpaceOnUse">
      <stop stop-color="#FFE500"/>
      <stop offset=".5" stop-color="#FFE500"/>
      <stop offset="1" stop-color="#E15007"/>
    </linearGradient>
    <filter id="vWyitJAHW8hc" x="34.229" y="14.369" width="76.785" height="120.639" filterUnits="userSpaceOnUse" color-interpolation-filters="sRGB">
      <feFlood flood-opacity="0" result="BackgroundImageFix"/>
      <feBlend in="SourceGraphic" in2="BackgroundImageFix" result="shape"/>
      <feGaussianBlur stdDeviation="3.091" result="effect1_foregroundBlur_1078:23378"/>
    </filter>
  </defs>
</svg>
