<svg xmlns="http://www.w3.org/2000/svg" fill="none" viewBox="0 0 145 152">
  <path d="M79.797 145.332c-.576 1.777-2.41 6.135-6.852 6.135-5.052 0-6.804-5.736-6.889-5.978l-.15-.543s4.351.38 6.748.38c2.39 0 6.486-.248 7.15-.38l-.007.386z" fill="#000"/>
  <path d="M93.052 142.505l1.037.138c-1.237 3.39-3.457 7.19-7.81 7.19-4.245 0-6.339-2.579-7.216-4.302l-.742-.475s7.313-.248 14.731-2.551m-40.062 0l-1.036.138c1.23 3.39 3.461 7.19 7.828 7.19 4.221 0 6.496-2.714 7.434-4.302l.503-.475s-7.3-.248-14.729-2.551" fill="#000"/>
  <path d="M76.489 145.693c-.69 1.035-1.152.982-1.967.982-.422 0-1.028.356-1.022 1.013.018.518.42.938 1.081.938 1.503 0 2.653-2.187 2.958-3.117 0 0 .881-.039 1.138-.066 0 0-1.576 4.945-5.678 4.945-4.108 0-5.783-4.886-5.783-4.886s3.463.221 5.437.221c1.98 0 3.241-.019 3.835-.03" fill="url(#MW7NtrvrYJa)"/>
  <path d="M53.546 143.515c2.67.742 4.577 1.37 9.073 1.943 0 0-.143.477-1.121.438-.374-.025-.425-.123-.554-.146-.289-.055-.707.252-.665.763.045.361.332.808 1.33.808s2.16-.852 2.748-1.649c0 0 .596.146 1.216.178 0 0-1.921 2.816-5.696 2.816-4.144 0-5.688-3.904-6.33-5.151" fill="url(#MW7NtrvrYJb)"/>
  <path d="M72.603 120.338c14.315 0 30.173-9.22 41.307-22.51 1.212-1.438 3.243-4.169 8.079-4.169 4.843 0 11.281 4.633 10.527 13.064-.561 6.141-8.925 19.995-23.246 28.517-14.316 8.556-27.505 10.386-36.667 10.386-9.17 0-22.347-1.83-36.671-10.386-14.32-8.522-22.68-22.376-23.238-28.517-.754-8.43 5.686-13.064 10.52-13.064 4.847 0 6.886 2.731 8.094 4.169 11.118 13.29 26.984 22.51 41.295 22.51v0z" fill="#FFE500" stroke="#000" stroke-width="2.098" stroke-miterlimit="3.863"/>
  <path d="M72.482 122.383c-14.404 0-30.794-8.919-42.865-23.346-1.229-1.465-2.793-3.35-6.515-3.35-2.174 0-4.64 1.221-6.274 3.11-1.23 1.404-2.61 3.879-2.28 7.672.48 5.182 8.306 18.594 22.254 26.923 11.243 6.711 23.248 10.102 35.68 10.102 12.443 0 24.448-3.391 35.691-10.102 13.945-8.329 21.783-21.741 22.244-26.923.345-3.793-1.045-6.268-2.259-7.671-1.643-1.89-4.115-3.111-6.279-3.111-3.738 0-5.3 1.885-6.517 3.35-12.065 14.427-28.475 23.346-42.88 23.346z" fill="#DA020E"/>
  <path d="M134.442 47.144l.051-3.502c1.028.824 2.962.837 4.094-.429.515-.577.808-1.47.765-2.387a4.528 4.528 0 00-1.234-2.873 227.022 227.022 0 01-7.891-8.565c-.384-.636-.984-1.096-1.332-1.253-.511-.257-2.329-1.128-3.716 1.081-1.25 2.002-1.064 4.824-.824 5.855l3.918 5.604c1.342 1.786 5.123 5.583 6.169 6.47zM50.695 10.82c4.932-1.738 9.442-3.175 15.52-3.74l.922-.542c-3.393-2.81-6.763-4.727-10.12-4.727-2.107 0-6.395 1.504-7.35 9.442l1.028-.432zm43.826.001c-4.934-1.739-9.44-3.176-15.512-3.74l-.934-.543c3.407-2.81 6.77-4.727 10.13-4.727 2.11 0 6.379 1.504 7.355 9.443l-1.039-.433z" fill="#000"/>
  <path d="M67.03 6.817C69.51 1.811 71.78 0 73.05 0c1.568 0 3.415 2.617 4.865 6.003l.305.767-1.275-.103c-.836-.166-3.219-.198-4.128-.198-.933 0-2.946 0-4.158.12l-1.63.228z" fill="#000"/>
  <path d="M47.464 119.638l-3.593 6.815c-1.085 2.048-2.203 3.348-4.035 2.245-1.805-1.071-1.387-2.623-.28-4.739l3.604-6.823-2.906-1.692-3.807 7.211c-2.096 3.969.541 6.431 2.607 7.625 2.204 1.281 5.413 2.233 7.49-1.707l3.834-7.243-2.914-1.692zm46.2 14.04l-1.21-3.91 3.605-1.221-.499-1.627-3.609 1.228-1.026-3.342 3.69-1.27-.498-1.609-6.755 2.305 3.755 12.112 7.446-2.534-.491-1.616-4.407 1.484zm7.718-15.674l-4.112 2.487 6.088 11.08 4.096-2.486c4.233-2.561 4.635-6.441 2.968-9.554-2.006-3.694-5.318-3.779-9.04-1.527zm6.213 3.372c1.542 2.835 1.229 4.902-1.145 6.329l-1.132.691-4.47-8.104 1.217-.74c2.851-1.72 4.469-.189 5.53 1.824zm-32.894 5.191l.22 1.66 3.399-.504 1.469 10.949 3.16-.46-1.465-10.943 3.348-.488-.23-1.683-9.901 1.469zm-2.878.104l-3.182-.183-.637 12.723 3.185.178.634-12.718zm-9.663-1.556l-2.216 8.694-4.149-10.485-2.58-.728-3.145 12.309 2.811.783 2.235-8.766 4.211 10.574 2.524.715 3.132-12.313-2.823-.783zM45.411 44.79v59.673l27.19 18.333 27.189-18.333.04-59.581c-.87-.806-2.68-2.572-4.096-3.496h-46.39c-1.175.865-3.527 2.947-3.933 3.405z" fill="#FFE500"/>
  <g filter="url(#MW7NtrvrYJc)">
    <path d="M45.412 20.552v83.91l27.19 18.333 27.189-18.333.04-83.82" stroke="#B54005" stroke-width="10" stroke-miterlimit="3.863"/>
  </g>
  <path d="M83.47 87.604v-2.218s-.561-.912-1.954-.912c-1.388 0-2.218.44-2.218.806 0 .6 1.242 2.324 4.172 2.324zM72.506 67.971l2.102-3.85 1.646 3.85h2.728c-1.64 1.616-2.311 4.06-2.311 5.691v1.777c0 .755-.362 2.004-.362 2.004s2.368 1.894 2.732 2.222c.151.125.317.202.208.53-.188.554-1.796 1.315-1.96 1.46-.364.339-.459.542-.364.877.115.323.417.382 1.033.153.622-.21 1.912-.92 2.993-1.406 1.077-.492 2.52-.367 2.52-.367V78.74h-4.074v-6.906l-.72-1.218 1.797-3.358 1.806 3.38-.711 1.196v3.606h2.075v-3.606l-.715-1.196 1.802-3.355 1.795 3.355-.71 1.196v3.606h2.09v-3.606l-.74-1.196 1.809-3.355 1.802 3.355-.72 1.196.035 6.895h-4.106v3.19c.932.917 1.81 2.995 1.81 4.219 0 1.253-.777 1.783-.777 1.783.26.984.21 1.393.099 2.284-.1.905-1.176 2.317-1.176 2.317v16.482c0 1.12-2.472 1.01-2.472.053V92.892c-1.398-1.605-5.205-2.866-5.205-2.866-1.396 1.465-2.255 4.01-2.255 4.01.606.445 1.55 0 1.905-.433.35-.433 1.067-.545 1.482-.272.406.272.507.376.367 1.012-.16.67-.414 1.74-.414 2.49 0 .767.823.595 1.437.652 1.24.115 1.445 1.57 1.342 2.381-.102.817-.465 2.549-.465 3.626 0 1.067.054 2.144.155 2.755.108.589.31 1.24.253 2.001-.063 1.025-.663 1.188-1.285.53-.615-.646-9.217-10.269-9.217-10.269-.571 1.957 1.809 5.295 2.577 6.326.774 1.03.723 1.787.046 2.493-.662.698-1.954 1.071-2.206 1.728-.263.636.616 2.596 2.425 5.026 1.802 2.425-2.07 4.054-4.38 4.539-2.325.48-2.325-1.196-2.163-2.114.153-.909.153-1.463.097-2.262-.05-.814-.762-1.942-1.75-3.293-.976-1.357-.976-2.591-.57-5.736.41-3.136.313-5.138.313-5.138s-1.03.045-2.526 0c-1.487-.059-2.722-.964-2.827-4.751-.103-3.777-.188-12.795-.432-13.74-.239-.936-1.203-1.107-1.609-1.233-.422-.11-.442-.748-.034-.977 1.075-.55 2.364-1.934 1.887-2.795-.483-.863-2.376-.685-3.643-.034-1.271.645-2.61 2.061-2.956 2.447-.334.382-.623.382-.586-.03.042-.44-.235-2.504-.398-3.218-.182-.721-.797-2.085-1.005-2.445-.204-.363 0-.503.348-.363.333.145 1.097.478 1.815.677.723.229 1.412-.144 1.741-.853.344-.731 1.015-2.273 1.358-2.962.338-.68.883-.528 1.332-.424.444.11.857.399 1.267.57.408.179.75.145.895-.074.14-.207.31-.286.556-.825.24-.538.54-.282.578-.067 1.228 7.752 4.429 8.108 4.429 8.108-.48 1.291-1.609 3.35-1.875 3.87-.29.485-.396 1.177-.467 1.713-.055.534.178 5.655.52 7.532.347 1.878 1.44 1.147 1.796.572.33-.572 1.402-2.956 1.402-2.956s.265-.648.265-1.187c0-.543-.89-1.72-1.093-2.087-.213-.373-.962-1.087-.962-2.892 0-1.798 1.544-3.045 2.1-3.517.549-.473.549-1.129.474-1.523-.24-1.39-1.649-4.317-2.326-5.439a731.75 731.75 0 00-2.03-3.24h2.78l1.79-3.901 1.948 3.918 2.035.02zm-.45 11.82c.907-1.574 1.287-3.209 1.287-3.209H70.72s.42 1.673 1.335 3.209zm-2.733-7.933c.106.806.677 1.113 1.112.878.432-.25.358-.903.036-1.425-.307-.511-.946-1.081-1.142-.997-.2.087-.074 1.07-.005 1.544zm5.2-1.544c-.188-.084-.861.486-1.18.997-.308.522-.386 1.175.05 1.425.427.235.976-.079 1.114-.878.074-.475.222-1.457.016-1.544" fill="url(#MW7NtrvrYJd)"/>
  <path d="M47.545 59.667v3.592H97.71v-3.592h-3.7v.58H51.244v-.58h-3.7zm.003-16.144h50.156v14.313H47.548V43.523z" fill="#DA020E"/>
  <path d="M56.168 53.68l3.841.99 2.074-6.062v-1.535l-5.915 6.607zm31.658 3.574v-1.867h-3.625v-1.57h2.962v-6.92h-2.73l-.933-1.904-.912 1.904H79.85v6.92h2.975v1.57h-7.131v-1.57h2.966v-6.92h-2.734l-.923-1.904-.934 1.904h-2.726v6.92h2.98v1.57h-7.278v-1.57h2.973v-6.92H67.28l-.916-1.904-.94 1.904h-2.727v6.92h2.982v1.57l-5.759.019-5.728-1.404 1.148 3.252h32.486z" fill="#FFE500"/>
  <path d="M50.98 10.255c4.842-1.7 8.502-3.026 14.465-3.582-2.748-2.001-5.187-3.696-7.992-3.696-1.475 0-2.736.592-3.027 1.673-.27.984.469 1.413.731 1.347.275-.074.471-.16.405-.426-.071-.282.137-.999 1.075-.999.953 0 1.313.927 1.313 1.563 0 .636-.962 1.698-2.73 1.698-1.734 0-2.623-1.213-2.556-2.334-.837 1.285-1.324 2.584-1.683 4.756" fill="url(#MW7NtrvrYJe)"/>
  <path d="M17.242 40.676l3.933-5.604c.226-1.03.406-3.85-.851-5.852-1.374-2.212-3.185-1.338-3.716-1.081-.336.156-.946.614-1.322 1.253 0 0-3.78 4.368-7.941 8.666-.588.613-1.235 1.732-1.29 2.769-.05.92.304 1.845.813 2.422 1.138 1.272 3.126 1.22 4.143.394l.07 3.503c1.047-.884 4.822-4.684 6.161-6.47z" fill="#000"/>
  <path d="M72.603 32.52c22.39 0 35.128 22.052 37.908 25.924 4.939 6.917 10.984 12.531 17.99 10.676 10.292-2.763 9.756-18.759 9.756-18.759-2.483-1.877-6.715-4.239-14.43-15.714-7.555-11.249-24.652-27.913-51.224-27.913-26.578 0-43.671 16.664-51.208 27.913C13.672 46.122 9.426 48.484 6.967 50.36c0 0-.556 15.996 9.744 18.76 7.001 1.855 13.043-3.76 17.99-10.677 2.77-3.872 15.517-25.924 37.902-25.924v0z" fill="#FFE500" stroke="#000" stroke-width="2.098" stroke-miterlimit="3.863"/>
  <path d="M72.604 30.425c21.585 0 34.423 19.213 39.065 26.145 6.144 8.606 11.345 11.854 16.343 10.52 7.222-1.929 8.119-12.36 8.216-15.517v-.125l-.081-.065c-2.546-1.851-6.806-4.92-13.943-15.537-4.257-6.34-20.421-27.041-49.6-27.041-29.168 0-45.346 20.701-49.602 27.041-7.078 10.55-11.53 13.766-13.914 15.484l-.101.087.012.11c.097 3.163.996 13.649 8.2 15.564 5.003 1.333 10.215-1.915 16.342-10.52 4.639-6.933 17.489-26.146 39.063-26.146" fill="#DA020E"/>
  <path d="M60.876 14.377c-3.961.88-6.57 3.943-5.715 8.097.497 2.244 2.405 6.372 8.438 5.026 1.676-.335 2.58-1.035 3.458-1.915l-1.1-1.325c-.414.483-1.032 1.187-2.42 1.49-2.92.647-4.656-1.832-5.088-3.971-.643-3.17 1.117-5.354 3.105-5.806 1.421-.329 2.282.076 2.827.3h.019l.37-1.625c-.958-.403-2.108-.67-3.894-.271zM93.999 32.65c2.265 1.431 4.736 1.187 5.892-.82.841-1.404.849-2.57-.162-4.66-.26-.59-.602-1.015-.83-1.553-.447-.874-.859-1.589-.475-2.265.424-.734 1.406-.793 2.295-.223.932.592 1.318 1.57 1.514 2.237l1.461-.661c-.449-1.26-1.114-2.39-2.633-3.333-2.597-1.642-4.708-1.21-5.587.328-.891 1.546-.639 2.833.032 4.152 0 0 .416.748.657 1.26.588 1.03 1.273 2.33.792 3.142-.582 1.024-1.584 1.247-2.56.61-1.251-.826-1.544-1.789-1.805-2.728l-1.606.72c.353 1.294 1.184 2.634 3.015 3.794zM76.706 13.708l-.091 5.19-4.757-.071.07-5.21-3.188-.062-.212 12.738 3.195.072.1-5.84 4.765.091-.09 5.83 3.19.05.208-12.737-3.19-.051zm45.681 40.446c.023.032 1.871.99 3.926-.946 1.718-1.62 1.142-3.84-.652-5.924l-3.308-3.857-9.018 8.528 2.131 2.481 3.591-3.38 1.037 1.228-2.273 5.381 2.721 2.282 1.845-5.793zm1.611-6.274c.844.984.859 2.152-.123 3.06-.956.924-2.177.712-3.104-.357l-.54-.634 3.053-2.894.714.825zm-14.074-3.254l3.021-2.632 2.422 3.026 1.253-1.096-2.437-3.039 2.556-2.258 2.496 3.12 1.239-1.084-4.559-5.702-9.293 8.189 5.019 6.287 1.253-1.092-2.97-3.72zm-3.484-19.14l-1.083 1.247 2.546 2.415-7.056 8.214 2.38 2.246 7.046-8.217 2.514 2.375 1.079-1.247-7.426-7.033zm-20.779.807l1.285-3.884 3.575 1.293.531-1.616-3.58-1.29 1.089-3.328 3.684 1.326.517-1.608-6.71-2.423-3.945 12.063 7.396 2.657.525-1.608-4.367-1.582zm-38.431-6.24l4.559 7.625-10.15-3.976-2.26 1.489 6.436 10.82 2.451-1.62-4.588-7.703 10.255 3.994 2.214-1.456L49.7 18.412l-2.47 1.64zM33.033 31.575l-2.076 2.337 5.818 12.139 1.42-1.595-1.58-3.23 2.809-3.17 3.184 1.417 2.34-2.629-11.916-5.27zm4.906 5.78L35.83 39.73l-2.166-4.368 4.274 1.993zm-11.763 1.923L23.917 42.1l4.221 9.16-9.052-3.11-1.948 2.421 9.301 8.196 1.412-1.76-6.573-5.806 8.81 3.011.928-1.153-4.201-8.834 6.601 5.808 2.062-2.56-9.302-8.195z" fill="#FFE500"/>
  <path d="M11.97 45.767l-.01-2.81c4.568-4.402 6.722-8.825 6.722-8.825s-1.68-.664-2.43-1.667c-.373-.557-.516-1.318-.453-1.83.145-.958.856-1.444 1.099-1.554.525-.237 1.501-.776 2.588.793 1.158 1.699.853 4.922.693 5.664 0 0-2.13 3.89-8.21 10.229" fill="url(#MW7NtrvrYJf)"/>
  <path d="M17.023 34.644c-.616 1.128-2.17 3.851-6.1 7.717-.653.642-2.281 1.187-3.205.1a2.475 2.475 0 01-.54-1.701c.045-.795.5-1.72.956-2.127.793-.702 4.17-4.28 6.57-7.093.066.513.487 1.372.487 1.372.331.48.735 1.168 1.832 1.732" fill="url(#MW7NtrvrYJg)"/>
  <path d="M72.481 122.383c-14.403 0-30.793-8.919-42.864-23.346-1.229-1.465-2.793-3.35-6.515-3.35-2.174 0-4.64 1.221-6.274 3.11-1.23 1.404-2.61 3.879-2.28 7.672.48 5.182 8.306 18.594 22.254 26.923 11.243 6.711 23.248 10.102 35.68 10.102" fill="url(#MW7NtrvrYJh)"/>
  <path d="M72.482 122.383c14.403 0 30.793-8.918 42.864-23.346 1.229-1.465 2.793-3.35 6.515-3.35 2.174 0 4.64 1.222 6.274 3.11 1.231 1.405 2.611 3.879 2.28 7.672-.479 5.183-8.305 18.594-22.254 26.923-11.243 6.711-23.248 10.102-35.68 10.102" fill="url(#MW7NtrvrYJi)"/>
  <path d="M111.668 56.57c6.143 8.606 11.345 11.854 16.342 10.52 7.222-1.929 8.119-12.36 8.216-15.517v-.125l-.081-.065c-2.546-1.852-6.805-4.92-13.943-15.537" fill="url(#MW7NtrvrYJj)"/>
  <path d="M33.557 56.572c-6.144 8.605-11.345 11.854-16.343 10.52-7.222-1.93-8.119-12.36-8.216-15.517v-.125l.081-.066c2.546-1.85 6.806-4.92 13.943-15.536" fill="url(#MW7NtrvrYJk)"/>
  <path d="M94.246 10.256c-4.841-1.701-8.501-3.026-14.464-3.582 2.748-2.001 5.187-3.696 7.992-3.696 1.475 0 2.736.592 3.027 1.673.27.984-.469 1.413-.732 1.347-.275-.074-.47-.16-.404-.426.07-.282-.137-1-1.075-1-.954 0-1.313.928-1.313 1.564s.962 1.698 2.73 1.698c1.733 0 2.622-1.213 2.556-2.334.836 1.284 1.323 2.584 1.683 4.756" fill="url(#MW7NtrvrYJl)"/>
  <path d="M72.832 3.586c-.152.97-1.217 1.902-2.294 1.902-1.079 0-1.402-.183-1.402-.183-.164.268-.307.473-.477.762.978-.04 3.247-.106 4.156-.106.908 0 3.423.137 3.965.178-.875-2.152-2.562-5.132-3.728-5.132-.04 0-.091-.004-.154-.004-.273 0-1.218.86-1.724 1.615-.665.992 1.657.968 1.657.968z" fill="url(#MW7NtrvrYJm)"/>
  <path d="M133.259 45.767l.01-2.81c-4.569-4.402-6.723-8.825-6.723-8.825s1.679-.664 2.431-1.666c.372-.558.515-1.32.453-1.83-.146-.959-.857-1.444-1.1-1.555-.525-.237-1.501-.776-2.588.793-1.158 1.699-.853 4.922-.693 5.664 0 0 2.13 3.89 8.21 10.229" fill="url(#MW7NtrvrYJn)"/>
  <path d="M128.202 34.644c.616 1.128 2.17 3.851 6.1 7.717.653.642 2.281 1.187 3.205.1a2.474 2.474 0 00.539-1.701c-.044-.796-.499-1.72-.955-2.127-.792-.702-4.169-4.28-6.57-7.093-.066.513-.487 1.372-.487 1.372-.331.48-.735 1.168-1.832 1.732" fill="url(#MW7NtrvrYJo)"/>
  <path d="M45.411 44.79v59.673l27.19 18.333 27.189-18.333.04-59.581c-.87-.806-2.68-2.572-4.096-3.496h-46.39c-1.175.865-3.527 2.947-3.933 3.405h0z" stroke="#000" stroke-width="2.098" stroke-miterlimit="3.863"/>
  <path d="M92.537 143.514c-2.669.742-4.576 1.37-9.072 1.943 0 0 .143.477 1.121.438.374-.025.424-.123.554-.146.289-.055.707.252.665.763-.045.361-.332.808-1.33.808s-2.16-.852-2.748-1.649c0 0-.596.146-1.217.178 0 0 1.922 2.816 5.697 2.816 4.144 0 5.688-3.904 6.33-5.151" fill="url(#MW7NtrvrYJp)"/>
  <path d="M2 82.263c0-7.2 5.567-13.054 12.435-13.054 6.87 0 12.434 5.855 12.434 13.053 0 7.212-5.563 13.054-12.434 13.054C7.567 95.316 2 89.474 2 82.263z" fill="#FFE500" stroke="#000" stroke-width="2.098" stroke-miterlimit="3.863"/>
  <path d="M4.846 81.778c0-5.457 4.292-9.896 9.588-9.896 5.297 0 9.587 4.439 9.587 9.896 0 5.468-4.29 9.897-9.587 9.897-5.296 0-9.588-4.429-9.588-9.897z" fill="url(#MW7NtrvrYJq)"/>
  <path d="M17.076 91.234c-.545.183-.782-.218-1.03-.506-.968-1.169-1.217-4.28-1.217-4.69 0-.414.146-.868.423-.879 2.334-.046 4-.757 5.53-2.09 1.528-1.31 2.19-2.814 2.326-3.081.134-.297.45-.244.51.167.064.344.187.96.187 1.629a9.942 9.942 0 01-6.729 9.45zm-2.463.405c-.066 0-.141.009-.204.009-1.72 0-3.613-.69-4.734-1.36-1.162-.663-1.599-3.793-1.599-5.375 0-5.15 2.013-8.216 2.34-8.818.32-.611 1.039-.675 1.566-.526.546.165.74.265 1.368.46.328.112.992.254 1.492.348.499.125 1.036.235.713 1.213-.32.98-1.406 3.333-1.516 6.123-.105 2.526.215 5.034.758 6.576.358.996.358 1.37-.184 1.35zM7.51 79.882c-.46-.255-1.01-1.497-1.197-1.86-.125-.26-.125-1.007.055-1.325.768-1.41 1.857-2.716 3.26-3.397.17-.078.411-.093.411.34 0 .23.12.59.124.82 0 .23.093.704-.186 1.077-.293.375-1.548 2.71-1.87 4.018-.052.293-.137.6-.598.327zm-.26 8.265c-1.3-1.349-2.228-3.791-2.228-6.363 0-.999.141-1.955.394-2.863 0 0 .232-.407.435-.061.155.254.37.51.543.85.194.34 1.2 1.143 1.115 1.798-.351 2.407-.036 5.604.073 6.143.097.532-.042.759-.331.496zm4.109-15.687a9.289 9.289 0 013.051-.523c1.61 0 3.175.307 4.48 1.18.335.23.43.497.43.893 0 1.292-1.923 1.724-3.196 1.724-1.281 0-2.858-.532-3.973-.903-1.111-.365-1.354-1.04-1.354-1.347 0-.294.216-.905.562-1.024zm8.685 1.436l.626.532c.897.859 1.708 1.838 2.178 3.013.589 1.48-1.236 3.721-1.772 4.239-2.416 2.381-3.93 2.336-4.787 2.466-.856.131-1.412-.433-1.39-1.11.055-1.98 1.399-5.394 1.784-6.036.247-.413.675-.67.675-.67.898-.26 1.768-.653 2.219-1.192.44-.547.467-1.242.467-1.242zm-5.54-2.602c-5.778 0-10.456 4.91-10.456 10.969 0 6.062 4.678 10.97 10.455 10.97 5.773 0 10.461-4.908 10.461-10.97 0-6.058-4.688-10.969-10.46-10.969" fill="#DA020E"/>
  <path d="M118.598 82.238c0-7.199 5.567-13.032 12.435-13.032 6.873 0 12.436 5.833 12.436 13.032 0 7.211-5.563 13.055-12.436 13.055-6.868 0-12.435-5.844-12.435-13.055z" fill="#FFE500" stroke="#000" stroke-width="2.098" stroke-miterlimit="3.863"/>
  <path d="M138.316 88.1c-.273.283-.427.037-.312-.491.095-.524.413-3.732.059-6.139-.087-.653.925-1.454 1.111-1.798.186-.337.398-.6.548-.846.208-.356.428.043.428.043.267.918.396 1.878.396 2.873 0 2.58-.939 5.014-2.23 6.359zm-.843-8.58c-.323-1.304-1.586-3.65-1.871-4.023-.287-.36-.196-.84-.192-1.07 0-.23.125-.597.125-.834 0-.413.239-.405.408-.327 1.411.681 2.494 1.968 3.27 3.391.171.324.176 1.067.048 1.319-.182.365-.729 1.607-1.198 1.87-.469.27-.538-.044-.59-.327zm-1.57 10.73c-1.124.66-3.017 1.356-4.745 1.356h-.2c-.531.015-.543-.373-.18-1.366.528-1.528.857-4.048.748-6.567-.109-2.803-1.182-5.13-1.516-6.117-.323-.977.217-1.096.722-1.206.501-.104 1.164-.257 1.493-.367.618-.198.819-.297 1.364-.46.532-.145 1.247-.072 1.572.523.319.611 2.336 3.696 2.336 8.834 0 1.573-.44 4.699-1.594 5.37zm-7.402.942a9.943 9.943 0 01-6.733-9.45c0-.66.123-1.27.174-1.627.075-.411.37-.479.517-.176.136.276.806 1.777 2.326 3.092 1.54 1.323 3.191 2.046 5.539 2.097.285.015.418.454.418.876 0 .417-.241 3.522-1.204 4.682-.257.296-.504.703-1.037.506zm-5.767-13.786c.459-1.175 1.273-2.172 2.17-3.012 0 0 .445-.394.616-.532 0 0 .037.702.483 1.228.445.53 1.308.946 2.205 1.194 0 0 .422.27.675.683.398.623 1.732 4.033 1.79 6.028.016.678-.533 1.242-1.392 1.113-.861-.12-2.37-.093-4.785-2.462-.533-.52-2.358-2.756-1.762-4.24zm3.944-4.326c1.324-.878 2.868-1.185 4.48-1.185 1.067 0 2.082.19 3.053.526.358.116.568.72.568 1.024 0 .299-.236.981-1.356 1.348-1.115.36-2.685.9-3.964.9-1.287 0-3.205-.44-3.205-1.725 0-.388.093-.67.424-.888zm4.381-1.815c-5.771 0-10.451 4.913-10.451 10.956 0 6.077 4.68 10.97 10.451 10.97 5.781 0 10.461-4.893 10.461-10.97 0-6.043-4.68-10.956-10.461-10.956z" fill="#DA020E"/>
  <path d="M121.587 81.728c0-5.457 4.292-9.896 9.588-9.896 5.297 0 9.587 4.439 9.587 9.897 0 5.467-4.29 9.896-9.587 9.896-5.296 0-9.588-4.429-9.588-9.897z" fill="url(#MW7NtrvrYJr)"/>
  <defs>
    <radialGradient id="MW7NtrvrYJa" cx="0" cy="0" r="1" gradientUnits="userSpaceOnUse" gradientTransform="matrix(4.87259 0 0 3.80089 72.946 147.851)">
      <stop stop-color="#FFE500"/>
      <stop offset=".5" stop-color="#FFE500"/>
      <stop offset="1" stop-color="#E15007"/>
    </radialGradient>
    <radialGradient id="MW7NtrvrYJb" cx="0" cy="0" r="1" gradientUnits="userSpaceOnUse" gradientTransform="matrix(5.15234 0 0 4.86124 59.56 146.09)">
      <stop stop-color="#FFE500"/>
      <stop offset=".5" stop-color="#FFE500"/>
      <stop offset="1" stop-color="#E15007"/>
    </radialGradient>
    <radialGradient id="MW7NtrvrYJe" cx="0" cy="0" r="1" gradientUnits="userSpaceOnUse" gradientTransform="matrix(5.89067 0 0 5.88556 57.127 6.935)">
      <stop stop-color="#FFE500"/>
      <stop offset=".5" stop-color="#FFE500"/>
      <stop offset="1" stop-color="#E15007"/>
    </radialGradient>
    <radialGradient id="MW7NtrvrYJf" cx="0" cy="0" r="1" gradientUnits="userSpaceOnUse" gradientTransform="matrix(4.55797 -8.3761 7.18402 3.90928 14.307 38.313)">
      <stop stop-color="#FFE500"/>
      <stop offset=".5" stop-color="#FFE500"/>
      <stop offset="1" stop-color="#E15007"/>
    </radialGradient>
    <radialGradient id="MW7NtrvrYJl" cx="0" cy="0" r="1" gradientUnits="userSpaceOnUse" gradientTransform="matrix(-5.89067 0 0 -5.88556 88.1 6.936)">
      <stop stop-color="#FFE500"/>
      <stop offset=".5" stop-color="#FFE500"/>
      <stop offset="1" stop-color="#E15007"/>
    </radialGradient>
    <radialGradient id="MW7NtrvrYJm" cx="0" cy="0" r="1" gradientUnits="userSpaceOnUse" gradientTransform="matrix(4.45035 0 0 4.46365 72.614 4.072)">
      <stop stop-color="#FFE500"/>
      <stop offset=".5" stop-color="#FFE500"/>
      <stop offset="1" stop-color="#E15007"/>
    </radialGradient>
    <radialGradient id="MW7NtrvrYJn" cx="0" cy="0" r="1" gradientUnits="userSpaceOnUse" gradientTransform="rotate(-118.553 76.845 -19.748) scale(9.53594 8.17875)">
      <stop stop-color="#FFE500"/>
      <stop offset=".5" stop-color="#FFE500"/>
      <stop offset="1" stop-color="#E15007"/>
    </radialGradient>
    <radialGradient id="MW7NtrvrYJp" cx="0" cy="0" r="1" gradientUnits="userSpaceOnUse" gradientTransform="matrix(-5.15234 0 0 -4.86126 86.524 146.089)">
      <stop stop-color="#FFE500"/>
      <stop offset=".5" stop-color="#FFE500"/>
      <stop offset="1" stop-color="#E15007"/>
    </radialGradient>
    <radialGradient id="MW7NtrvrYJq" cx="0" cy="0" r="1" gradientUnits="userSpaceOnUse" gradientTransform="matrix(9.58759 0 0 9.89664 14.433 81.778)">
      <stop stop-color="#DA030E" stop-opacity="0"/>
      <stop offset=".875" stop-color="#DA020E" stop-opacity="0"/>
      <stop offset="1" stop-color="#DA020E"/>
    </radialGradient>
    <radialGradient id="MW7NtrvrYJr" cx="0" cy="0" r="1" gradientUnits="userSpaceOnUse" gradientTransform="matrix(9.58759 0 0 9.89664 131.174 81.728)">
      <stop stop-color="#DA030E" stop-opacity="0"/>
      <stop offset=".875" stop-color="#DA020E" stop-opacity="0"/>
      <stop offset="1" stop-color="#DA020E"/>
    </radialGradient>
    <linearGradient id="MW7NtrvrYJd" x1="71.2" y1="63.852" x2="71.2" y2="92.236" gradientUnits="userSpaceOnUse">
      <stop stop-color="#8F0904"/>
      <stop offset=".25" stop-color="#B40509"/>
      <stop offset="1" stop-color="#DA020E"/>
    </linearGradient>
    <linearGradient id="MW7NtrvrYJg" x1="13.07" y1="34.475" x2="15.422" y2="36.94" gradientUnits="userSpaceOnUse">
      <stop stop-color="#FFE500"/>
      <stop offset=".5" stop-color="#FFE500"/>
      <stop offset="1" stop-color="#E15007"/>
    </linearGradient>
    <linearGradient id="MW7NtrvrYJh" x1="18.146" y1="98.45" x2="34.43" y2="116.262" gradientUnits="userSpaceOnUse">
      <stop stop-color="#740703"/>
      <stop offset="1" stop-color="#DA020E" stop-opacity="0"/>
    </linearGradient>
    <linearGradient id="MW7NtrvrYJi" x1="126.818" y1="98.451" x2="110.534" y2="116.262" gradientUnits="userSpaceOnUse">
      <stop stop-color="#740703"/>
      <stop offset="1" stop-color="#DA020E" stop-opacity="0"/>
    </linearGradient>
    <linearGradient id="MW7NtrvrYJj" x1="132.544" y1="64.242" x2="123.815" y2="56.414" gradientUnits="userSpaceOnUse">
      <stop stop-color="#740703"/>
      <stop offset="1" stop-color="#DA020E" stop-opacity="0"/>
    </linearGradient>
    <linearGradient id="MW7NtrvrYJk" x1="12.68" y1="64.243" x2="21.974" y2="54.897" gradientUnits="userSpaceOnUse">
      <stop stop-color="#740703"/>
      <stop offset="1" stop-color="#DA020E" stop-opacity="0"/>
    </linearGradient>
    <linearGradient id="MW7NtrvrYJo" x1="132.155" y1="34.475" x2="129.803" y2="36.94" gradientUnits="userSpaceOnUse">
      <stop stop-color="#FFE500"/>
      <stop offset=".5" stop-color="#FFE500"/>
      <stop offset="1" stop-color="#E15007"/>
    </linearGradient>
    <filter id="MW7NtrvrYJc" x="34.23" y="14.369" width="76.785" height="120.639" filterUnits="userSpaceOnUse" color-interpolation-filters="sRGB">
      <feFlood flood-opacity="0" result="BackgroundImageFix"/>
      <feBlend in="SourceGraphic" in2="BackgroundImageFix" result="shape"/>
      <feGaussianBlur stdDeviation="3.091" result="effect1_foregroundBlur_1078:23424"/>
    </filter>
  </defs>
</svg>
