<svg xmlns="http://www.w3.org/2000/svg" fill="none" viewBox="0 0 186 196">
  <path d="M102.384 187.721c-.743 2.295-3.111 7.923-8.842 7.923-6.518 0-8.779-7.408-8.889-7.72l-.192-.702s5.613.491 8.706.491c3.084 0 8.369-.321 9.224-.491l-.007.499z" fill="#000"/>
  <path d="M119.488 184.069l1.337.178c-1.595 4.379-4.461 9.287-10.077 9.287-5.478 0-8.179-3.33-9.311-5.557l-.957-.613s9.436-.321 19.008-3.295m-51.694 0l-1.337.178c1.587 4.379 4.466 9.287 10.1 9.287 5.447 0 8.383-3.505 9.593-5.557l.649-.613s-9.42-.321-19.005-3.295" fill="#000"/>
  <path d="M98.114 188.186c-.889 1.337-1.486 1.269-2.537 1.269-.544 0-1.327.46-1.319 1.309.023.668.542 1.21 1.395 1.21 1.94 0 3.423-2.823 3.817-4.026 0 0 1.137-.049 1.468-.085 0 0-2.034 6.387-7.326 6.387-5.301 0-7.463-6.31-7.463-6.31s4.47.285 7.017.285c2.555 0 4.182-.025 4.948-.039" fill="url(#-toeVBTwxFa)"/>
  <path d="M68.512 185.372c3.444.959 5.905 1.77 11.707 2.509 0 0-.185.616-1.447.567-.483-.033-.548-.159-.715-.189-.373-.071-.912.326-.858.986.058.466.428 1.044 1.716 1.044s2.787-1.102 3.546-2.131c0 0 .77.189 1.57.23 0 0-2.48 3.637-7.35 3.637-5.348 0-7.34-5.042-8.17-6.653" fill="url(#-toeVBTwxFb)"/>
  <path d="M93.1 155.436c18.47 0 38.933-11.908 53.299-29.076 1.565-1.857 4.185-5.384 10.425-5.384 6.249 0 14.556 5.984 13.584 16.874-.725 7.932-11.517 25.827-29.995 36.835C121.94 185.736 104.922 188.1 93.1 188.1c-11.832 0-28.835-2.364-47.318-13.415-18.476-11.008-29.265-28.903-29.985-36.835-.973-10.89 7.337-16.874 13.574-16.874 6.255 0 8.886 3.527 10.445 5.384 14.345 17.168 34.819 29.076 53.284 29.076v0z" fill="#FFE500" stroke="#000" stroke-width="2.098" stroke-miterlimit="3.863"/>
  <path d="M92.946 158.078c-18.585 0-39.733-11.52-55.31-30.155-1.585-1.892-3.603-4.327-8.406-4.327-2.805 0-5.986 1.577-8.096 4.018-1.587 1.813-3.368 5.009-2.94 9.909.617 6.694 10.716 24.017 28.714 34.775 14.508 8.668 29.998 13.048 46.038 13.048 16.056 0 31.547-4.38 46.054-13.048 17.993-10.758 28.107-28.081 28.702-34.775.445-4.9-1.348-8.096-2.915-9.909-2.12-2.441-5.309-4.018-8.101-4.018-4.824 0-6.84 2.435-8.41 4.327-15.568 18.635-36.742 30.155-55.33 30.155z" fill="#DA020E"/>
  <path d="M172.894 60.895l.065-4.525c1.327 1.066 3.823 1.082 5.283-.553.665-.745 1.043-1.898.988-3.084-.063-1.34-.641-2.73-1.593-3.711-5.392-5.535-10.182-11.062-10.182-11.062-.495-.822-1.27-1.416-1.718-1.619-.66-.331-3.006-1.457-4.795 1.397-1.614 2.585-1.374 6.23-1.064 7.562l5.056 7.239c1.731 2.306 6.609 7.211 7.96 8.356zM64.832 13.977c6.365-2.246 12.184-4.103 20.027-4.832l1.19-.7C81.67 4.814 77.32 2.338 72.99 2.338c-2.719 0-8.252 1.942-9.485 12.197l1.327-.56zm56.549 0c-6.367-2.246-12.181-4.103-20.016-4.831l-1.205-.701c4.396-3.63 8.735-6.105 13.071-6.105 2.722 0 8.231 1.941 9.491 12.196l-1.341-.559z" fill="#000"/>
  <path d="M85.91 8.805C89.112 2.34 92.04 0 93.677 0c2.024 0 4.407 3.38 6.279 7.754l.394.991-1.646-.134c-1.079-.214-4.153-.255-5.326-.255-1.205 0-3.802 0-5.366.154l-2.102.295z" fill="#000"/>
  <path d="M60.663 154.532l-4.636 8.803c-1.4 2.645-2.842 4.324-5.207 2.9-2.328-1.383-1.788-3.388-.36-6.121l4.65-8.814-3.75-2.185-4.912 9.314c-2.704 5.128.698 8.307 3.363 9.849 2.845 1.655 6.985 2.884 9.666-2.204l4.946-9.356-3.76-2.186zm59.615 18.136l-1.562-5.051 4.651-1.577-.644-2.101-4.657 1.586-1.324-4.317 4.761-1.64-.641-2.079-8.717 2.977 4.845 15.644 9.608-3.273-.634-2.087-5.686 1.918zm9.957-20.246l-5.306 3.213 7.856 14.31 5.285-3.21c5.462-3.308 5.981-8.32 3.83-12.341-2.589-4.771-6.862-4.881-11.665-1.972zm8.018 4.355c1.989 3.662 1.585 6.332-1.479 8.175l-1.46.893-5.767-10.468 1.569-.956c3.679-2.221 5.768-.243 7.137 2.356zm-42.445 6.705l.284 2.145 4.385-.652 1.896 14.143 4.078-.594-1.891-14.135 4.321-.63-.297-2.175-12.776 1.898zm-3.713.134l-4.107-.235-.821 16.433 4.109.23.819-16.428zm-12.469-2.009l-2.86 11.23-5.353-13.544-3.33-.939-4.057 15.899 3.627 1.01 2.884-11.322 5.434 13.658 3.256.923 4.042-15.904-3.643-1.011zM58.016 57.854v77.077l35.085 23.68 35.082-23.68.052-76.96c-1.124-1.04-3.457-3.321-5.285-4.516H63.09c-1.515 1.118-4.55 3.807-5.074 4.399z" fill="#FFE500"/>
  <g filter="url(#-toeVBTwxFc)">
    <path d="M58.016 26.546V134.93L93.1 158.61l35.082-23.68.053-108.267" stroke="#B54005" stroke-width="10" stroke-miterlimit="3.863"/>
  </g>
  <path d="M107.122 113.155v-2.865s-.725-1.178-2.521-1.178c-1.791 0-2.863.567-2.863 1.041 0 .775 1.604 3.002 5.384 3.002zM92.975 87.796l2.711-4.974 2.125 4.974h3.52c-2.117 2.087-2.983 5.245-2.983 7.351v2.295c0 .975-.466 2.588-.466 2.588s3.056 2.446 3.525 2.871c.195.161.409.26.268.684-.242.715-2.317 1.699-2.529 1.885-.469.438-.591.701-.469 1.134.149.416.537.493 1.332.197.803-.271 2.467-1.189 3.862-1.816 1.39-.635 3.251-.474 3.251-.474v-2.807h-5.256v-8.92l-.928-1.573 2.318-4.338 2.33 4.366-.917 1.544v4.66h2.677v-4.66l-.923-1.544 2.326-4.333 2.316 4.333-.916 1.544v4.66h2.696v-4.66l-.954-1.544 2.334-4.333 2.325 4.333-.928 1.544.045 8.907h-5.299v4.119c1.202 1.186 2.337 3.87 2.337 5.451 0 1.618-1.004 2.303-1.004 2.303.336 1.271.271 1.8.127 2.95-.127 1.169-1.517 2.993-1.517 2.993v21.289c0 1.447-3.189 1.304-3.189.069v-20.878c-1.804-2.074-6.716-3.703-6.716-3.703-1.802 1.892-2.91 5.179-2.91 5.179.782.575 2 0 2.459-.559.451-.559 1.376-.704 1.911-.35.524.35.654.484.474 1.306-.206.866-.534 2.249-.534 3.215 0 .992 1.061.77 1.854.844 1.601.148 1.864 2.027 1.731 3.076-.13 1.054-.6 3.292-.6 4.683 0 1.378.071 2.769.201 3.558.138.761.399 1.602.326 2.585-.081 1.323-.855 1.534-1.658.685-.793-.835-11.892-13.264-11.892-13.264-.738 2.528 2.333 6.839 3.324 8.17.999 1.331.933 2.309.06 3.221-.855.901-2.522 1.383-2.847 2.232-.34.822.795 3.352 3.128 6.491 2.326 3.133-2.67 5.237-5.65 5.864-3 .619-3-1.545-2.792-2.731.198-1.175.198-1.89.125-2.922-.065-1.052-.983-2.509-2.258-4.254-1.26-1.752-1.26-3.346-.735-7.408.529-4.051.404-6.636.404-6.636s-1.33.057-3.26 0c-1.918-.077-3.511-1.247-3.647-6.138-.133-4.878-.243-16.526-.558-17.748-.308-1.208-1.551-1.43-2.075-1.591-.545-.143-.571-.967-.045-1.263 1.387-.709 3.05-2.498 2.436-3.61-.624-1.114-3.067-.884-4.701-.043-1.64.832-3.37 2.662-3.815 3.16-.43.493-.803.493-.756-.038.055-.57-.303-3.235-.514-4.158-.234-.93-1.027-2.692-1.296-3.157-.263-.469 0-.65.449-.469.43.186 1.415.616 2.341.874.934.296 1.823-.186 2.248-1.101.443-.945 1.309-2.936 1.752-3.826.435-.88 1.14-.682 1.718-.548.574.142 1.106.515 1.635.737.527.23.967.186 1.155-.096.18-.269.399-.37.717-1.066.31-.695.696-.364.746-.087 1.585 10.013 5.715 10.473 5.715 10.473-.62 1.668-2.076 4.327-2.42 4.998-.373.628-.51 1.521-.602 2.213-.07.691.23 7.305.67 9.729.449 2.426 1.86 1.482 2.318.739.425-.739 1.81-3.818 1.81-3.818s.341-.838.341-1.533c0-.702-1.147-2.222-1.41-2.695-.274-.482-1.242-1.405-1.242-3.736 0-2.323 1.993-3.933 2.71-4.544.709-.611.709-1.457.612-1.966-.31-1.797-2.127-5.577-3-7.026-.895-1.443-2.621-4.184-2.621-4.184h3.587l2.31-5.04 2.514 5.061 2.626.025zm-.582 15.266c1.171-2.032 1.661-4.144 1.661-4.144H90.67s.542 2.161 1.723 4.144zm-3.525-10.246c.136 1.041.874 1.438 1.434 1.134.558-.323.462-1.166.047-1.84-.396-.66-1.22-1.397-1.473-1.288-.258.113-.097 1.38-.008 1.994zm6.709-1.994c-.243-.11-1.11.628-1.523 1.288-.396.674-.498 1.517.065 1.84.55.304 1.26-.101 1.437-1.134.097-.613.287-1.881.02-1.994" fill="url(#-toeVBTwxFd)"/>
  <path d="M60.769 77.069v4.64h64.73v-4.64h-4.774v.749H65.543v-.75h-4.774zm.004-20.852h64.718v18.487H60.773V56.218z" fill="#DA020E"/>
  <path d="M71.893 69.338l4.956 1.279 2.676-7.83v-1.984l-7.632 8.535zm40.849 4.616v-2.412h-4.677v-2.027h3.822v-8.94h-3.522l-1.205-2.459-1.176 2.46h-3.533v8.94h3.838v2.026h-9.201v-2.027h3.827v-8.94h-3.527l-1.192-2.459-1.205 2.46h-3.517v8.94h3.846v2.026h-9.392v-2.027h3.836v-8.94H86.23l-1.181-2.459-1.213 2.46h-3.52v8.94h3.849v2.026l-7.431.025-7.392-1.814 1.48 4.2h41.919z" fill="#FFE500"/>
  <path d="M65.2 13.246c6.247-2.196 10.969-3.908 18.663-4.626-3.546-2.585-6.693-4.773-10.312-4.773-1.904 0-3.53.764-3.906 2.16-.35 1.271.605 1.825.944 1.74.355-.096.607-.206.521-.55-.09-.365.178-1.29 1.388-1.29 1.23 0 1.694 1.196 1.694 2.018 0 .821-1.24 2.193-3.522 2.193-2.237 0-3.385-1.566-3.299-3.015-1.079 1.66-1.707 3.339-2.171 6.143" fill="url(#-toeVBTwxFe)"/>
  <path d="M21.668 52.54l5.073-7.239c.293-1.33.524-4.973-1.097-7.559-1.773-2.856-4.11-1.728-4.795-1.396-.433.202-1.22.794-1.705 1.618 0 0-4.879 5.642-10.247 11.194-.759.791-1.593 2.237-1.664 3.577-.065 1.188.391 2.383 1.048 3.128 1.468 1.643 4.034 1.577 5.345.509l.092 4.525c1.35-1.142 6.22-6.05 7.95-8.357z" fill="#000"/>
  <path d="M93.1 42.005c28.89 0 45.327 28.484 48.915 33.485 6.372 8.934 14.173 16.186 23.213 13.79 13.279-3.569 12.588-24.23 12.588-24.23-3.204-2.425-8.664-5.476-18.619-20.298-9.749-14.53-31.809-36.055-66.096-36.055-34.295 0-56.35 21.525-66.076 36.055C17.06 59.574 11.582 62.625 8.41 65.049c0 0-.717 20.662 12.572 24.23 9.035 2.397 16.831-4.855 23.214-13.79 3.574-5 20.022-33.484 48.906-33.484v0z" fill="#FFE500" stroke="#000" stroke-width="2.098" stroke-miterlimit="3.863"/>
  <path d="M93.099 39.3c27.852 0 44.416 24.816 50.407 33.77 7.927 11.116 14.639 15.312 21.087 13.59 9.318-2.493 10.476-15.965 10.601-20.043v-.162l-.104-.085c-3.285-2.39-8.782-6.354-17.991-20.067-5.494-8.19-26.35-34.929-64-34.929-37.637 0-58.512 26.74-64.003 34.929-9.133 13.625-14.877 17.78-17.954 19.999l-.13.112.015.142c.126 4.087 1.286 17.63 10.581 20.104 6.456 1.722 13.18-2.474 21.087-13.59C48.68 64.117 65.26 39.3 93.099 39.3" fill="#DA020E"/>
  <path d="M77.971 18.569c-5.11 1.136-8.477 5.094-7.374 10.46.642 2.897 3.103 8.23 10.889 6.49 2.161-.432 3.33-1.336 4.46-2.473l-1.418-1.712c-.534.625-1.332 1.534-3.123 1.926-3.768.835-6.007-2.367-6.565-5.13-.83-4.095 1.441-6.916 4.007-7.5 1.833-.424 2.944.1 3.648.387h.023l.477-2.098c-1.236-.52-2.72-.865-5.024-.35zm42.74 23.604c2.923 1.849 6.111 1.534 7.603-1.06 1.084-1.813 1.095-3.32-.209-6.017-.336-.764-.777-1.312-1.071-2.008-.577-1.128-1.109-2.051-.613-2.925.547-.948 1.815-1.024 2.962-.287 1.202.764 1.7 2.026 1.953 2.89l1.885-.855c-.579-1.627-1.437-3.087-3.398-4.306-3.35-2.12-6.075-1.561-7.209.425-1.15 1.996-.824 3.659.042 5.362 0 0 .537.967.847 1.627.759 1.331 1.643 3.01 1.022 4.06-.751 1.322-2.044 1.61-3.303.788-1.614-1.068-1.992-2.312-2.329-3.525l-2.072.931c.456 1.67 1.527 3.402 3.89 4.9zM98.397 17.705l-.117 6.705-6.138-.093.091-6.73-4.114-.08-.274 16.453 4.122.093.13-7.543 6.149.118-.117 7.53 4.116.065.269-16.452-4.117-.066zm58.945 52.243c.028.04 2.414 1.279 5.066-1.222 2.216-2.092 1.473-4.96-.843-7.652l-4.268-4.982-11.636 11.016 2.75 3.204 4.634-4.366 1.337 1.586-2.933 6.951 3.512 2.947 2.381-7.482zm2.078-8.105c1.089 1.271 1.108 2.78-.159 3.953-1.234 1.194-2.809.92-4.005-.46l-.697-.82 3.94-3.738.921 1.065zm-18.161-4.203l3.898-3.398 3.127 3.908 1.616-1.416-3.144-3.925 3.298-2.917 3.22 4.029 1.598-1.4-5.882-7.364-11.991 10.577 6.477 8.12 1.616-1.41-3.833-4.804zm-4.495-24.722l-1.397 1.61 3.285 3.12-9.105 10.61 3.072 2.9 9.091-10.612 3.244 3.067 1.392-1.61-9.582-9.085zm-26.811 1.043l1.658-5.017 4.612 1.67.686-2.087-4.62-1.668 1.405-4.297 4.754 1.712.667-2.076-8.659-3.13-5.09 15.58 9.543 3.432.678-2.076-5.634-2.043zm-49.59-8.06l5.883 9.848-13.097-5.135-2.915 1.923 8.304 13.976 3.163-2.093-5.921-9.95 13.232 5.16 2.858-1.881-8.32-13.969-3.186 2.12zM42.044 40.782L39.367 43.8l7.506 15.68 1.833-2.06-2.039-4.17 3.624-4.095 4.11 1.83 3.019-3.397-15.376-6.806zm6.33 7.466l-2.718 3.068-2.796-5.642 5.515 2.574zm-15.177 2.484l-2.915 3.645L35.73 66.21l-11.68-4.018-2.514 3.128 12.001 10.586 1.823-2.273-8.482-7.5 11.368 3.89 1.197-1.49-5.42-11.41 8.518 7.502 2.66-3.306-12.003-10.586z" fill="#FFE500"/>
  <path d="M14.86 59.116l-.012-3.629c5.895-5.685 8.674-11.399 8.674-11.399s-2.166-.857-3.136-2.152c-.48-.72-.665-1.704-.584-2.364.187-1.238 1.105-1.865 1.418-2.008.678-.306 1.937-1.002 3.34 1.025 1.494 2.194 1.1 6.357.894 7.315 0 0-2.748 5.026-10.593 13.212" fill="url(#-toeVBTwxFf)"/>
  <path d="M21.383 44.749c-.795 1.457-2.8 4.973-7.871 9.966-.843.83-2.944 1.534-4.136.13a3.198 3.198 0 01-.696-2.197c.058-1.028.644-2.222 1.233-2.748 1.022-.906 5.38-5.526 8.477-9.161.086.663.628 1.772.628 1.772.428.619.95 1.51 2.365 2.238" fill="url(#-toeVBTwxFg)"/>
  <path d="M92.946 158.078c-18.585 0-39.733-11.52-55.31-30.155-1.585-1.892-3.603-4.327-8.406-4.327-2.805 0-5.986 1.577-8.096 4.018-1.587 1.813-3.368 5.009-2.94 9.909.617 6.694 10.716 24.017 28.714 34.775 14.508 8.668 29.998 13.048 46.038 13.048" fill="url(#-toeVBTwxFh)"/>
  <path d="M92.944 158.078c18.586 0 39.734-11.52 55.31-30.155 1.585-1.892 3.603-4.327 8.406-4.327 2.806 0 5.987 1.577 8.096 4.018 1.588 1.813 3.369 5.009 2.941 9.909-.618 6.694-10.716 24.017-28.715 34.775-14.507 8.668-29.997 13.048-46.038 13.048" fill="url(#-toeVBTwxFi)"/>
  <path d="M143.507 73.07c7.928 11.115 14.639 15.311 21.087 13.588 9.319-2.492 10.477-15.964 10.602-20.043v-.161l-.104-.085c-3.286-2.391-8.782-6.354-17.991-20.068" fill="url(#-toeVBTwxFj)"/>
  <path d="M42.72 73.07c-7.927 11.116-14.639 15.312-21.087 13.59-9.318-2.493-10.476-15.965-10.601-20.044v-.161l.104-.085c3.285-2.391 8.782-6.354 17.99-20.068" fill="url(#-toeVBTwxFk)"/>
  <path d="M121.028 13.246c-6.248-2.196-10.97-3.908-18.664-4.626 3.546-2.585 6.693-4.773 10.312-4.773 1.904 0 3.531.764 3.906 2.16.349 1.271-.605 1.825-.944 1.74-.354-.096-.607-.206-.521-.55.091-.365-.178-1.29-1.387-1.29-1.231 0-1.695 1.196-1.695 2.018 0 .821 1.241 2.194 3.522 2.194 2.237 0 3.385-1.567 3.299-3.016 1.079 1.66 1.707 3.339 2.172 6.143" fill="url(#-toeVBTwxFl)"/>
  <path d="M93.392 4.633c-.195 1.254-1.57 2.457-2.96 2.457-1.392 0-1.809-.236-1.809-.236-.211.345-.396.61-.615.983 1.262-.052 4.19-.137 5.363-.137 1.17 0 4.417.178 5.116.23-1.13-2.78-3.306-6.628-4.81-6.628-.053 0-.118-.005-.199-.005-.352 0-1.571 1.11-2.224 2.086-.859 1.28 2.138 1.25 2.138 1.25z" fill="url(#-toeVBTwxFm)"/>
  <path d="M171.365 59.116l.013-3.629c-5.895-5.685-8.674-11.399-8.674-11.399s2.166-.857 3.136-2.152c.48-.72.665-1.704.584-2.364-.187-1.238-1.105-1.865-1.418-2.008-.678-.306-1.937-1.002-3.34 1.025-1.494 2.194-1.1 6.357-.894 7.315 0 0 2.748 5.026 10.593 13.212" fill="url(#-toeVBTwxFn)"/>
  <path d="M164.84 44.749c.795 1.457 2.8 4.973 7.871 9.966.843.83 2.944 1.534 4.136.13.446-.546.74-1.31.696-2.197-.058-1.028-.644-2.222-1.233-2.748-1.022-.906-5.379-5.526-8.477-9.161-.086.663-.628 1.772-.628 1.772-.428.619-.949 1.51-2.365 2.238" fill="url(#-toeVBTwxFo)"/>
  <path d="M58.016 57.854v77.077l35.085 23.68 35.082-23.68.052-76.96c-1.124-1.04-3.457-3.321-5.285-4.516H63.09c-1.515 1.118-4.55 3.807-5.074 4.399h0z" stroke="#000" stroke-width="2.098" stroke-miterlimit="3.863"/>
  <path d="M118.824 185.373c-3.445.958-5.906 1.769-11.707 2.508 0 0 .185.617 1.447.567.482-.033.547-.158.714-.189.373-.071.913.326.858.986-.057.466-.428 1.044-1.716 1.044s-2.787-1.101-3.546-2.131c0 0-.769.189-1.569.23 0 0 2.479 3.637 7.35 3.637 5.347 0 7.34-5.042 8.169-6.652" fill="url(#-toeVBTwxFp)"/>
  <path d="M2 106.256c0-9.298 7.183-16.86 16.046-16.86 8.865 0 16.043 7.562 16.043 16.86 0 9.315-7.178 16.86-16.043 16.86-8.863 0-16.046-7.545-16.046-16.86z" fill="#FFE500" stroke="#000" stroke-width="2.098" stroke-miterlimit="3.863"/>
  <path d="M5.672 105.629c0-7.05 5.539-12.783 12.372-12.783 6.835 0 12.37 5.733 12.37 12.783 0 7.062-5.535 12.783-12.37 12.783-6.833 0-12.372-5.721-12.372-12.783z" fill="url(#-toeVBTwxFq)"/>
  <path d="M21.453 117.844c-.704.235-1.009-.282-1.33-.655-1.248-1.509-1.57-5.527-1.57-6.058 0-.534.189-1.12.546-1.134 3.011-.06 5.162-.978 7.136-2.7 1.971-1.693 2.827-3.635 3.001-3.98.172-.383.582-.315.657.216.084.444.243 1.241.243 2.104a12.84 12.84 0 01-8.683 12.207zm-3.178.523c-.086 0-.183.011-.263.011-2.22 0-4.662-.89-6.11-1.756-1.499-.857-2.062-4.899-2.062-6.943 0-6.652 2.597-10.613 3.02-11.39.411-.79 1.34-.871 2.02-.68.704.214.954.343 1.765.595.423.145 1.28.328 1.925.449.644.161 1.337.304.92 1.566-.412 1.266-1.815 4.306-1.955 7.91-.136 3.262.276 6.502.977 8.493.462 1.288.462 1.77-.237 1.745zM9.107 103.18c-.591-.329-1.303-1.934-1.543-2.402-.162-.337-.162-1.3.07-1.712.991-1.821 2.396-3.508 4.206-4.387.222-.102.532-.12.532.438 0 .298.154.764.159 1.06 0 .298.12.91-.24 1.391-.378.485-1.997 3.5-2.412 5.19-.068.378-.177.775-.772.422zm-.333 10.676c-1.68-1.742-2.876-4.897-2.876-8.219 0-1.29.182-2.525.508-3.698 0 0 .3-.526.56-.079.202.329.478.66.702 1.098.25.438 1.549 1.476 1.44 2.323-.454 3.108-.047 7.239.093 7.934.125.688-.054.981-.427.641zm5.3-20.262a11.975 11.975 0 013.938-.676c2.078 0 4.096.397 5.78 1.525.433.296.555.641.555 1.153 0 1.668-2.482 2.227-4.124 2.227-1.653 0-3.687-.688-5.126-1.167-1.434-.471-1.747-1.342-1.747-1.74 0-.38.279-1.169.725-1.322zm11.207 1.854l.808.688c1.158 1.109 2.203 2.374 2.81 3.892.76 1.911-1.595 4.806-2.286 5.475-3.118 3.075-5.071 3.018-6.177 3.185-1.105.17-1.822-.559-1.793-1.433.07-2.558 1.804-6.967 2.302-7.797.318-.534.87-.865.87-.865 1.158-.337 2.282-.844 2.864-1.54.568-.706.602-1.605.602-1.605zm-7.15-3.36c-7.454 0-13.49 6.343-13.49 14.168 0 7.83 6.036 14.171 13.49 14.171 7.45 0 13.499-6.341 13.499-14.171 0-7.825-6.05-14.168-13.498-14.168" fill="#DA020E"/>
  <path d="M152.45 106.224c0-9.299 7.183-16.833 16.046-16.833 8.867 0 16.045 7.534 16.045 16.833 0 9.315-7.178 16.863-16.045 16.863-8.863 0-16.046-7.548-16.046-16.863z" fill="#FFE500" stroke="#000" stroke-width="2.098" stroke-miterlimit="3.863"/>
  <path d="M177.892 113.797c-.352.364-.55.046-.402-.636.123-.676.532-4.82.076-7.929-.112-.843 1.194-1.879 1.434-2.322.24-.436.514-.775.707-1.093.268-.46.552.055.552.055.344 1.186.511 2.426.511 3.711 0 3.333-1.212 6.477-2.878 8.214zm-1.088-11.084c-.417-1.685-2.046-4.714-2.414-5.196-.37-.466-.253-1.085-.248-1.383 0-.296.162-.77.162-1.076 0-.535.308-.524.527-.422 1.82.879 3.217 2.541 4.218 4.38.222.418.227 1.377.063 1.703-.235.471-.941 2.076-1.546 2.415-.605.348-.694-.057-.762-.421zm-2.025 13.861c-1.45.852-3.893 1.75-6.122 1.75h-.259c-.685.019-.701-.482-.232-1.764.681-1.975 1.106-5.228.965-8.482-.141-3.621-1.525-6.628-1.955-7.902-.418-1.262.279-1.416.93-1.558.647-.134 1.502-.331 1.927-.474.798-.255 1.056-.383 1.76-.594.686-.186 1.609-.093 2.029.676.412.79 3.014 4.774 3.014 11.41 0 2.033-.569 6.07-2.057 6.938zm-9.551 1.216a12.841 12.841 0 01-8.688-12.207c0-.852.159-1.641.224-2.101.097-.531.477-.619.668-.227.175.356 1.04 2.295 3.001 3.993 1.987 1.709 4.117 2.643 7.147 2.709.367.019.539.586.539 1.131 0 .54-.31 4.549-1.554 6.047-.331.384-.649.91-1.337.655zm-7.442-17.808c.592-1.517 1.643-2.805 2.801-3.89 0 0 .573-.509.795-.687 0 0 .047.907.623 1.586.574.685 1.687 1.222 2.845 1.542 0 0 .545.348.871.882.513.805 2.234 5.209 2.31 7.787.021.876-.689 1.604-1.797 1.437-1.11-.156-3.058-.12-6.174-3.179-.688-.671-3.043-3.561-2.274-5.478zm5.09-5.587c1.708-1.134 3.7-1.531 5.781-1.531 1.376 0 2.685.246 3.939.679.462.15.733.931.733 1.323 0 .386-.305 1.268-1.75 1.742-1.439.465-3.465 1.16-5.115 1.16-1.661 0-4.136-.566-4.136-2.226 0-.501.12-.865.548-1.147zm5.653-2.345c-7.447 0-13.486 6.346-13.486 14.152 0 7.849 6.039 14.171 13.486 14.171 7.459 0 13.498-6.322 13.498-14.171 0-7.806-6.039-14.152-13.498-14.152z" fill="#DA020E"/>
  <path d="M156.305 105.566c0-7.05 5.538-12.784 12.372-12.784 6.835 0 12.37 5.734 12.37 12.784 0 7.062-5.535 12.783-12.37 12.783-6.834 0-12.372-5.721-12.372-12.783z" fill="url(#-toeVBTwxFr)"/>
  <defs>
    <radialGradient id="-toeVBTwxFa" cx="0" cy="0" r="1" gradientUnits="userSpaceOnUse" gradientTransform="matrix(6.28725 0 0 4.90947 93.544 190.974)">
      <stop stop-color="#FFE500"/>
      <stop offset=".5" stop-color="#FFE500"/>
      <stop offset="1" stop-color="#E15007"/>
    </radialGradient>
    <radialGradient id="-toeVBTwxFb" cx="0" cy="0" r="1" gradientUnits="userSpaceOnUse" gradientTransform="matrix(6.64821 0 0 6.27907 76.271 188.699)">
      <stop stop-color="#FFE500"/>
      <stop offset=".5" stop-color="#FFE500"/>
      <stop offset="1" stop-color="#E15007"/>
    </radialGradient>
    <radialGradient id="-toeVBTwxFe" cx="0" cy="0" r="1" gradientUnits="userSpaceOnUse" gradientTransform="matrix(7.60091 0 0 7.60218 73.13 8.958)">
      <stop stop-color="#FFE500"/>
      <stop offset=".5" stop-color="#FFE500"/>
      <stop offset="1" stop-color="#E15007"/>
    </radialGradient>
    <radialGradient id="-toeVBTwxFf" cx="0" cy="0" r="1" gradientUnits="userSpaceOnUse" gradientTransform="matrix(5.8813 -10.81918 9.27411 5.0414 17.877 49.488)">
      <stop stop-color="#FFE500"/>
      <stop offset=".5" stop-color="#FFE500"/>
      <stop offset="1" stop-color="#E15007"/>
    </radialGradient>
    <radialGradient id="-toeVBTwxFl" cx="0" cy="0" r="1" gradientUnits="userSpaceOnUse" gradientTransform="matrix(-7.60091 0 0 -7.60218 113.096 8.958)">
      <stop stop-color="#FFE500"/>
      <stop offset=".5" stop-color="#FFE500"/>
      <stop offset="1" stop-color="#E15007"/>
    </radialGradient>
    <radialGradient id="-toeVBTwxFm" cx="0" cy="0" r="1" gradientUnits="userSpaceOnUse" gradientTransform="matrix(5.74243 0 0 5.76555 93.112 5.261)">
      <stop stop-color="#FFE500"/>
      <stop offset=".5" stop-color="#FFE500"/>
      <stop offset="1" stop-color="#E15007"/>
    </radialGradient>
    <radialGradient id="-toeVBTwxFn" cx="0" cy="0" r="1" gradientUnits="userSpaceOnUse" gradientTransform="matrix(-5.88116 -10.81914 9.27416 -5.04133 168.349 49.488)">
      <stop stop-color="#FFE500"/>
      <stop offset=".5" stop-color="#FFE500"/>
      <stop offset="1" stop-color="#E15007"/>
    </radialGradient>
    <radialGradient id="-toeVBTwxFp" cx="0" cy="0" r="1" gradientUnits="userSpaceOnUse" gradientTransform="matrix(-6.64823 0 0 -6.27912 111.064 188.699)">
      <stop stop-color="#FFE500"/>
      <stop offset=".5" stop-color="#FFE500"/>
      <stop offset="1" stop-color="#E15007"/>
    </radialGradient>
    <radialGradient id="-toeVBTwxFq" cx="0" cy="0" r="1" gradientUnits="userSpaceOnUse" gradientTransform="matrix(12.3712 0 0 12.7832 18.043 105.629)">
      <stop stop-color="#DA030E" stop-opacity="0"/>
      <stop offset=".875" stop-color="#DA020E" stop-opacity="0"/>
      <stop offset="1" stop-color="#DA020E"/>
    </radialGradient>
    <radialGradient id="-toeVBTwxFr" cx="0" cy="0" r="1" gradientUnits="userSpaceOnUse" gradientTransform="matrix(12.3712 0 0 12.7832 168.676 105.566)">
      <stop stop-color="#DA030E" stop-opacity="0"/>
      <stop offset=".875" stop-color="#DA020E" stop-opacity="0"/>
      <stop offset="1" stop-color="#DA020E"/>
    </radialGradient>
    <linearGradient id="-toeVBTwxFd" x1="91.29" y1="82.475" x2="91.29" y2="119.137" gradientUnits="userSpaceOnUse">
      <stop stop-color="#8F0904"/>
      <stop offset=".25" stop-color="#B40509"/>
      <stop offset="1" stop-color="#DA020E"/>
    </linearGradient>
    <linearGradient id="-toeVBTwxFg" x1="16.282" y1="44.53" x2="19.321" y2="47.71" gradientUnits="userSpaceOnUse">
      <stop stop-color="#FFE500"/>
      <stop offset=".5" stop-color="#FFE500"/>
      <stop offset="1" stop-color="#E15007"/>
    </linearGradient>
    <linearGradient id="-toeVBTwxFh" x1="22.835" y1="127.165" x2="43.87" y2="150.15" gradientUnits="userSpaceOnUse">
      <stop stop-color="#740703"/>
      <stop offset="1" stop-color="#DA020E" stop-opacity="0"/>
    </linearGradient>
    <linearGradient id="-toeVBTwxFi" x1="163.056" y1="127.165" x2="142.02" y2="150.15" gradientUnits="userSpaceOnUse">
      <stop stop-color="#740703"/>
      <stop offset="1" stop-color="#DA020E" stop-opacity="0"/>
    </linearGradient>
    <linearGradient id="-toeVBTwxFj" x1="170.445" y1="82.978" x2="159.171" y2="72.88" gradientUnits="userSpaceOnUse">
      <stop stop-color="#740703"/>
      <stop offset="1" stop-color="#DA020E" stop-opacity="0"/>
    </linearGradient>
    <linearGradient id="-toeVBTwxFk" x1="15.783" y1="82.979" x2="27.787" y2="70.919" gradientUnits="userSpaceOnUse">
      <stop stop-color="#740703"/>
      <stop offset="1" stop-color="#DA020E" stop-opacity="0"/>
    </linearGradient>
    <linearGradient id="-toeVBTwxFo" x1="169.941" y1="44.53" x2="166.902" y2="47.71" gradientUnits="userSpaceOnUse">
      <stop stop-color="#FFE500"/>
      <stop offset=".5" stop-color="#FFE500"/>
      <stop offset="1" stop-color="#E15007"/>
    </linearGradient>
    <filter id="-toeVBTwxFc" x="46.833" y="20.363" width="92.584" height="150.462" filterUnits="userSpaceOnUse" color-interpolation-filters="sRGB">
      <feFlood flood-opacity="0" result="BackgroundImageFix"/>
      <feBlend in="SourceGraphic" in2="BackgroundImageFix" result="shape"/>
      <feGaussianBlur stdDeviation="3.091" result="effect1_foregroundBlur_1104:21600"/>
    </filter>
  </defs>
</svg>
