<svg xmlns="http://www.w3.org/2000/svg" fill="none" viewBox="0 0 24 32">
  <g clip-path="url(#7CT8j8mj4PWa)">
    <path d="M6.605 16.65v8.154c0 1.115 1.155 1.81 2.078 1.253l9.474-5.71c2.204-1.33 4.96.33 4.96 2.986 0 1.233-.631 2.371-1.653 2.987l-8.53 5.143a2.672 2.672 0 01-2.773 0l-8.776-5.294A2.923 2.923 0 010 23.664V13.08c0-1.033.529-1.988 1.386-2.506L18.157.467c2.204-1.329 4.96.333 4.96 2.988 0 1.233-.631 2.373-1.653 2.989L7.644 14.77a2.192 2.192 0 00-1.04 1.88z" fill="#9A0700"/>
  </g>
  <defs>
    <clipPath id="7CT8j8mj4PWa">
      <path fill="#fff" d="M0 0h23.648v31.852H0z"/>
    </clipPath>
  </defs>
</svg>
