<svg xmlns="http://www.w3.org/2000/svg" fill="none" viewBox="0 0 41 26">
  <path d="M25.906 22.762H14.878V2.725h11.028v20.037z" fill="#F16623"/>
  <path d="M15.576 12.743c0-4.066 1.883-7.686 4.814-10.02A12.459 12.459 0 0012.602 0C5.642 0 0 5.705 0 12.743c0 7.037 5.643 12.743 12.602 12.743 2.94 0 5.644-1.018 7.788-2.724a12.775 12.775 0 01-4.814-10.02z" fill="#E31E27"/>
  <path d="M40.778 12.744c0 7.037-5.642 12.743-12.601 12.743-2.94 0-5.644-1.018-7.788-2.724a12.774 12.774 0 004.813-10.02 12.77 12.77 0 00-4.813-10.018A12.458 12.458 0 0128.177 0c6.96 0 12.601 5.706 12.601 12.744zm-.388 7.896v-.494h-.128l-.148.34-.146-.34h-.128v.495h.091v-.373l.138.322h.093l.138-.323v.374h.09zm-.809 0v-.41h.164v-.083h-.417v.083h.163v.41h.09z" fill="#F99F1E"/>
</svg>
