<svg xmlns="http://www.w3.org/2000/svg" fill="none" viewBox="0 0 53 33">
  <path d="M33.428 29.401H19.199V3.52h14.229v25.882z" fill="#F16623"/>
  <path d="M20.099 16.46a16.51 16.51 0 016.21-12.941 16.066 16.066 0 00-10.048-3.52C7.281 0 .001 7.37.001 16.46c0 9.091 7.28 16.46 16.26 16.46 3.793 0 7.283-1.314 10.049-3.518a16.508 16.508 0 01-6.211-12.941z" fill="#E31E27"/>
  <path d="M52.617 16.46c0 9.09-7.28 16.46-16.26 16.46A16.064 16.064 0 0126.31 29.4a16.506 16.506 0 006.21-12.94c0-5.251-2.429-9.927-6.21-12.94A16.064 16.064 0 0136.357 0c8.98 0 16.26 7.37 16.26 16.46zm-.501 10.2v-.64h-.164l-.19.44-.19-.44h-.164v.64h.117v-.482l.178.416h.12l.178-.417v.482h.115zm-1.043 0v-.53h.212v-.109h-.539v.108h.212v.53h.115z" fill="#F99F1E"/>
</svg>
