<svg xmlns="http://www.w3.org/2000/svg" fill="none" viewBox="0 0 48 30">
  <path d="M30.323 26.645H17.416V3.19h12.907v23.454z" fill="#F16623"/>
  <path d="M18.233 14.916a14.95 14.95 0 015.635-11.727 14.584 14.584 0 00-9.116-3.19C6.605 0 .001 6.678.001 14.916s6.604 14.917 14.751 14.917c3.44 0 6.606-1.192 9.116-3.19a14.954 14.954 0 01-5.635-11.727z" fill="#E31E27"/>
  <path d="M47.734 14.916c0 8.238-6.604 14.917-14.75 14.917a14.582 14.582 0 01-9.116-3.19 14.953 14.953 0 005.634-11.727c0-4.759-2.203-8.996-5.634-11.727a14.582 14.582 0 019.116-3.19c8.146 0 14.75 6.679 14.75 14.917zm-.454 9.244v-.58h-.15l-.172.399-.172-.399h-.15v.58h.107v-.437l.161.377h.109l.161-.378v.437h.105zm-.947 0v-.48h.192v-.099h-.489v.098h.192v.48h.105z" fill="#F99F1E"/>
</svg>
