<svg xmlns="http://www.w3.org/2000/svg" fill="none" viewBox="0 0 43 27">
  <path d="M26.985 23.71H15.498V2.839h11.487v20.873z" fill="#F16623"/>
  <path d="M16.225 13.274c0-4.235 1.962-8.006 5.015-10.436a12.978 12.978 0 00-8.112-2.839C5.877 0 0 5.943 0 13.274c0 7.33 5.878 13.274 13.127 13.274 3.062 0 5.88-1.06 8.113-2.838a13.307 13.307 0 01-5.015-10.436z" fill="#E31E27"/>
  <path d="M42.478 13.274c0 7.331-5.876 13.274-13.126 13.274-3.063 0-5.879-1.06-8.112-2.838a13.307 13.307 0 005.013-10.436c0-4.235-1.96-8.006-5.013-10.436A12.976 12.976 0 0129.352 0c7.25 0 13.126 5.943 13.126 13.274zm-.405 8.226v-.515h-.133l-.153.355-.153-.355h-.133v.516h.095v-.389l.143.336h.097l.144-.336v.389h.093zm-.842 0v-.427h.171v-.087h-.435v.087h.17v.428h.094z" fill="#F99F1E"/>
</svg>
