<svg xmlns="http://www.w3.org/2000/svg" fill="none" viewBox="0 0 240 497">
  <path d="M53.09.086h132.927c9.293 0 16.257 0 21.786.451 5.528.452 9.613 1.355 13.147 3.156a33.093 33.093 0 0114.464 14.463c1.801 3.535 2.703 7.62 3.155 13.147.452 5.529.452 12.493.452 21.786v390.164c0 9.293 0 16.257-.452 21.786-.452 5.528-1.354 9.612-3.155 13.147a33.09 33.09 0 01-14.464 14.463c-3.534 1.801-7.619 2.704-13.147 3.156-5.529.452-12.493.452-21.786.452H53.089c-9.293 0-16.257 0-21.786-.452-5.528-.452-9.612-1.355-13.147-3.156a33.091 33.091 0 01-14.463-14.463c-1.801-3.535-2.704-7.619-3.156-13.147-.451-5.529-.451-12.493-.451-21.786V53.089c0-9.293 0-16.257.451-21.786.452-5.528 1.355-9.612 3.156-13.147A33.095 33.095 0 0118.156 3.693C21.69 1.892 25.776.989 31.303.537 36.832.086 43.796.086 53.09.086z" fill="#000" stroke="url(#Wa6OrGEUpp9a)" stroke-width=".171"/>
  <defs>
    <linearGradient id="Wa6OrGEUpp9a" x1="15.283" y1="6.344" x2="220.462" y2="483.832" gradientUnits="userSpaceOnUse">
      <stop stop-color="#fff" stop-opacity=".16"/>
      <stop offset="1" stop-color="#fff" stop-opacity=".05"/>
    </linearGradient>
  </defs>
</svg>
