<svg xmlns="http://www.w3.org/2000/svg" fill="none" viewBox="0 0 240 497">
  <path d="M53.087.25h132.924c9.296 0 16.252 0 21.772.451 5.518.451 9.578 1.35 13.086 3.138a32.93 32.93 0 0114.391 14.39c1.787 3.509 2.687 7.57 3.138 13.087.451 5.52.451 12.476.451 21.771V443.24c0 9.295 0 16.251-.451 21.772-.451 5.517-1.351 9.578-3.138 13.085a32.931 32.931 0 01-14.391 14.391c-3.508 1.787-7.568 2.687-13.086 3.138-5.52.451-12.476.451-21.772.451H53.088c-9.296 0-16.252 0-21.773-.451-5.517-.451-9.577-1.351-13.085-3.138a32.93 32.93 0 01-14.39-14.391c-1.789-3.507-2.689-7.568-3.14-13.085-.449-5.521-.45-12.477-.45-21.772V53.087c0-9.295 0-16.251.451-21.772.451-5.517 1.35-9.577 3.138-13.085A32.93 32.93 0 0118.23 3.84C21.739 2.051 25.8 1.151 31.317.7 36.835.251 43.791.25 53.087.25z" fill="#000" stroke="url(#HLLtlt_BTNya)" stroke-width=".5"/>
  <defs>
    <linearGradient id="HLLtlt_BTNya" x1="15.282" y1="6.343" x2="220.455" y2="483.817" gradientUnits="userSpaceOnUse">
      <stop stop-color="#fff" stop-opacity=".16"/>
      <stop offset="1" stop-color="#fff" stop-opacity=".05"/>
    </linearGradient>
  </defs>
</svg>
