<svg xmlns="http://www.w3.org/2000/svg" fill="none" viewBox="0 0 245 502">
  <g filter="url(#CKu0IzzLdrca)">
    <path d="M0 56.919c0-19.924 0-29.885 3.877-37.495A35.574 35.574 0 0119.424 3.877C27.034 0 36.995 0 56.919 0h130.735c19.923 0 29.885 0 37.495 3.877a35.579 35.579 0 0115.546 15.547c3.877 7.61 3.877 17.571 3.877 37.495v387.963c0 19.924 0 29.886-3.877 37.495a35.58 35.58 0 01-15.546 15.547c-7.61 3.877-17.572 3.877-37.495 3.877H56.919c-19.924 0-29.885 0-37.495-3.877a35.576 35.576 0 01-15.547-15.547C0 474.768 0 464.806 0 444.882V56.919z" fill="#050505"/>
  </g>
  <path d="M56.919.342h130.735c9.967 0 17.422 0 23.337.484 5.911.483 10.254 1.446 14.002 3.356A35.23 35.23 0 01240.39 19.58c1.91 3.749 2.874 8.092 3.357 14.002.483 5.915.483 13.37.483 23.338v387.963c0 9.968 0 17.423-.483 23.338-.483 5.911-1.447 10.253-3.357 14.002a35.232 35.232 0 01-15.397 15.397c-3.748 1.91-8.091 2.874-14.002 3.356-5.915.484-13.37.484-23.337.484H56.919c-9.968 0-17.423 0-23.337-.484-5.911-.482-10.254-1.446-14.003-3.356a35.235 35.235 0 01-15.397-15.397c-1.91-3.749-2.873-8.091-3.356-14.002-.484-5.915-.484-13.37-.484-23.338V56.919c0-9.968 0-17.423.484-23.337.483-5.911 1.446-10.254 3.356-14.003A35.232 35.232 0 0119.58 4.182c3.749-1.91 8.092-2.873 14.002-3.356C39.496.342 46.951.342 56.92.342z" stroke="url(#CKu0IzzLdrcb)" stroke-width=".684"/>
  <defs>
    <linearGradient id="CKu0IzzLdrcb" x1="122.286" y1="0" x2="122.286" y2="501.801" gradientUnits="userSpaceOnUse">
      <stop stop-color="#fff" stop-opacity=".64"/>
      <stop offset="1" stop-color="#fff" stop-opacity=".32"/>
    </linearGradient>
    <filter id="CKu0IzzLdrca" x="0" y="0" width="244.572" height="501.801" filterUnits="userSpaceOnUse" color-interpolation-filters="sRGB">
      <feFlood flood-opacity="0" result="BackgroundImageFix"/>
      <feBlend in="SourceGraphic" in2="BackgroundImageFix" result="shape"/>
      <feColorMatrix in="SourceAlpha" values="0 0 0 0 0 0 0 0 0 0 0 0 0 0 0 0 0 0 127 0" result="hardAlpha"/>
      <feOffset/>
      <feGaussianBlur stdDeviation="1.71"/>
      <feComposite in2="hardAlpha" operator="arithmetic" k2="-1" k3="1"/>
      <feColorMatrix values="0 0 0 0 1 0 0 0 0 1 0 0 0 0 1 0 0 0 0.88 0"/>
      <feBlend in2="shape" result="effect1_innerShadow_1380:24172"/>
      <feColorMatrix in="SourceAlpha" values="0 0 0 0 0 0 0 0 0 0 0 0 0 0 0 0 0 0 127 0" result="hardAlpha"/>
      <feOffset/>
      <feGaussianBlur stdDeviation=".855"/>
      <feComposite in2="hardAlpha" operator="arithmetic" k2="-1" k3="1"/>
      <feColorMatrix values="0 0 0 0 0 0 0 0 0 0 0 0 0 0 0 0 0 0 1 0"/>
      <feBlend in2="effect1_innerShadow_1380:24172" result="effect2_innerShadow_1380:24172"/>
    </filter>
  </defs>
</svg>
